<ttFont>
    <TTGlyph name="A" xMin="13" yMin="-107" xMax="613" yMax="706">
      <contour>
        <pt x="613" y="-74" on="1"/>
        <pt x="592" y="-86" on="0"/>
        <pt x="542" y="-102" on="0"/>
        <pt x="507" y="-107" on="1"/>
        <pt x="495" y="-22" on="0"/>
        <pt x="467" y="131" on="0"/>
        <pt x="450" y="201" on="1"/>
        <pt x="379" y="201" on="0"/>
        <pt x="251" y="192" on="0"/>
        <pt x="197" y="184" on="1"/>
        <pt x="176" y="131" on="0"/>
        <pt x="129" y="27" on="0"/>
        <pt x="103" y="-24" on="1"/>
        <pt x="75" y="-19" on="0"/>
        <pt x="30" y="6" on="0"/>
        <pt x="13" y="24" on="1"/>
        <pt x="99" y="178" on="0"/>
        <pt x="212" y="477" on="0"/>
        <pt x="267" y="706" on="1"/>
        <pt x="300" y="705" on="0"/>
        <pt x="346" y="700" on="0"/>
        <pt x="369" y="694" on="1"/>
        <pt x="465" y="519" on="0"/>
        <pt x="577" y="163" on="0"/>
      </contour>
      <contour>
        <pt x="318" y="581" on="1"/>
        <pt x="296" y="488" on="0"/>
        <pt x="251" y="332" on="0"/>
        <pt x="226" y="262" on="1"/>
        <pt x="279" y="269" on="0"/>
        <pt x="382" y="277" on="0"/>
        <pt x="430" y="278" on="1"/>
        <pt x="408" y="359" on="0"/>
        <pt x="353" y="508" on="0"/>
      </contour>
    </TTGlyph>
    <TTGlyph name="AE" xMin="14" yMin="-44" xMax="805" yMax="732">
      <contour>
        <pt x="804" y="-15" on="1"/>
        <pt x="729" y="-27" on="0"/>
        <pt x="522" y="-42" on="0"/>
        <pt x="428" y="-44" on="1"/>
        <pt x="418" y="30" on="0"/>
        <pt x="405" y="137" on="0"/>
        <pt x="400" y="184" on="1"/>
        <pt x="345" y="182" on="0"/>
        <pt x="246" y="174" on="0"/>
        <pt x="204" y="168" on="1"/>
        <pt x="183" y="123" on="0"/>
        <pt x="134" y="26" on="0"/>
        <pt x="104" y="-27" on="1"/>
        <pt x="76" y="-22" on="0"/>
        <pt x="30" y="4" on="0"/>
        <pt x="14" y="22" on="1"/>
        <pt x="108" y="180" on="0"/>
        <pt x="231" y="481" on="0"/>
        <pt x="290" y="702" on="1"/>
        <pt x="309" y="701" on="0"/>
        <pt x="351" y="695" on="0"/>
        <pt x="380" y="689" on="1"/>
        <pt x="516" y="713" on="0"/>
        <pt x="687" y="730" on="0"/>
        <pt x="780" y="732" on="1"/>
        <pt x="780" y="710" on="0"/>
        <pt x="775" y="665" on="0"/>
        <pt x="771" y="644" on="1"/>
        <pt x="696" y="643" on="0"/>
        <pt x="553" y="633" on="0"/>
        <pt x="482" y="624" on="1"/>
        <pt x="480" y="575" on="0"/>
        <pt x="481" y="460" on="0"/>
        <pt x="484" y="390" on="1"/>
        <pt x="558" y="405" on="0"/>
        <pt x="669" y="420" on="0"/>
        <pt x="727" y="424" on="1"/>
        <pt x="732" y="403" on="0"/>
        <pt x="736" y="362" on="0"/>
        <pt x="735" y="339" on="1"/>
        <pt x="662" y="335" on="0"/>
        <pt x="550" y="324" on="0"/>
        <pt x="489" y="314" on="1"/>
        <pt x="493" y="246" on="0"/>
        <pt x="507" y="106" on="0"/>
        <pt x="517" y="39" on="1"/>
        <pt x="587" y="41" on="0"/>
        <pt x="736" y="58" on="0"/>
        <pt x="796" y="71" on="1"/>
        <pt x="800" y="56" on="0"/>
        <pt x="805" y="5" on="0"/>
      </contour>
      <contour>
        <pt x="367" y="612" on="1"/>
        <pt x="340" y="514" on="0"/>
        <pt x="276" y="332" on="0"/>
        <pt x="240" y="247" on="1"/>
        <pt x="272" y="252" on="0"/>
        <pt x="345" y="258" on="0"/>
        <pt x="392" y="261" on="1"/>
        <pt x="383" y="359" on="0"/>
        <pt x="370" y="537" on="0"/>
      </contour>
    </TTGlyph>
    <TTGlyph name="Aacute" xMin="13" yMin="-107" xMax="613" yMax="928">
      <component glyphName="A" x="0" y="0" flags="0x204"/>
      <component glyphName="acute" x="227" y="177" flags="0x4"/>
    </TTGlyph>
    <TTGlyph name="Abreve" xMin="13" yMin="-107" xMax="613" yMax="894">
      <component glyphName="A" x="0" y="0" flags="0x204"/>
      <component glyphName="breve" x="188" y="154" flags="0x4"/>
    </TTGlyph>
    <TTGlyph name="Acircumflex" xMin="13" yMin="-107" xMax="613" yMax="904">
      <component glyphName="A" x="0" y="0" flags="0x204"/>
      <component glyphName="circumflex" x="196" y="162" flags="0x4"/>
    </TTGlyph>
    <TTGlyph name="Adieresis" xMin="13" yMin="-107" xMax="613" yMax="883">
      <component glyphName="A" x="0" y="0" flags="0x204"/>
      <component glyphName="dieresis" x="195" y="135" flags="0x4"/>
    </TTGlyph>
    <TTGlyph name="Agrave" xMin="13" yMin="-107" xMax="613" yMax="929">
      <component glyphName="A" x="0" y="0" flags="0x204"/>
      <component glyphName="grave" x="159" y="176" flags="0x4"/>
    </TTGlyph>
    <TTGlyph name="Amacron" xMin="13" yMin="-107" xMax="613" yMax="845">
      <component glyphName="A" x="0" y="0" flags="0x204"/>
      <component glyphName="macron" x="188" y="140" flags="0x4"/>
    </TTGlyph>
    <TTGlyph name="Aogonek" xMin="13" yMin="-292" xMax="638" yMax="706">
      <contour>
        <pt x="638" y="-233" on="1"/>
        <pt x="619" y="-263" on="0"/>
        <pt x="567" y="-292" on="0"/>
        <pt x="533" y="-292" on="1"/>
        <pt x="493" y="-292" on="0"/>
        <pt x="446" y="-251" on="0"/>
        <pt x="446" y="-216" on="1"/>
        <pt x="446" y="-186" on="0"/>
        <pt x="476" y="-131" on="0"/>
        <pt x="507" y="-105" on="1"/>
        <pt x="495" y="-20" on="0"/>
        <pt x="467" y="132" on="0"/>
        <pt x="450" y="201" on="1"/>
        <pt x="379" y="201" on="0"/>
        <pt x="251" y="192" on="0"/>
        <pt x="197" y="184" on="1"/>
        <pt x="176" y="131" on="0"/>
        <pt x="129" y="27" on="0"/>
        <pt x="103" y="-24" on="1"/>
        <pt x="75" y="-19" on="0"/>
        <pt x="30" y="6" on="0"/>
        <pt x="13" y="24" on="1"/>
        <pt x="99" y="178" on="0"/>
        <pt x="212" y="477" on="0"/>
        <pt x="267" y="706" on="1"/>
        <pt x="300" y="705" on="0"/>
        <pt x="346" y="700" on="0"/>
        <pt x="369" y="694" on="1"/>
        <pt x="465" y="519" on="0"/>
        <pt x="577" y="163" on="0"/>
        <pt x="613" y="-74" on="1"/>
        <pt x="605" y="-79" on="0"/>
        <pt x="589" y="-87" on="0"/>
        <pt x="579" y="-90" on="1"/>
        <pt x="549" y="-116" on="0"/>
        <pt x="519" y="-170" on="0"/>
        <pt x="519" y="-196" on="1"/>
        <pt x="519" y="-213" on="0"/>
        <pt x="536" y="-233" on="0"/>
        <pt x="552" y="-233" on="1"/>
        <pt x="569" y="-233" on="0"/>
        <pt x="597" y="-212" on="0"/>
        <pt x="610" y="-190" on="1"/>
        <pt x="618" y="-196" on="0"/>
        <pt x="632" y="-217" on="0"/>
      </contour>
      <contour>
        <pt x="318" y="581" on="1"/>
        <pt x="296" y="488" on="0"/>
        <pt x="251" y="332" on="0"/>
        <pt x="226" y="262" on="1"/>
        <pt x="279" y="269" on="0"/>
        <pt x="382" y="277" on="0"/>
        <pt x="430" y="278" on="1"/>
        <pt x="408" y="359" on="0"/>
        <pt x="353" y="508" on="0"/>
      </contour>
    </TTGlyph>
    <TTGlyph name="Aring" xMin="13" yMin="-107" xMax="613" yMax="933">
      <component glyphName="A" x="0" y="0" flags="0x204"/>
      <component glyphName="ring" x="199" y="167" flags="0x4"/>
    </TTGlyph>
    <TTGlyph name="Atilde" xMin="13" yMin="-107" xMax="613" yMax="850">
      <component glyphName="A" x="0" y="0" flags="0x204"/>
      <component glyphName="tilde" x="188" y="115" flags="0x4"/>
    </TTGlyph>
    <TTGlyph name="B" xMin="73" yMin="-20" xMax="555" yMax="740">
      <contour>
        <pt x="555" y="261" on="1"/>
        <pt x="555" y="144" on="0"/>
        <pt x="373" y="-20" on="0"/>
        <pt x="242" y="-20" on="1"/>
        <pt x="202" y="-20" on="0"/>
        <pt x="122" y="2" on="0"/>
        <pt x="91" y="21" on="1"/>
        <pt x="82" y="178" on="0"/>
        <pt x="74" y="408" on="0"/>
        <pt x="74" y="538" on="1"/>
        <pt x="74" y="548" on="0"/>
        <pt x="73" y="657" on="0"/>
        <pt x="74" y="697" on="1"/>
        <pt x="119" y="718" on="0"/>
        <pt x="218" y="740" on="0"/>
        <pt x="269" y="740" on="1"/>
        <pt x="382" y="740" on="0"/>
        <pt x="505" y="654" on="0"/>
        <pt x="505" y="577" on="1"/>
        <pt x="505" y="525" on="0"/>
        <pt x="452" y="445" on="0"/>
        <pt x="399" y="418" on="1"/>
        <pt x="474" y="404" on="0"/>
        <pt x="555" y="323" on="0"/>
      </contour>
      <contour>
        <pt x="398" y="563" on="1"/>
        <pt x="398" y="616" on="0"/>
        <pt x="328" y="672" on="0"/>
        <pt x="262" y="672" on="1"/>
        <pt x="247" y="672" on="0"/>
        <pt x="209" y="667" on="0"/>
        <pt x="188" y="662" on="1"/>
        <pt x="184" y="608" on="0"/>
        <pt x="179" y="490" on="0"/>
        <pt x="178" y="410" on="1"/>
        <pt x="291" y="422" on="0"/>
        <pt x="398" y="496" on="0"/>
      </contour>
      <contour>
        <pt x="181" y="67" on="1"/>
        <pt x="200" y="59" on="0"/>
        <pt x="236" y="51" on="0"/>
        <pt x="254" y="51" on="1"/>
        <pt x="332" y="51" on="0"/>
        <pt x="445" y="163" on="0"/>
        <pt x="445" y="237" on="1"/>
        <pt x="445" y="298" on="0"/>
        <pt x="376" y="357" on="0"/>
        <pt x="306" y="357" on="1"/>
        <pt x="279" y="357" on="0"/>
        <pt x="209" y="343" on="0"/>
        <pt x="177" y="332" on="1"/>
        <pt x="177" y="311" on="0"/>
        <pt x="177" y="270" on="0"/>
        <pt x="177" y="249" on="1"/>
        <pt x="177" y="211" on="0"/>
        <pt x="179" y="135" on="0"/>
      </contour>
    </TTGlyph>
    <TTGlyph name="C" xMin="43" yMin="-35" xMax="516" yMax="693">
      <contour>
        <pt x="427" y="225" on="1"/>
        <pt x="452" y="227" on="0"/>
        <pt x="496" y="218" on="0"/>
        <pt x="512" y="208" on="1"/>
        <pt x="506" y="90" on="0"/>
        <pt x="387" y="-35" on="0"/>
        <pt x="280" y="-35" on="1"/>
        <pt x="168" y="-35" on="0"/>
        <pt x="43" y="127" on="0"/>
        <pt x="43" y="276" on="1"/>
        <pt x="43" y="459" on="0"/>
        <pt x="207" y="693" on="0"/>
        <pt x="338" y="693" on="1"/>
        <pt x="426" y="693" on="0"/>
        <pt x="516" y="579" on="0"/>
        <pt x="516" y="467" on="1"/>
        <pt x="494" y="455" on="0"/>
        <pt x="447" y="445" on="0"/>
        <pt x="412" y="445" on="1"/>
        <pt x="417" y="536" on="0"/>
        <pt x="373" y="620" on="0"/>
        <pt x="319" y="620" on="1"/>
        <pt x="252" y="620" on="0"/>
        <pt x="159" y="439" on="0"/>
        <pt x="159" y="300" on="1"/>
        <pt x="159" y="174" on="0"/>
        <pt x="232" y="39" on="0"/>
        <pt x="301" y="39" on="1"/>
        <pt x="364" y="39" on="0"/>
        <pt x="432" y="139" on="0"/>
      </contour>
    </TTGlyph>
    <TTGlyph name="Cacute" xMin="43" yMin="-35" xMax="516" yMax="931">
      <component glyphName="C" x="0" y="0" flags="0x204"/>
      <component glyphName="acute" x="237" y="180" flags="0x4"/>
    </TTGlyph>
    <TTGlyph name="Ccaron" xMin="43" yMin="-35" xMax="516" yMax="905">
      <component glyphName="C" x="0" y="0" flags="0x204"/>
      <component glyphName="caron" x="206" y="165" flags="0x4"/>
    </TTGlyph>
    <TTGlyph name="Ccedilla" xMin="43" yMin="-249" xMax="516" yMax="693">
      <component glyphName="C" x="0" y="0" flags="0x204"/>
      <component glyphName="cedilla" x="162" y="-23" flags="0x4"/>
    </TTGlyph>
    <TTGlyph name="D" xMin="59" yMin="-10" xMax="553" yMax="717">
      <contour>
        <pt x="553" y="443" on="1"/>
        <pt x="553" y="294" on="0"/>
        <pt x="342" y="43" on="0"/>
        <pt x="171" y="-10" on="1"/>
        <pt x="156" y="-10" on="0"/>
        <pt x="93" y="-4" on="0"/>
        <pt x="79" y="-1" on="1"/>
        <pt x="68" y="160" on="0"/>
        <pt x="59" y="397" on="0"/>
        <pt x="59" y="508" on="1"/>
        <pt x="59" y="548" on="0"/>
        <pt x="61" y="635" on="0"/>
        <pt x="62" y="671" on="1"/>
        <pt x="112" y="695" on="0"/>
        <pt x="209" y="717" on="0"/>
        <pt x="263" y="717" on="1"/>
        <pt x="405" y="717" on="0"/>
        <pt x="553" y="576" on="0"/>
      </contour>
      <contour>
        <pt x="177" y="633" on="1"/>
        <pt x="170" y="534" on="0"/>
        <pt x="165" y="362" on="0"/>
        <pt x="165" y="220" on="1"/>
        <pt x="165" y="189" on="0"/>
        <pt x="166" y="125" on="0"/>
        <pt x="167" y="69" on="1"/>
        <pt x="302" y="122" on="0"/>
        <pt x="442" y="313" on="0"/>
        <pt x="442" y="444" on="1"/>
        <pt x="442" y="541" on="0"/>
        <pt x="342" y="645" on="0"/>
        <pt x="248" y="645" on="1"/>
        <pt x="232" y="645" on="0"/>
        <pt x="198" y="639" on="0"/>
      </contour>
    </TTGlyph>
    <TTGlyph name="Dcaron" xMin="59" yMin="-10" xMax="553" yMax="921">
      <component glyphName="D" x="0" y="0" flags="0x204"/>
      <component glyphName="caron" x="137" y="181" flags="0x4"/>
    </TTGlyph>
    <TTGlyph name="Dcroat" xMin="-25" yMin="-10" xMax="553" yMax="717">
      <component glyphName="Eth" x="0" y="0" flags="0x204"/>
    </TTGlyph>
    <TTGlyph name="E" xMin="60" yMin="-41" xMax="504" yMax="735">
      <contour>
        <pt x="503" y="-12" on="1"/>
        <pt x="429" y="-24" on="0"/>
        <pt x="222" y="-39" on="0"/>
        <pt x="128" y="-41" on="1"/>
        <pt x="100" y="140" on="0"/>
        <pt x="62" y="544" on="0"/>
        <pt x="60" y="688" on="1"/>
        <pt x="192" y="713" on="0"/>
        <pt x="378" y="733" on="0"/>
        <pt x="479" y="735" on="1"/>
        <pt x="480" y="714" on="0"/>
        <pt x="476" y="669" on="0"/>
        <pt x="471" y="646" on="1"/>
        <pt x="395" y="646" on="0"/>
        <pt x="252" y="636" on="0"/>
        <pt x="181" y="626" on="1"/>
        <pt x="179" y="569" on="0"/>
        <pt x="180" y="452" on="0"/>
        <pt x="183" y="392" on="1"/>
        <pt x="263" y="408" on="0"/>
        <pt x="372" y="423" on="0"/>
        <pt x="426" y="427" on="1"/>
        <pt x="431" y="406" on="0"/>
        <pt x="435" y="365" on="0"/>
        <pt x="434" y="342" on="1"/>
        <pt x="358" y="337" on="0"/>
        <pt x="247" y="326" on="0"/>
        <pt x="188" y="316" on="1"/>
        <pt x="192" y="257" on="0"/>
        <pt x="206" y="116" on="0"/>
        <pt x="216" y="42" on="1"/>
        <pt x="286" y="44" on="0"/>
        <pt x="435" y="61" on="0"/>
        <pt x="495" y="74" on="1"/>
        <pt x="500" y="60" on="0"/>
        <pt x="504" y="10" on="0"/>
      </contour>
    </TTGlyph>
    <TTGlyph name="Eacute" xMin="60" yMin="-41" xMax="504" yMax="937">
      <component glyphName="E" x="0" y="0" flags="0x204"/>
      <component glyphName="acute" x="142" y="186" flags="0x4"/>
    </TTGlyph>
    <TTGlyph name="Ecaron" xMin="60" yMin="-41" xMax="504" yMax="933">
      <component glyphName="E" x="0" y="0" flags="0x204"/>
      <component glyphName="caron" x="138" y="193" flags="0x4"/>
    </TTGlyph>
    <TTGlyph name="Ecircumflex" xMin="60" yMin="-41" xMax="504" yMax="924">
      <component glyphName="E" x="0" y="0" flags="0x204"/>
      <component glyphName="circumflex" x="139" y="182" flags="0x4"/>
    </TTGlyph>
    <TTGlyph name="Edieresis" xMin="60" yMin="-41" xMax="504" yMax="905">
      <component glyphName="E" x="0" y="0" flags="0x204"/>
      <component glyphName="dieresis" x="142" y="157" flags="0x4"/>
    </TTGlyph>
    <TTGlyph name="Edotaccent" xMin="60" yMin="-41" xMax="504" yMax="909">
      <component glyphName="E" x="0" y="0" flags="0x204"/>
      <component glyphName="dotaccent" x="140" y="161" flags="0x4"/>
    </TTGlyph>
    <TTGlyph name="Egrave" xMin="60" yMin="-41" xMax="504" yMax="935">
      <component glyphName="E" x="0" y="0" flags="0x204"/>
      <component glyphName="grave" x="120" y="182" flags="0x4"/>
    </TTGlyph>
    <TTGlyph name="Emacron" xMin="60" yMin="-41" xMax="504" yMax="862">
      <component glyphName="E" x="0" y="0" flags="0x204"/>
      <component glyphName="macron" x="134" y="157" flags="0x4"/>
    </TTGlyph>
    <TTGlyph name="Eogonek" xMin="60" yMin="-219" xMax="557" yMax="735">
      <contour>
        <pt x="557" y="-161" on="1"/>
        <pt x="537" y="-190" on="0"/>
        <pt x="483" y="-219" on="0"/>
        <pt x="449" y="-219" on="1"/>
        <pt x="410" y="-219" on="0"/>
        <pt x="364" y="-177" on="0"/>
        <pt x="364" y="-141" on="1"/>
        <pt x="364" y="-108" on="0"/>
        <pt x="401" y="-50" on="0"/>
        <pt x="441" y="-20" on="1"/>
        <pt x="375" y="-28" on="0"/>
        <pt x="209" y="-39" on="0"/>
        <pt x="128" y="-41" on="1"/>
        <pt x="100" y="140" on="0"/>
        <pt x="62" y="544" on="0"/>
        <pt x="60" y="688" on="1"/>
        <pt x="203" y="714" on="0"/>
        <pt x="384" y="733" on="0"/>
        <pt x="479" y="735" on="1"/>
        <pt x="480" y="714" on="0"/>
        <pt x="476" y="669" on="0"/>
        <pt x="471" y="646" on="1"/>
        <pt x="395" y="646" on="0"/>
        <pt x="252" y="636" on="0"/>
        <pt x="181" y="626" on="1"/>
        <pt x="179" y="569" on="0"/>
        <pt x="180" y="452" on="0"/>
        <pt x="183" y="392" on="1"/>
        <pt x="263" y="408" on="0"/>
        <pt x="372" y="423" on="0"/>
        <pt x="426" y="427" on="1"/>
        <pt x="431" y="406" on="0"/>
        <pt x="435" y="365" on="0"/>
        <pt x="434" y="342" on="1"/>
        <pt x="358" y="337" on="0"/>
        <pt x="247" y="326" on="0"/>
        <pt x="188" y="316" on="1"/>
        <pt x="192" y="257" on="0"/>
        <pt x="206" y="116" on="0"/>
        <pt x="216" y="42" on="1"/>
        <pt x="286" y="44" on="0"/>
        <pt x="435" y="61" on="0"/>
        <pt x="495" y="74" on="1"/>
        <pt x="500" y="60" on="0"/>
        <pt x="504" y="10" on="0"/>
        <pt x="503" y="-12" on="1"/>
        <pt x="470" y="-40" on="0"/>
        <pt x="438" y="-95" on="0"/>
        <pt x="438" y="-123" on="1"/>
        <pt x="438" y="-141" on="0"/>
        <pt x="455" y="-160" on="0"/>
        <pt x="470" y="-160" on="1"/>
        <pt x="487" y="-160" on="0"/>
        <pt x="515" y="-139" on="0"/>
        <pt x="528" y="-117" on="1"/>
        <pt x="538" y="-125" on="0"/>
        <pt x="552" y="-146" on="0"/>
      </contour>
    </TTGlyph>
    <TTGlyph name="Eth" xMin="-25" yMin="-10" xMax="553" yMax="717">
      <contour>
        <pt x="165" y="339" on="1"/>
        <pt x="165" y="309" on="0"/>
        <pt x="165" y="250" on="0"/>
        <pt x="165" y="220" on="1"/>
        <pt x="165" y="189" on="0"/>
        <pt x="166" y="125" on="0"/>
        <pt x="167" y="69" on="1"/>
        <pt x="302" y="122" on="0"/>
        <pt x="442" y="313" on="0"/>
        <pt x="442" y="444" on="1"/>
        <pt x="442" y="541" on="0"/>
        <pt x="342" y="645" on="0"/>
        <pt x="248" y="645" on="1"/>
        <pt x="232" y="645" on="0"/>
        <pt x="197" y="639" on="0"/>
        <pt x="177" y="633" on="1"/>
        <pt x="173" y="575" on="0"/>
        <pt x="168" y="464" on="0"/>
        <pt x="166" y="403" on="1"/>
        <pt x="200" y="405" on="0"/>
        <pt x="267" y="411" on="0"/>
        <pt x="300" y="416" on="1"/>
        <pt x="301" y="404" on="0"/>
        <pt x="301" y="373" on="0"/>
        <pt x="299" y="354" on="1"/>
        <pt x="265" y="348" on="0"/>
        <pt x="198" y="341" on="0"/>
      </contour>
      <contour>
        <pt x="553" y="443" on="1"/>
        <pt x="553" y="294" on="0"/>
        <pt x="342" y="43" on="0"/>
        <pt x="171" y="-10" on="1"/>
        <pt x="156" y="-10" on="0"/>
        <pt x="93" y="-4" on="0"/>
        <pt x="79" y="-1" on="1"/>
        <pt x="72" y="107" on="0"/>
        <pt x="64" y="269" on="0"/>
        <pt x="62" y="338" on="1"/>
        <pt x="40" y="339" on="0"/>
        <pt x="-3" y="342" on="0"/>
        <pt x="-24" y="344" on="1"/>
        <pt x="-25" y="364" on="0"/>
        <pt x="-24" y="397" on="0"/>
        <pt x="-22" y="407" on="1"/>
        <pt x="13" y="405" on="0"/>
        <pt x="46" y="403" on="0"/>
        <pt x="60" y="402" on="1"/>
        <pt x="59" y="421" on="0"/>
        <pt x="59" y="465" on="0"/>
        <pt x="59" y="508" on="1"/>
        <pt x="59" y="548" on="0"/>
        <pt x="61" y="635" on="0"/>
        <pt x="62" y="671" on="1"/>
        <pt x="112" y="694" on="0"/>
        <pt x="207" y="717" on="0"/>
        <pt x="253" y="717" on="1"/>
        <pt x="401" y="717" on="0"/>
        <pt x="553" y="578" on="0"/>
      </contour>
    </TTGlyph>
    <TTGlyph name="Euro" xMin="12" yMin="-40" xMax="513" yMax="668">
      <contour>
        <pt x="510" y="173" on="1"/>
        <pt x="485" y="63" on="0"/>
        <pt x="385" y="-40" on="0"/>
        <pt x="304" y="-40" on="1"/>
        <pt x="225" y="-40" on="0"/>
        <pt x="122" y="73" on="0"/>
        <pt x="107" y="178" on="1"/>
        <pt x="71" y="179" on="0"/>
        <pt x="34" y="181" on="0"/>
        <pt x="18" y="183" on="1"/>
        <pt x="15" y="208" on="0"/>
        <pt x="15" y="242" on="0"/>
        <pt x="17" y="253" on="1"/>
        <pt x="57" y="250" on="0"/>
        <pt x="88" y="249" on="0"/>
        <pt x="101" y="249" on="1"/>
        <pt x="101" y="254" on="0"/>
        <pt x="101" y="265" on="0"/>
        <pt x="101" y="270" on="1"/>
        <pt x="101" y="278" on="0"/>
        <pt x="102" y="298" on="0"/>
        <pt x="103" y="318" on="1"/>
        <pt x="79" y="318" on="0"/>
        <pt x="35" y="320" on="0"/>
        <pt x="14" y="322" on="1"/>
        <pt x="12" y="342" on="0"/>
        <pt x="12" y="380" on="0"/>
        <pt x="14" y="392" on="1"/>
        <pt x="32" y="390" on="0"/>
        <pt x="73" y="388" on="0"/>
        <pt x="111" y="387" on="1"/>
        <pt x="134" y="517" on="0"/>
        <pt x="269" y="668" on="0"/>
        <pt x="363" y="668" on="1"/>
        <pt x="439" y="668" on="0"/>
        <pt x="513" y="556" on="0"/>
        <pt x="511" y="445" on="1"/>
        <pt x="487" y="434" on="0"/>
        <pt x="444" y="426" on="0"/>
        <pt x="413" y="425" on="1"/>
        <pt x="419" y="514" on="0"/>
        <pt x="386" y="597" on="0"/>
        <pt x="344" y="597" on="1"/>
        <pt x="301" y="597" on="0"/>
        <pt x="234" y="484" on="0"/>
        <pt x="221" y="390" on="1"/>
        <pt x="250" y="392" on="0"/>
        <pt x="316" y="399" on="0"/>
        <pt x="358" y="405" on="1"/>
        <pt x="360" y="389" on="0"/>
        <pt x="357" y="352" on="0"/>
        <pt x="353" y="341" on="1"/>
        <pt x="290" y="331" on="0"/>
        <pt x="236" y="325" on="0"/>
        <pt x="215" y="323" on="1"/>
        <pt x="214" y="316" on="0"/>
        <pt x="214" y="300" on="0"/>
        <pt x="214" y="284" on="1"/>
        <pt x="214" y="270" on="0"/>
        <pt x="214" y="257" on="0"/>
        <pt x="215" y="251" on="1"/>
        <pt x="248" y="253" on="0"/>
        <pt x="319" y="261" on="0"/>
        <pt x="360" y="267" on="1"/>
        <pt x="362" y="252" on="0"/>
        <pt x="359" y="214" on="0"/>
        <pt x="355" y="203" on="1"/>
        <pt x="317" y="196" on="0"/>
        <pt x="251" y="187" on="0"/>
        <pt x="220" y="184" on="1"/>
        <pt x="231" y="109" on="0"/>
        <pt x="285" y="32" on="0"/>
        <pt x="326" y="32" on="1"/>
        <pt x="373" y="32" on="0"/>
        <pt x="428" y="125" on="0"/>
        <pt x="433" y="211" on="1"/>
        <pt x="454" y="209" on="0"/>
        <pt x="494" y="189" on="0"/>
      </contour>
    </TTGlyph>
    <TTGlyph name="F" xMin="56" yMin="-80" xMax="482" yMax="774">
      <contour>
        <pt x="205" y="-70" on="1"/>
        <pt x="184" y="-75" on="0"/>
        <pt x="135" y="-80" on="0"/>
        <pt x="106" y="-80" on="1"/>
        <pt x="109" y="139" on="0"/>
        <pt x="84" y="554" on="0"/>
        <pt x="56" y="720" on="1"/>
        <pt x="162" y="728" on="0"/>
        <pt x="339" y="750" on="0"/>
        <pt x="473" y="774" on="1"/>
        <pt x="476" y="764" on="0"/>
        <pt x="480" y="740" on="0"/>
        <pt x="481" y="728" on="1"/>
        <pt x="482" y="718" on="0"/>
        <pt x="480" y="697" on="0"/>
        <pt x="478" y="681" on="1"/>
        <pt x="358" y="663" on="0"/>
        <pt x="240" y="649" on="0"/>
        <pt x="186" y="645" on="1"/>
        <pt x="192" y="594" on="0"/>
        <pt x="202" y="479" on="0"/>
        <pt x="205" y="414" on="1"/>
        <pt x="258" y="425" on="0"/>
        <pt x="362" y="438" on="0"/>
        <pt x="415" y="440" on="1"/>
        <pt x="420" y="421" on="0"/>
        <pt x="424" y="382" on="0"/>
        <pt x="424" y="354" on="1"/>
        <pt x="373" y="352" on="0"/>
        <pt x="263" y="342" on="0"/>
        <pt x="207" y="335" on="1"/>
        <pt x="207" y="333" on="0"/>
        <pt x="207" y="329" on="0"/>
        <pt x="207" y="327" on="1"/>
        <pt x="209" y="205" on="0"/>
        <pt x="208" y="26" on="0"/>
      </contour>
    </TTGlyph>
    <TTGlyph name="G" xMin="43" yMin="-30" xMax="562" yMax="724">
      <contour>
        <pt x="513" y="349" on="1"/>
        <pt x="511" y="252" on="0"/>
        <pt x="535" y="72" on="0"/>
        <pt x="562" y="-19" on="1"/>
        <pt x="545" y="-24" on="0"/>
        <pt x="503" y="-29" on="0"/>
        <pt x="481" y="-30" on="1"/>
        <pt x="468" y="0" on="0"/>
        <pt x="446" y="64" on="0"/>
        <pt x="437" y="99" on="1"/>
        <pt x="401" y="38" on="0"/>
        <pt x="307" y="-21" on="0"/>
        <pt x="246" y="-21" on="1"/>
        <pt x="153" y="-21" on="0"/>
        <pt x="43" y="146" on="0"/>
        <pt x="43" y="290" on="1"/>
        <pt x="43" y="480" on="0"/>
        <pt x="198" y="724" on="0"/>
        <pt x="321" y="724" on="1"/>
        <pt x="406" y="724" on="0"/>
        <pt x="505" y="600" on="0"/>
        <pt x="507" y="494" on="1"/>
        <pt x="483" y="487" on="0"/>
        <pt x="430" y="479" on="0"/>
        <pt x="398" y="478" on="1"/>
        <pt x="394" y="565" on="0"/>
        <pt x="344" y="651" on="0"/>
        <pt x="299" y="651" on="1"/>
        <pt x="236" y="651" on="0"/>
        <pt x="155" y="467" on="0"/>
        <pt x="155" y="323" on="1"/>
        <pt x="155" y="198" on="0"/>
        <pt x="218" y="64" on="0"/>
        <pt x="275" y="64" on="1"/>
        <pt x="322" y="64" on="0"/>
        <pt x="393" y="136" on="0"/>
        <pt x="414" y="205" on="1"/>
        <pt x="409" y="232" on="0"/>
        <pt x="403" y="296" on="0"/>
        <pt x="400" y="337" on="1"/>
        <pt x="425" y="343" on="0"/>
        <pt x="481" y="349" on="0"/>
      </contour>
    </TTGlyph>
    <TTGlyph name="Gbreve" xMin="43" yMin="-30" xMax="562" yMax="898">
      <component glyphName="G" x="0" y="0" flags="0x204"/>
      <component glyphName="breve" x="173" y="158" flags="0x4"/>
    </TTGlyph>
    <TTGlyph name="H" xMin="61" yMin="-56" xMax="555" yMax="742">
      <contour>
        <pt x="534" y="727" on="1"/>
        <pt x="543" y="547" on="0"/>
        <pt x="555" y="98" on="0"/>
        <pt x="555" y="-56" on="1"/>
        <pt x="528" y="-56" on="0"/>
        <pt x="465" y="-49" on="0"/>
        <pt x="449" y="-45" on="1"/>
        <pt x="449" y="20" on="0"/>
        <pt x="446" y="218" on="0"/>
        <pt x="444" y="329" on="1"/>
        <pt x="363" y="328" on="0"/>
        <pt x="231" y="320" on="0"/>
        <pt x="174" y="312" on="1"/>
        <pt x="175" y="215" on="0"/>
        <pt x="178" y="68" on="0"/>
        <pt x="181" y="16" on="1"/>
        <pt x="163" y="11" on="0"/>
        <pt x="108" y="5" on="0"/>
        <pt x="86" y="6" on="1"/>
        <pt x="74" y="191" on="0"/>
        <pt x="61" y="548" on="0"/>
        <pt x="61" y="698" on="1"/>
        <pt x="73" y="705" on="0"/>
        <pt x="110" y="714" on="0"/>
        <pt x="131" y="714" on="1"/>
        <pt x="145" y="714" on="0"/>
        <pt x="171" y="711" on="0"/>
        <pt x="185" y="707" on="1"/>
        <pt x="180" y="658" on="0"/>
        <pt x="175" y="500" on="0"/>
        <pt x="174" y="392" on="1"/>
        <pt x="239" y="403" on="0"/>
        <pt x="370" y="414" on="0"/>
        <pt x="442" y="415" on="1"/>
        <pt x="438" y="530" on="0"/>
        <pt x="431" y="685" on="0"/>
        <pt x="426" y="733" on="1"/>
        <pt x="443" y="738" on="0"/>
        <pt x="467" y="742" on="0"/>
        <pt x="480" y="742" on="1"/>
        <pt x="494" y="742" on="0"/>
        <pt x="523" y="734" on="0"/>
      </contour>
    </TTGlyph>
    <TTGlyph name="I" xMin="62" yMin="-29" xMax="183" yMax="682">
      <contour>
        <pt x="183" y="496" on="1"/>
        <pt x="183" y="330" on="0"/>
        <pt x="178" y="98" on="0"/>
        <pt x="173" y="-18" on="1"/>
        <pt x="158" y="-22" on="0"/>
        <pt x="107" y="-28" on="0"/>
        <pt x="83" y="-29" on="1"/>
        <pt x="86" y="167" on="0"/>
        <pt x="75" y="516" on="0"/>
        <pt x="62" y="664" on="1"/>
        <pt x="77" y="673" on="0"/>
        <pt x="113" y="682" on="0"/>
        <pt x="132" y="682" on="1"/>
        <pt x="142" y="682" on="0"/>
        <pt x="161" y="680" on="0"/>
        <pt x="179" y="677" on="1"/>
        <pt x="181" y="636" on="0"/>
        <pt x="183" y="550" on="0"/>
      </contour>
    </TTGlyph>
    <TTGlyph name="Iacute" xMin="62" yMin="-29" xMax="206" yMax="921">
      <component glyphName="I" x="0" y="0" flags="0x204"/>
      <component glyphName="acute" x="15" y="170" flags="0x4"/>
    </TTGlyph>
    <TTGlyph name="Icircumflex" xMin="-19" yMin="-29" xMax="247" yMax="897">
      <component glyphName="I" x="0" y="0" flags="0x204"/>
      <component glyphName="circumflex" x="-13" y="155" flags="0x4"/>
    </TTGlyph>
    <TTGlyph name="Idieresis" xMin="-16" yMin="-29" xMax="271" yMax="893">
      <component glyphName="I" x="0" y="0" flags="0x204"/>
      <component glyphName="dieresis" x="-6" y="145" flags="0x4"/>
    </TTGlyph>
    <TTGlyph name="Idotaccent" xMin="62" yMin="-29" xMax="195" yMax="896">
      <component glyphName="I" x="0" y="0" flags="0x204"/>
      <component glyphName="dotaccent" x="-12" y="148" flags="0x4"/>
    </TTGlyph>
    <TTGlyph name="Igrave" xMin="19" yMin="-29" xMax="183" yMax="919">
      <component glyphName="I" x="0" y="0" flags="0x204"/>
      <component glyphName="grave" x="-42" y="166" flags="0x4"/>
    </TTGlyph>
    <TTGlyph name="Imacron" xMin="15" yMin="-29" xMax="226" yMax="855">
      <component glyphName="I" x="0" y="0" flags="0x204"/>
      <component glyphName="macron" x="-9" y="150" flags="0x4"/>
    </TTGlyph>
    <TTGlyph name="Iogonek" xMin="23" yMin="-227" xMax="216" yMax="682">
      <contour>
        <pt x="216" y="-169" on="1"/>
        <pt x="195" y="-199" on="0"/>
        <pt x="144" y="-227" on="0"/>
        <pt x="110" y="-227" on="1"/>
        <pt x="70" y="-227" on="0"/>
        <pt x="23" y="-186" on="0"/>
        <pt x="23" y="-151" on="1"/>
        <pt x="23" y="-118" on="0"/>
        <pt x="60" y="-58" on="0"/>
        <pt x="100" y="-28" on="1"/>
        <pt x="97" y="-29" on="0"/>
        <pt x="90" y="-29" on="0"/>
        <pt x="83" y="-29" on="1"/>
        <pt x="86" y="167" on="0"/>
        <pt x="75" y="516" on="0"/>
        <pt x="62" y="664" on="1"/>
        <pt x="77" y="673" on="0"/>
        <pt x="113" y="682" on="0"/>
        <pt x="132" y="682" on="1"/>
        <pt x="142" y="682" on="0"/>
        <pt x="161" y="680" on="0"/>
        <pt x="179" y="677" on="1"/>
        <pt x="181" y="636" on="0"/>
        <pt x="183" y="550" on="0"/>
        <pt x="183" y="496" on="1"/>
        <pt x="183" y="330" on="0"/>
        <pt x="178" y="98" on="0"/>
        <pt x="173" y="-18" on="1"/>
        <pt x="171" y="-19" on="0"/>
        <pt x="165" y="-20" on="0"/>
        <pt x="161" y="-21" on="1"/>
        <pt x="129" y="-48" on="0"/>
        <pt x="97" y="-103" on="0"/>
        <pt x="97" y="-131" on="1"/>
        <pt x="97" y="-149" on="0"/>
        <pt x="114" y="-168" on="0"/>
        <pt x="130" y="-168" on="1"/>
        <pt x="147" y="-168" on="0"/>
        <pt x="175" y="-147" on="0"/>
        <pt x="188" y="-125" on="1"/>
        <pt x="197" y="-133" on="0"/>
        <pt x="211" y="-155" on="0"/>
      </contour>
    </TTGlyph>
    <TTGlyph name="J" xMin="28" yMin="-88" xMax="405" yMax="724">
      <contour>
        <pt x="375" y="81" on="1"/>
        <pt x="355" y="-1" on="0"/>
        <pt x="269" y="-88" on="0"/>
        <pt x="208" y="-88" on="1"/>
        <pt x="136" y="-88" on="0"/>
        <pt x="39" y="41" on="0"/>
        <pt x="28" y="151" on="1"/>
        <pt x="45" y="163" on="0"/>
        <pt x="88" y="180" on="0"/>
        <pt x="115" y="185" on="1"/>
        <pt x="129" y="76" on="0"/>
        <pt x="169" y="-12" on="0"/>
        <pt x="207" y="-12" on="1"/>
        <pt x="251" y="-12" on="0"/>
        <pt x="293" y="105" on="0"/>
        <pt x="293" y="227" on="1"/>
        <pt x="293" y="333" on="0"/>
        <pt x="277" y="574" on="0"/>
        <pt x="262" y="704" on="1"/>
        <pt x="274" y="712" on="0"/>
        <pt x="312" y="722" on="0"/>
        <pt x="332" y="723" on="1"/>
        <pt x="348" y="724" on="0"/>
        <pt x="375" y="723" on="0"/>
        <pt x="387" y="721" on="1"/>
        <pt x="397" y="612" on="0"/>
        <pt x="405" y="467" on="0"/>
        <pt x="405" y="406" on="1"/>
        <pt x="405" y="294" on="0"/>
        <pt x="391" y="143" on="0"/>
      </contour>
    </TTGlyph>
    <TTGlyph name="K" xMin="63" yMin="-93" xMax="581" yMax="704">
      <contour>
        <pt x="581" y="-21" on="1"/>
        <pt x="563" y="-45" on="0"/>
        <pt x="521" y="-80" on="0"/>
        <pt x="493" y="-93" on="1"/>
        <pt x="426" y="25" on="0"/>
        <pt x="310" y="178" on="0"/>
        <pt x="226" y="260" on="1"/>
        <pt x="213" y="250" on="0"/>
        <pt x="186" y="229" on="0"/>
        <pt x="172" y="218" on="1"/>
        <pt x="174" y="145" on="0"/>
        <pt x="184" y="14" on="0"/>
        <pt x="194" y="-61" on="1"/>
        <pt x="176" y="-65" on="0"/>
        <pt x="121" y="-71" on="0"/>
        <pt x="100" y="-71" on="1"/>
        <pt x="80" y="66" on="0"/>
        <pt x="63" y="300" on="0"/>
        <pt x="63" y="440" on="1"/>
        <pt x="63" y="488" on="0"/>
        <pt x="68" y="608" on="0"/>
        <pt x="73" y="689" on="1"/>
        <pt x="89" y="696" on="0"/>
        <pt x="127" y="704" on="0"/>
        <pt x="145" y="704" on="1"/>
        <pt x="158" y="704" on="0"/>
        <pt x="185" y="701" on="0"/>
        <pt x="199" y="697" on="1"/>
        <pt x="185" y="609" on="0"/>
        <pt x="171" y="426" on="0"/>
        <pt x="171" y="316" on="1"/>
        <pt x="171" y="313" on="0"/>
        <pt x="171" y="308" on="0"/>
        <pt x="171" y="305" on="1"/>
        <pt x="260" y="388" on="0"/>
        <pt x="372" y="547" on="0"/>
        <pt x="439" y="691" on="1"/>
        <pt x="461" y="683" on="0"/>
        <pt x="502" y="652" on="0"/>
        <pt x="524" y="627" on="1"/>
        <pt x="468" y="525" on="0"/>
        <pt x="363" y="383" on="0"/>
        <pt x="297" y="322" on="1"/>
        <pt x="381" y="247" on="0"/>
        <pt x="501" y="102" on="0"/>
      </contour>
    </TTGlyph>
    <TTGlyph name="L" xMin="65" yMin="-100" xMax="486" yMax="674">
      <contour>
        <pt x="475" y="14" on="1"/>
        <pt x="479" y="-2" on="0"/>
        <pt x="486" y="-55" on="0"/>
        <pt x="486" y="-72" on="1"/>
        <pt x="389" y="-73" on="0"/>
        <pt x="225" y="-85" on="0"/>
        <pt x="119" y="-100" on="1"/>
        <pt x="92" y="87" on="0"/>
        <pt x="65" y="494" on="0"/>
        <pt x="69" y="661" on="1"/>
        <pt x="93" y="668" on="0"/>
        <pt x="136" y="674" on="0"/>
        <pt x="159" y="674" on="1"/>
        <pt x="166" y="674" on="0"/>
        <pt x="182" y="673" on="0"/>
        <pt x="191" y="672" on="1"/>
        <pt x="185" y="617" on="0"/>
        <pt x="180" y="480" on="0"/>
        <pt x="180" y="381" on="1"/>
        <pt x="182" y="248" on="0"/>
        <pt x="195" y="71" on="0"/>
        <pt x="207" y="-11" on="1"/>
        <pt x="273" y="1" on="0"/>
        <pt x="413" y="14" on="0"/>
      </contour>
    </TTGlyph>
    <TTGlyph name="Lacute" xMin="65" yMin="-100" xMax="486" yMax="903">
      <component glyphName="L" x="0" y="0" flags="0x204"/>
      <component glyphName="acute" x="28" y="152" flags="0x4"/>
    </TTGlyph>
    <TTGlyph name="Lcaron" xMin="65" yMin="-100" xMax="486" yMax="683">
      <component glyphName="L" x="0" y="0" flags="0x204"/>
      <component glyphName="caron.alt" x="200" y="-65" flags="0x4"/>
    </TTGlyph>
    <TTGlyph name="Lslash" xMin="-53" yMin="-100" xMax="480" yMax="674">
      <contour>
        <pt x="480" y="-72" on="1"/>
        <pt x="383" y="-73" on="0"/>
        <pt x="219" y="-85" on="0"/>
        <pt x="113" y="-100" on="1"/>
        <pt x="104" y="-36" on="0"/>
        <pt x="90" y="93" on="0"/>
        <pt x="84" y="157" on="1"/>
        <pt x="46" y="134" on="0"/>
        <pt x="6" y="110" on="0"/>
        <pt x="-11" y="100" on="1"/>
        <pt x="-26" y="114" on="0"/>
        <pt x="-45" y="144" on="0"/>
        <pt x="-53" y="166" on="1"/>
        <pt x="-25" y="182" on="0"/>
        <pt x="37" y="220" on="0"/>
        <pt x="77" y="246" on="1"/>
        <pt x="69" y="354" on="0"/>
        <pt x="62" y="567" on="0"/>
        <pt x="63" y="661" on="1"/>
        <pt x="88" y="668" on="0"/>
        <pt x="131" y="674" on="0"/>
        <pt x="153" y="674" on="1"/>
        <pt x="160" y="674" on="0"/>
        <pt x="175" y="673" on="0"/>
        <pt x="186" y="672" on="1"/>
        <pt x="180" y="611" on="0"/>
        <pt x="174" y="467" on="0"/>
        <pt x="175" y="381" on="1"/>
        <pt x="175" y="353" on="0"/>
        <pt x="175" y="325" on="0"/>
        <pt x="176" y="313" on="1"/>
        <pt x="226" y="348" on="0"/>
        <pt x="307" y="409" on="0"/>
        <pt x="345" y="439" on="1"/>
        <pt x="358" y="428" on="0"/>
        <pt x="381" y="393" on="0"/>
        <pt x="390" y="370" on="1"/>
        <pt x="339" y="331" on="0"/>
        <pt x="235" y="256" on="0"/>
        <pt x="179" y="219" on="1"/>
        <pt x="182" y="159" on="0"/>
        <pt x="194" y="45" on="0"/>
        <pt x="202" y="-11" on="1"/>
        <pt x="268" y="1" on="0"/>
        <pt x="408" y="14" on="0"/>
        <pt x="470" y="14" on="1"/>
        <pt x="474" y="-4" on="0"/>
        <pt x="480" y="-56" on="0"/>
      </contour>
    </TTGlyph>
    <TTGlyph name="M" xMin="64" yMin="-55" xMax="698" yMax="758">
      <contour>
        <pt x="692" y="-36" on="1"/>
        <pt x="666" y="-46" on="0"/>
        <pt x="614" y="-55" on="0"/>
        <pt x="583" y="-55" on="1"/>
        <pt x="593" y="86" on="0"/>
        <pt x="602" y="400" on="0"/>
        <pt x="601" y="593" on="1"/>
        <pt x="545" y="500" on="0"/>
        <pt x="456" y="301" on="0"/>
        <pt x="418" y="186" on="1"/>
        <pt x="403" y="181" on="0"/>
        <pt x="366" y="179" on="0"/>
        <pt x="349" y="181" on="1"/>
        <pt x="309" y="297" on="0"/>
        <pt x="218" y="492" on="0"/>
        <pt x="163" y="580" on="1"/>
        <pt x="162" y="566" on="0"/>
        <pt x="162" y="532" on="0"/>
        <pt x="162" y="495" on="1"/>
        <pt x="162" y="383" on="0"/>
        <pt x="187" y="133" on="0"/>
        <pt x="211" y="8" on="1"/>
        <pt x="195" y="3" on="0"/>
        <pt x="140" y="-4" on="0"/>
        <pt x="112" y="-4" on="1"/>
        <pt x="88" y="149" on="0"/>
        <pt x="64" y="548" on="0"/>
        <pt x="69" y="716" on="1"/>
        <pt x="94" y="732" on="0"/>
        <pt x="148" y="754" on="0"/>
        <pt x="173" y="758" on="1"/>
        <pt x="242" y="662" on="0"/>
        <pt x="354" y="442" on="0"/>
        <pt x="391" y="330" on="1"/>
        <pt x="427" y="436" on="0"/>
        <pt x="529" y="646" on="0"/>
        <pt x="598" y="758" on="1"/>
        <pt x="623" y="754" on="0"/>
        <pt x="670" y="740" on="0"/>
        <pt x="690" y="730" on="1"/>
        <pt x="697" y="588" on="0"/>
        <pt x="698" y="182" on="0"/>
      </contour>
    </TTGlyph>
    <TTGlyph name="N" xMin="65" yMin="-41" xMax="578" yMax="758">
      <contour>
        <pt x="176" y="293" on="1"/>
        <pt x="177" y="226" on="0"/>
        <pt x="185" y="67" on="0"/>
        <pt x="191" y="-30" on="1"/>
        <pt x="174" y="-35" on="0"/>
        <pt x="125" y="-41" on="0"/>
        <pt x="103" y="-41" on="1"/>
        <pt x="83" y="190" on="0"/>
        <pt x="65" y="523" on="0"/>
        <pt x="65" y="672" on="1"/>
        <pt x="67" y="673" on="0"/>
        <pt x="70" y="674" on="0"/>
        <pt x="71" y="675" on="1"/>
        <pt x="97" y="688" on="0"/>
        <pt x="150" y="702" on="0"/>
        <pt x="184" y="706" on="1"/>
        <pt x="276" y="584" on="0"/>
        <pt x="415" y="339" on="0"/>
        <pt x="475" y="192" on="1"/>
        <pt x="476" y="219" on="0"/>
        <pt x="477" y="284" on="0"/>
        <pt x="477" y="352" on="1"/>
        <pt x="477" y="485" on="0"/>
        <pt x="468" y="680" on="0"/>
        <pt x="459" y="739" on="1"/>
        <pt x="492" y="749" on="0"/>
        <pt x="545" y="757" on="0"/>
        <pt x="572" y="758" on="1"/>
        <pt x="576" y="674" on="0"/>
        <pt x="578" y="588" on="0"/>
        <pt x="578" y="549" on="1"/>
        <pt x="578" y="399" on="0"/>
        <pt x="568" y="154" on="0"/>
        <pt x="557" y="26" on="1"/>
        <pt x="532" y="22" on="0"/>
        <pt x="487" y="16" on="0"/>
        <pt x="465" y="15" on="1"/>
        <pt x="391" y="188" on="0"/>
        <pt x="252" y="440" on="0"/>
        <pt x="175" y="541" on="1"/>
        <pt x="175" y="503" on="0"/>
        <pt x="175" y="411" on="0"/>
      </contour>
    </TTGlyph>
    <TTGlyph name="Nacute" xMin="65" yMin="-41" xMax="578" yMax="923">
      <component glyphName="N" x="0" y="0" flags="0x204"/>
      <component glyphName="acute" x="219" y="172" flags="0x4"/>
    </TTGlyph>
    <TTGlyph name="Ncaron" xMin="65" yMin="-41" xMax="578" yMax="910">
      <component glyphName="N" x="0" y="0" flags="0x204"/>
      <component glyphName="caron" x="185" y="170" flags="0x4"/>
    </TTGlyph>
    <TTGlyph name="Ntilde" xMin="65" yMin="-41" xMax="578" yMax="888">
      <component glyphName="N" x="0" y="0" flags="0x204"/>
      <component glyphName="tilde" x="179" y="153" flags="0x4"/>
    </TTGlyph>
    <TTGlyph name="O" xMin="39" yMin="-20" xMax="568" yMax="733">
      <contour>
        <pt x="336" y="733" on="1"/>
        <pt x="449" y="733" on="0"/>
        <pt x="568" y="563" on="0"/>
        <pt x="568" y="403" on="1"/>
        <pt x="568" y="330" on="0"/>
        <pt x="534" y="184" on="0"/>
        <pt x="503" y="127" on="1"/>
        <pt x="464" y="55" on="0"/>
        <pt x="348" y="-20" on="0"/>
        <pt x="275" y="-20" on="1"/>
        <pt x="168" y="-20" on="0"/>
        <pt x="39" y="177" on="0"/>
        <pt x="39" y="335" on="1"/>
        <pt x="39" y="509" on="0"/>
        <pt x="205" y="733" on="0"/>
      </contour>
      <contour>
        <pt x="291" y="56" on="1"/>
        <pt x="369" y="56" on="0"/>
        <pt x="456" y="233" on="0"/>
        <pt x="456" y="377" on="1"/>
        <pt x="456" y="522" on="0"/>
        <pt x="389" y="656" on="0"/>
        <pt x="316" y="656" on="1"/>
        <pt x="243" y="656" on="0"/>
        <pt x="151" y="487" on="0"/>
        <pt x="151" y="351" on="1"/>
        <pt x="151" y="222" on="0"/>
        <pt x="226" y="56" on="0"/>
      </contour>
    </TTGlyph>
    <TTGlyph name="OE" xMin="41" yMin="-34" xMax="867" yMax="733">
      <contour>
        <pt x="866" y="-5" on="1"/>
        <pt x="792" y="-17" on="0"/>
        <pt x="585" y="-32" on="0"/>
        <pt x="491" y="-34" on="1"/>
        <pt x="487" y="-4" on="0"/>
        <pt x="478" y="58" on="0"/>
        <pt x="473" y="89" on="1"/>
        <pt x="440" y="31" on="0"/>
        <pt x="343" y="-28" on="0"/>
        <pt x="282" y="-28" on="1"/>
        <pt x="173" y="-28" on="0"/>
        <pt x="41" y="169" on="0"/>
        <pt x="41" y="326" on="1"/>
        <pt x="41" y="505" on="0"/>
        <pt x="192" y="724" on="0"/>
        <pt x="319" y="724" on="1"/>
        <pt x="353" y="724" on="0"/>
        <pt x="411" y="706" on="0"/>
        <pt x="434" y="689" on="1"/>
        <pt x="569" y="713" on="0"/>
        <pt x="748" y="732" on="0"/>
        <pt x="842" y="733" on="1"/>
        <pt x="843" y="712" on="0"/>
        <pt x="839" y="668" on="0"/>
        <pt x="834" y="645" on="1"/>
        <pt x="752" y="644" on="0"/>
        <pt x="609" y="634" on="0"/>
        <pt x="544" y="625" on="1"/>
        <pt x="542" y="568" on="0"/>
        <pt x="543" y="452" on="0"/>
        <pt x="546" y="392" on="1"/>
        <pt x="626" y="408" on="0"/>
        <pt x="735" y="423" on="0"/>
        <pt x="789" y="427" on="1"/>
        <pt x="794" y="406" on="0"/>
        <pt x="798" y="365" on="0"/>
        <pt x="797" y="342" on="1"/>
        <pt x="721" y="337" on="0"/>
        <pt x="610" y="326" on="0"/>
        <pt x="551" y="316" on="1"/>
        <pt x="554" y="261" on="0"/>
        <pt x="568" y="128" on="0"/>
        <pt x="579" y="49" on="1"/>
        <pt x="649" y="51" on="0"/>
        <pt x="798" y="68" on="0"/>
        <pt x="858" y="81" on="1"/>
        <pt x="863" y="67" on="0"/>
        <pt x="867" y="17" on="0"/>
      </contour>
      <contour>
        <pt x="298" y="47" on="1"/>
        <pt x="364" y="47" on="0"/>
        <pt x="434" y="215" on="0"/>
        <pt x="433" y="368" on="1"/>
        <pt x="432" y="508" on="0"/>
        <pt x="366" y="647" on="0"/>
        <pt x="300" y="647" on="1"/>
        <pt x="230" y="647" on="0"/>
        <pt x="153" y="486" on="0"/>
        <pt x="153" y="342" on="1"/>
        <pt x="153" y="212" on="0"/>
        <pt x="230" y="47" on="0"/>
      </contour>
    </TTGlyph>
    <TTGlyph name="Oacute" xMin="39" yMin="-20" xMax="568" yMax="942">
      <component glyphName="O" x="0" y="0" flags="0x204"/>
      <component glyphName="acute" x="196" y="191" flags="0x4"/>
    </TTGlyph>
    <TTGlyph name="Ocircumflex" xMin="39" yMin="-20" xMax="568" yMax="923">
      <component glyphName="O" x="0" y="0" flags="0x204"/>
      <component glyphName="circumflex" x="190" y="181" flags="0x4"/>
    </TTGlyph>
    <TTGlyph name="Odieresis" xMin="39" yMin="-20" xMax="568" yMax="916">
      <component glyphName="O" x="0" y="0" flags="0x204"/>
      <component glyphName="dieresis" x="189" y="168" flags="0x4"/>
    </TTGlyph>
    <TTGlyph name="Ograve" xMin="39" yMin="-20" xMax="568" yMax="946">
      <component glyphName="O" x="0" y="0" flags="0x204"/>
      <component glyphName="grave" x="170" y="193" flags="0x4"/>
    </TTGlyph>
    <TTGlyph name="Ohungarumlaut" xMin="39" yMin="-20" xMax="568" yMax="940">
      <component glyphName="O" x="0" y="0" flags="0x204"/>
      <component glyphName="hungarumlaut" x="201" y="189" flags="0x4"/>
    </TTGlyph>
    <TTGlyph name="Omacron" xMin="39" yMin="-20" xMax="568" yMax="884">
      <component glyphName="O" x="0" y="0" flags="0x204"/>
      <component glyphName="macron" x="189" y="179" flags="0x4"/>
    </TTGlyph>
    <TTGlyph name="Oslash" xMin="36" yMin="-79" xMax="563" yMax="792">
      <contour>
        <pt x="311" y="656" on="1"/>
        <pt x="238" y="656" on="0"/>
        <pt x="147" y="486" on="0"/>
        <pt x="147" y="351" on="1"/>
        <pt x="147" y="302" on="0"/>
        <pt x="159" y="210" on="0"/>
        <pt x="171" y="174" on="1"/>
        <pt x="221" y="264" on="0"/>
        <pt x="328" y="476" on="0"/>
        <pt x="396" y="620" on="1"/>
        <pt x="380" y="638" on="0"/>
        <pt x="338" y="656" on="0"/>
      </contour>
      <contour>
        <pt x="213" y="92" on="1"/>
        <pt x="229" y="74" on="0"/>
        <pt x="265" y="56" on="0"/>
        <pt x="286" y="56" on="1"/>
        <pt x="363" y="56" on="0"/>
        <pt x="450" y="233" on="0"/>
        <pt x="450" y="377" on="1"/>
        <pt x="450" y="420" on="0"/>
        <pt x="444" y="493" on="0"/>
        <pt x="438" y="522" on="1"/>
        <pt x="388" y="420" on="0"/>
        <pt x="278" y="209" on="0"/>
      </contour>
      <contour>
        <pt x="498" y="127" on="1"/>
        <pt x="459" y="55" on="0"/>
        <pt x="343" y="-20" on="0"/>
        <pt x="270" y="-20" on="1"/>
        <pt x="241" y="-20" on="0"/>
        <pt x="190" y="-5" on="0"/>
        <pt x="168" y="9" on="1"/>
        <pt x="157" y="-10" on="0"/>
        <pt x="121" y="-74" on="0"/>
        <pt x="118" y="-79" on="1"/>
        <pt x="93" y="-71" on="0"/>
        <pt x="62" y="-53" on="0"/>
        <pt x="47" y="-39" on="1"/>
        <pt x="64" y="-11" on="0"/>
        <pt x="95" y="41" on="0"/>
        <pt x="109" y="65" on="1"/>
        <pt x="74" y="113" on="0"/>
        <pt x="36" y="252" on="0"/>
        <pt x="36" y="335" on="1"/>
        <pt x="36" y="509" on="0"/>
        <pt x="200" y="733" on="0"/>
        <pt x="330" y="733" on="1"/>
        <pt x="360" y="733" on="0"/>
        <pt x="414" y="720" on="0"/>
        <pt x="438" y="707" on="1"/>
        <pt x="454" y="742" on="0"/>
        <pt x="470" y="777" on="0"/>
        <pt x="477" y="792" on="1"/>
        <pt x="495" y="787" on="0"/>
        <pt x="530" y="765" on="0"/>
        <pt x="546" y="750" on="1"/>
        <pt x="535" y="725" on="0"/>
        <pt x="512" y="676" on="0"/>
        <pt x="501" y="651" on="1"/>
        <pt x="532" y="609" on="0"/>
        <pt x="563" y="483" on="0"/>
        <pt x="563" y="403" on="1"/>
        <pt x="563" y="330" on="0"/>
        <pt x="529" y="184" on="0"/>
      </contour>
    </TTGlyph>
    <TTGlyph name="Otilde" xMin="39" yMin="-20" xMax="568" yMax="890">
      <component glyphName="O" x="0" y="0" flags="0x204"/>
      <component glyphName="tilde" x="190" y="155" flags="0x4"/>
    </TTGlyph>
    <TTGlyph name="P" xMin="66" yMin="-69" xMax="531" yMax="742">
      <contour>
        <pt x="171" y="227" on="1"/>
        <pt x="172" y="160" on="0"/>
        <pt x="179" y="23" on="0"/>
        <pt x="186" y="-68" on="1"/>
        <pt x="165" y="-69" on="0"/>
        <pt x="110" y="-65" on="0"/>
        <pt x="94" y="-62" on="1"/>
        <pt x="78" y="111" on="0"/>
        <pt x="66" y="371" on="0"/>
        <pt x="66" y="538" on="1"/>
        <pt x="66" y="574" on="0"/>
        <pt x="70" y="671" on="0"/>
        <pt x="73" y="708" on="1"/>
        <pt x="122" y="725" on="0"/>
        <pt x="226" y="742" on="0"/>
        <pt x="276" y="742" on="1"/>
        <pt x="398" y="742" on="0"/>
        <pt x="531" y="639" on="0"/>
        <pt x="531" y="547" on="1"/>
        <pt x="531" y="441" on="0"/>
        <pt x="350" y="280" on="0"/>
      </contour>
      <contour>
        <pt x="187" y="662" on="1"/>
        <pt x="179" y="578" on="0"/>
        <pt x="171" y="411" on="0"/>
        <pt x="171" y="309" on="1"/>
        <pt x="171" y="308" on="0"/>
        <pt x="171" y="305" on="0"/>
        <pt x="171" y="303" on="1"/>
        <pt x="294" y="335" on="0"/>
        <pt x="420" y="450" on="0"/>
        <pt x="420" y="531" on="1"/>
        <pt x="420" y="599" on="0"/>
        <pt x="340" y="673" on="0"/>
        <pt x="265" y="673" on="1"/>
        <pt x="245" y="673" on="0"/>
        <pt x="205" y="667" on="0"/>
      </contour>
    </TTGlyph>
    <TTGlyph name="Q" xMin="39" yMin="-111" xMax="595" yMax="673">
      <contour>
        <pt x="595" y="-42" on="1"/>
        <pt x="587" y="-61" on="0"/>
        <pt x="554" y="-95" on="0"/>
        <pt x="530" y="-111" on="1"/>
        <pt x="502" y="-70" on="0"/>
        <pt x="455" y="-7" on="0"/>
        <pt x="432" y="20" on="1"/>
        <pt x="397" y="-10" on="0"/>
        <pt x="314" y="-40" on="0"/>
        <pt x="267" y="-40" on="1"/>
        <pt x="162" y="-40" on="0"/>
        <pt x="39" y="132" on="0"/>
        <pt x="39" y="276" on="1"/>
        <pt x="39" y="450" on="0"/>
        <pt x="205" y="673" on="0"/>
        <pt x="335" y="673" on="1"/>
        <pt x="446" y="673" on="0"/>
        <pt x="564" y="513" on="0"/>
        <pt x="564" y="365" on="1"/>
        <pt x="564" y="285" on="0"/>
        <pt x="523" y="136" on="0"/>
        <pt x="485" y="80" on="1"/>
        <pt x="511" y="56" on="0"/>
        <pt x="564" y="-4" on="0"/>
      </contour>
      <contour>
        <pt x="149" y="291" on="1"/>
        <pt x="149" y="175" on="0"/>
        <pt x="221" y="36" on="0"/>
        <pt x="283" y="36" on="1"/>
        <pt x="310" y="36" on="0"/>
        <pt x="358" y="58" on="0"/>
        <pt x="377" y="80" on="1"/>
        <pt x="357" y="100" on="0"/>
        <pt x="317" y="138" on="0"/>
        <pt x="295" y="155" on="1"/>
        <pt x="305" y="172" on="0"/>
        <pt x="324" y="193" on="0"/>
        <pt x="334" y="199" on="1"/>
        <pt x="353" y="187" on="0"/>
        <pt x="392" y="159" on="0"/>
        <pt x="416" y="141" on="1"/>
        <pt x="434" y="181" on="0"/>
        <pt x="452" y="282" on="0"/>
        <pt x="452" y="339" on="1"/>
        <pt x="452" y="470" on="0"/>
        <pt x="387" y="596" on="0"/>
        <pt x="320" y="596" on="1"/>
        <pt x="243" y="596" on="0"/>
        <pt x="149" y="428" on="0"/>
      </contour>
    </TTGlyph>
    <TTGlyph name="R" xMin="64" yMin="-34" xMax="566" yMax="770">
      <contour>
        <pt x="566" y="15" on="1"/>
        <pt x="552" y="1" on="0"/>
        <pt x="498" y="-26" on="0"/>
        <pt x="470" y="-34" on="1"/>
        <pt x="412" y="95" on="0"/>
        <pt x="333" y="242" on="0"/>
        <pt x="287" y="308" on="1"/>
        <pt x="268" y="301" on="0"/>
        <pt x="224" y="286" on="0"/>
        <pt x="191" y="276" on="1"/>
        <pt x="188" y="197" on="0"/>
        <pt x="180" y="58" on="0"/>
        <pt x="174" y="-5" on="1"/>
        <pt x="154" y="-7" on="0"/>
        <pt x="102" y="-4" on="0"/>
        <pt x="84" y="0" on="1"/>
        <pt x="89" y="116" on="0"/>
        <pt x="90" y="174" on="0"/>
        <pt x="90" y="202" on="1"/>
        <pt x="90" y="355" on="0"/>
        <pt x="79" y="565" on="0"/>
        <pt x="64" y="698" on="1"/>
        <pt x="108" y="732" on="0"/>
        <pt x="225" y="770" on="0"/>
        <pt x="284" y="770" on="1"/>
        <pt x="390" y="770" on="0"/>
        <pt x="512" y="664" on="0"/>
        <pt x="512" y="574" on="1"/>
        <pt x="512" y="504" on="0"/>
        <pt x="440" y="390" on="0"/>
        <pt x="369" y="347" on="1"/>
        <pt x="418" y="288" on="0"/>
        <pt x="516" y="123" on="0"/>
      </contour>
      <contour>
        <pt x="181" y="680" on="1"/>
        <pt x="187" y="603" on="0"/>
        <pt x="192" y="467" on="0"/>
        <pt x="192" y="394" on="1"/>
        <pt x="192" y="383" on="0"/>
        <pt x="192" y="360" on="0"/>
        <pt x="192" y="348" on="1"/>
        <pt x="299" y="375" on="0"/>
        <pt x="402" y="478" on="0"/>
        <pt x="402" y="559" on="1"/>
        <pt x="402" y="627" on="0"/>
        <pt x="334" y="700" on="0"/>
        <pt x="272" y="700" on="1"/>
        <pt x="250" y="700" on="0"/>
        <pt x="204" y="690" on="0"/>
      </contour>
    </TTGlyph>
    <TTGlyph name="Racute" xMin="64" yMin="-34" xMax="566" yMax="981">
      <component glyphName="R" x="0" y="0" flags="0x204"/>
      <component glyphName="acute" x="143" y="230" flags="0x4"/>
    </TTGlyph>
    <TTGlyph name="Rcaron" xMin="64" yMin="-34" xMax="566" yMax="973">
      <component glyphName="R" x="0" y="0" flags="0x204"/>
      <component glyphName="caron" x="136" y="233" flags="0x4"/>
    </TTGlyph>
    <TTGlyph name="S" xMin="22" yMin="-40" xMax="469" yMax="767">
      <contour>
        <pt x="416" y="300" on="1"/>
        <pt x="436" y="270" on="0"/>
        <pt x="456" y="201" on="0"/>
        <pt x="456" y="160" on="1"/>
        <pt x="456" y="72" on="0"/>
        <pt x="340" y="-40" on="0"/>
        <pt x="251" y="-40" on="1"/>
        <pt x="146" y="-40" on="0"/>
        <pt x="22" y="108" on="0"/>
        <pt x="22" y="221" on="1"/>
        <pt x="42" y="231" on="0"/>
        <pt x="93" y="245" on="0"/>
        <pt x="114" y="246" on="1"/>
        <pt x="113" y="146" on="0"/>
        <pt x="182" y="31" on="0"/>
        <pt x="244" y="31" on="1"/>
        <pt x="291" y="31" on="0"/>
        <pt x="346" y="91" on="0"/>
        <pt x="346" y="141" on="1"/>
        <pt x="346" y="188" on="0"/>
        <pt x="300" y="265" on="0"/>
        <pt x="222" y="323" on="1"/>
        <pt x="173" y="360" on="0"/>
        <pt x="129" y="403" on="0"/>
        <pt x="113" y="426" on="1"/>
        <pt x="92" y="456" on="0"/>
        <pt x="72" y="527" on="0"/>
        <pt x="72" y="568" on="1"/>
        <pt x="72" y="658" on="0"/>
        <pt x="181" y="767" on="0"/>
        <pt x="272" y="767" on="1"/>
        <pt x="355" y="767" on="0"/>
        <pt x="450" y="677" on="0"/>
        <pt x="469" y="575" on="1"/>
        <pt x="453" y="565" on="0"/>
        <pt x="411" y="554" on="0"/>
        <pt x="376" y="551" on="1"/>
        <pt x="367" y="626" on="0"/>
        <pt x="317" y="693" on="0"/>
        <pt x="269" y="693" on="1"/>
        <pt x="228" y="693" on="0"/>
        <pt x="184" y="639" on="0"/>
        <pt x="184" y="588" on="1"/>
        <pt x="184" y="538" on="0"/>
        <pt x="231" y="459" on="0"/>
        <pt x="309" y="401" on="1"/>
        <pt x="357" y="365" on="0"/>
        <pt x="401" y="322" on="0"/>
      </contour>
    </TTGlyph>
    <TTGlyph name="Sacute" xMin="22" yMin="-40" xMax="469" yMax="978">
      <component glyphName="S" x="0" y="0" flags="0x204"/>
      <component glyphName="acute" x="167" y="227" flags="0x4"/>
    </TTGlyph>
    <TTGlyph name="Scaron" xMin="22" yMin="-40" xMax="469" yMax="960">
      <component glyphName="S" x="0" y="0" flags="0x204"/>
      <component glyphName="caron" x="152" y="220" flags="0x4"/>
    </TTGlyph>
    <TTGlyph name="T" xMin="19" yMin="24" xMax="562" yMax="792">
      <contour>
        <pt x="370" y="36" on="1"/>
        <pt x="350" y="30" on="0"/>
        <pt x="299" y="24" on="0"/>
        <pt x="271" y="24" on="1"/>
        <pt x="275" y="177" on="0"/>
        <pt x="256" y="537" on="0"/>
        <pt x="237" y="682" on="1"/>
        <pt x="190" y="677" on="0"/>
        <pt x="89" y="665" on="0"/>
        <pt x="31" y="657" on="1"/>
        <pt x="25" y="676" on="0"/>
        <pt x="19" y="719" on="0"/>
        <pt x="19" y="741" on="1"/>
        <pt x="172" y="768" on="0"/>
        <pt x="408" y="791" on="0"/>
        <pt x="554" y="792" on="1"/>
        <pt x="557" y="782" on="0"/>
        <pt x="561" y="759" on="0"/>
        <pt x="562" y="744" on="1"/>
        <pt x="562" y="736" on="0"/>
        <pt x="561" y="718" on="0"/>
        <pt x="558" y="699" on="1"/>
        <pt x="497" y="698" on="0"/>
        <pt x="400" y="695" on="0"/>
        <pt x="356" y="692" on="1"/>
        <pt x="367" y="583" on="0"/>
        <pt x="378" y="375" on="0"/>
        <pt x="378" y="259" on="1"/>
        <pt x="378" y="207" on="0"/>
        <pt x="374" y="95" on="0"/>
      </contour>
    </TTGlyph>
    <TTGlyph name="Tcaron" xMin="19" yMin="24" xMax="562" yMax="981">
      <component glyphName="T" x="0" y="0" flags="0x204"/>
      <component glyphName="caron" x="153" y="241" flags="0x4"/>
    </TTGlyph>
    <TTGlyph name="Thorn" xMin="61" yMin="-69" xMax="529" yMax="715">
      <contour>
        <pt x="172" y="85" on="1"/>
        <pt x="173" y="51" on="0"/>
        <pt x="178" y="-24" on="0"/>
        <pt x="181" y="-68" on="1"/>
        <pt x="154" y="-69" on="0"/>
        <pt x="105" y="-66" on="0"/>
        <pt x="88" y="-62" on="1"/>
        <pt x="73" y="104" on="0"/>
        <pt x="61" y="363" on="0"/>
        <pt x="61" y="538" on="1"/>
        <pt x="61" y="575" on="0"/>
        <pt x="65" y="675" on="0"/>
        <pt x="68" y="711" on="1"/>
        <pt x="97" y="715" on="0"/>
        <pt x="158" y="709" on="0"/>
        <pt x="185" y="700" on="1"/>
        <pt x="182" y="672" on="0"/>
        <pt x="178" y="618" on="0"/>
        <pt x="176" y="592" on="1"/>
        <pt x="202" y="596" on="0"/>
        <pt x="251" y="600" on="0"/>
        <pt x="274" y="600" on="1"/>
        <pt x="396" y="600" on="0"/>
        <pt x="529" y="497" on="0"/>
        <pt x="529" y="405" on="1"/>
        <pt x="529" y="299" on="0"/>
        <pt x="350" y="138" on="0"/>
      </contour>
      <contour>
        <pt x="171" y="517" on="1"/>
        <pt x="168" y="471" on="0"/>
        <pt x="166" y="370" on="0"/>
        <pt x="166" y="309" on="1"/>
        <pt x="166" y="282" on="0"/>
        <pt x="167" y="222" on="0"/>
        <pt x="168" y="161" on="1"/>
        <pt x="292" y="193" on="0"/>
        <pt x="418" y="307" on="0"/>
        <pt x="418" y="389" on="1"/>
        <pt x="418" y="457" on="0"/>
        <pt x="338" y="531" on="0"/>
        <pt x="263" y="531" on="1"/>
        <pt x="240" y="531" on="0"/>
        <pt x="193" y="524" on="0"/>
      </contour>
    </TTGlyph>
    <TTGlyph name="U" xMin="49" yMin="-80" xMax="509" yMax="707">
      <contour>
        <pt x="464" y="707" on="1"/>
        <pt x="487" y="615" on="0"/>
        <pt x="509" y="454" on="0"/>
        <pt x="509" y="380" on="1"/>
        <pt x="509" y="150" on="0"/>
        <pt x="378" y="-80" on="0"/>
        <pt x="247" y="-80" on="1"/>
        <pt x="147" y="-80" on="0"/>
        <pt x="49" y="94" on="0"/>
        <pt x="49" y="270" on="1"/>
        <pt x="49" y="364" on="0"/>
        <pt x="80" y="569" on="0"/>
        <pt x="101" y="627" on="1"/>
        <pt x="111" y="630" on="0"/>
        <pt x="146" y="634" on="0"/>
        <pt x="160" y="634" on="1"/>
        <pt x="174" y="634" on="0"/>
        <pt x="197" y="630" on="0"/>
        <pt x="205" y="627" on="1"/>
        <pt x="185" y="535" on="0"/>
        <pt x="164" y="369" on="0"/>
        <pt x="164" y="297" on="1"/>
        <pt x="164" y="143" on="0"/>
        <pt x="213" y="-2" on="0"/>
        <pt x="265" y="-2" on="1"/>
        <pt x="327" y="-2" on="0"/>
        <pt x="396" y="172" on="0"/>
        <pt x="396" y="327" on="1"/>
        <pt x="396" y="419" on="0"/>
        <pt x="374" y="595" on="0"/>
        <pt x="350" y="687" on="1"/>
        <pt x="373" y="696" on="0"/>
        <pt x="435" y="706" on="0"/>
      </contour>
    </TTGlyph>
    <TTGlyph name="Uacute" xMin="49" yMin="-80" xMax="509" yMax="873">
      <component glyphName="U" x="0" y="0" flags="0x204"/>
      <component glyphName="acute" x="153" y="122" flags="0x4"/>
    </TTGlyph>
    <TTGlyph name="Ucircumflex" xMin="49" yMin="-80" xMax="509" yMax="892">
      <component glyphName="U" x="0" y="0" flags="0x204"/>
      <component glyphName="circumflex" x="137" y="150" flags="0x4"/>
    </TTGlyph>
    <TTGlyph name="Udieresis" xMin="49" yMin="-80" xMax="509" yMax="873">
      <component glyphName="U" x="0" y="0" flags="0x204"/>
      <component glyphName="dieresis" x="147" y="125" flags="0x4"/>
    </TTGlyph>
    <TTGlyph name="Ugrave" xMin="49" yMin="-80" xMax="509" yMax="876">
      <component glyphName="U" x="0" y="0" flags="0x204"/>
      <component glyphName="grave" x="100" y="123" flags="0x4"/>
    </TTGlyph>
    <TTGlyph name="Uhungarumlaut" xMin="49" yMin="-80" xMax="509" yMax="891">
      <component glyphName="U" x="0" y="0" flags="0x204"/>
      <component glyphName="hungarumlaut" x="136" y="140" flags="0x4"/>
    </TTGlyph>
    <TTGlyph name="Umacron" xMin="49" yMin="-80" xMax="509" yMax="790">
      <component glyphName="U" x="0" y="0" flags="0x204"/>
      <component glyphName="macron" x="118" y="85" flags="0x4"/>
    </TTGlyph>
    <TTGlyph name="Uogonek" xMin="49" yMin="-275" xMax="509" yMax="707">
      <contour>
        <pt x="380" y="-219" on="1"/>
        <pt x="361" y="-247" on="0"/>
        <pt x="308" y="-275" on="0"/>
        <pt x="275" y="-275" on="1"/>
        <pt x="234" y="-275" on="0"/>
        <pt x="187" y="-232" on="0"/>
        <pt x="187" y="-194" on="1"/>
        <pt x="187" y="-163" on="0"/>
        <pt x="219" y="-107" on="0"/>
        <pt x="251" y="-80" on="1"/>
        <pt x="250" y="-80" on="0"/>
        <pt x="248" y="-80" on="0"/>
        <pt x="247" y="-80" on="1"/>
        <pt x="147" y="-80" on="0"/>
        <pt x="49" y="94" on="0"/>
        <pt x="49" y="270" on="1"/>
        <pt x="49" y="364" on="0"/>
        <pt x="80" y="569" on="0"/>
        <pt x="101" y="627" on="1"/>
        <pt x="111" y="630" on="0"/>
        <pt x="146" y="634" on="0"/>
        <pt x="160" y="634" on="1"/>
        <pt x="174" y="634" on="0"/>
        <pt x="197" y="630" on="0"/>
        <pt x="205" y="627" on="1"/>
        <pt x="185" y="535" on="0"/>
        <pt x="164" y="369" on="0"/>
        <pt x="164" y="297" on="1"/>
        <pt x="164" y="143" on="0"/>
        <pt x="213" y="-2" on="0"/>
        <pt x="265" y="-2" on="1"/>
        <pt x="327" y="-2" on="0"/>
        <pt x="396" y="172" on="0"/>
        <pt x="396" y="327" on="1"/>
        <pt x="396" y="419" on="0"/>
        <pt x="374" y="595" on="0"/>
        <pt x="350" y="687" on="1"/>
        <pt x="373" y="696" on="0"/>
        <pt x="435" y="706" on="0"/>
        <pt x="464" y="707" on="1"/>
        <pt x="487" y="615" on="0"/>
        <pt x="509" y="454" on="0"/>
        <pt x="509" y="380" on="1"/>
        <pt x="509" y="196" on="0"/>
        <pt x="430" y="-17" on="0"/>
        <pt x="345" y="-61" on="1"/>
        <pt x="306" y="-82" on="0"/>
        <pt x="261" y="-143" on="0"/>
        <pt x="261" y="-174" on="1"/>
        <pt x="261" y="-194" on="0"/>
        <pt x="278" y="-218" on="0"/>
        <pt x="293" y="-218" on="1"/>
        <pt x="311" y="-218" on="0"/>
        <pt x="339" y="-198" on="0"/>
        <pt x="351" y="-176" on="1"/>
        <pt x="360" y="-183" on="0"/>
        <pt x="374" y="-204" on="0"/>
      </contour>
    </TTGlyph>
    <TTGlyph name="Uring" xMin="49" yMin="-80" xMax="509" yMax="880">
      <component glyphName="U" x="0" y="0" flags="0x204"/>
      <component glyphName="ring" x="129" y="114" flags="0x4"/>
    </TTGlyph>
    <TTGlyph name="V" xMin="16" yMin="-96" xMax="546" yMax="763">
      <contour>
        <pt x="546" y="743" on="1"/>
        <pt x="519" y="514" on="0"/>
        <pt x="410" y="137" on="0"/>
        <pt x="305" y="-85" on="1"/>
        <pt x="288" y="-91" on="0"/>
        <pt x="243" y="-96" on="0"/>
        <pt x="216" y="-96" on="1"/>
        <pt x="146" y="70" on="0"/>
        <pt x="46" y="421" on="0"/>
        <pt x="16" y="608" on="1"/>
        <pt x="43" y="620" on="0"/>
        <pt x="98" y="634" on="0"/>
        <pt x="129" y="635" on="1"/>
        <pt x="149" y="469" on="0"/>
        <pt x="222" y="160" on="0"/>
        <pt x="273" y="26" on="1"/>
        <pt x="344" y="201" on="0"/>
        <pt x="425" y="545" on="0"/>
        <pt x="446" y="763" on="1"/>
        <pt x="470" y="762" on="0"/>
        <pt x="519" y="753" on="0"/>
      </contour>
    </TTGlyph>
    <TTGlyph name="W" xMin="11" yMin="-68" xMax="782" yMax="710">
      <contour>
        <pt x="389" y="343" on="1"/>
        <pt x="366" y="235" on="0"/>
        <pt x="306" y="43" on="0"/>
        <pt x="265" y="-54" on="1"/>
        <pt x="243" y="-60" on="0"/>
        <pt x="201" y="-67" on="0"/>
        <pt x="182" y="-68" on="1"/>
        <pt x="108" y="154" on="0"/>
        <pt x="33" y="471" on="0"/>
        <pt x="11" y="651" on="1"/>
        <pt x="38" y="660" on="0"/>
        <pt x="95" y="671" on="0"/>
        <pt x="127" y="672" on="1"/>
        <pt x="137" y="533" on="0"/>
        <pt x="190" y="254" on="0"/>
        <pt x="238" y="81" on="1"/>
        <pt x="284" y="217" on="0"/>
        <pt x="333" y="426" on="0"/>
        <pt x="348" y="542" on="1"/>
        <pt x="375" y="548" on="0"/>
        <pt x="435" y="556" on="0"/>
        <pt x="459" y="556" on="1"/>
        <pt x="468" y="429" on="0"/>
        <pt x="503" y="216" on="0"/>
        <pt x="533" y="99" on="1"/>
        <pt x="594" y="256" on="0"/>
        <pt x="664" y="547" on="0"/>
        <pt x="681" y="710" on="1"/>
        <pt x="709" y="709" on="0"/>
        <pt x="760" y="692" on="0"/>
        <pt x="782" y="677" on="1"/>
        <pt x="751" y="482" on="0"/>
        <pt x="644" y="147" on="0"/>
        <pt x="558" y="-27" on="1"/>
        <pt x="538" y="-31" on="0"/>
        <pt x="500" y="-36" on="0"/>
        <pt x="477" y="-37" on="1"/>
        <pt x="433" y="119" on="0"/>
        <pt x="398" y="275" on="0"/>
      </contour>
    </TTGlyph>
    <TTGlyph name="X" xMin="11" yMin="-35" xMax="604" yMax="773">
      <contour>
        <pt x="587" y="19" on="1"/>
        <pt x="574" y="5" on="0"/>
        <pt x="533" y="-23" on="0"/>
        <pt x="509" y="-35" on="1"/>
        <pt x="461" y="75" on="0"/>
        <pt x="377" y="246" on="0"/>
        <pt x="337" y="317" on="1"/>
        <pt x="269" y="232" on="0"/>
        <pt x="140" y="86" on="0"/>
        <pt x="68" y="14" on="1"/>
        <pt x="52" y="24" on="0"/>
        <pt x="20" y="55" on="0"/>
        <pt x="11" y="69" on="1"/>
        <pt x="112" y="180" on="0"/>
        <pt x="235" y="327" on="0"/>
        <pt x="289" y="398" on="1"/>
        <pt x="238" y="483" on="0"/>
        <pt x="123" y="634" on="0"/>
        <pt x="54" y="708" on="1"/>
        <pt x="77" y="728" on="0"/>
        <pt x="130" y="762" on="0"/>
        <pt x="157" y="773" on="1"/>
        <pt x="222" y="691" on="0"/>
        <pt x="321" y="550" on="0"/>
        <pt x="362" y="483" on="1"/>
        <pt x="412" y="554" on="0"/>
        <pt x="492" y="683" on="0"/>
        <pt x="527" y="748" on="1"/>
        <pt x="548" y="738" on="0"/>
        <pt x="590" y="702" on="0"/>
        <pt x="604" y="681" on="1"/>
        <pt x="564" y="617" on="0"/>
        <pt x="470" y="483" on="0"/>
        <pt x="408" y="402" on="1"/>
        <pt x="451" y="325" on="0"/>
        <pt x="536" y="143" on="0"/>
      </contour>
    </TTGlyph>
    <TTGlyph name="Y" xMin="9" yMin="-88" xMax="497" yMax="730">
      <contour>
        <pt x="497" y="679" on="1"/>
        <pt x="426" y="397" on="0"/>
        <pt x="281" y="55" on="0"/>
        <pt x="179" y="-88" on="1"/>
        <pt x="156" y="-81" on="0"/>
        <pt x="109" y="-60" on="0"/>
        <pt x="94" y="-49" on="1"/>
        <pt x="135" y="11" on="0"/>
        <pt x="203" y="129" on="0"/>
        <pt x="231" y="189" on="1"/>
        <pt x="154" y="292" on="0"/>
        <pt x="49" y="531" on="0"/>
        <pt x="9" y="697" on="1"/>
        <pt x="36" y="712" on="0"/>
        <pt x="90" y="728" on="0"/>
        <pt x="121" y="730" on="1"/>
        <pt x="142" y="607" on="0"/>
        <pt x="216" y="398" on="0"/>
        <pt x="275" y="292" on="1"/>
        <pt x="310" y="383" on="0"/>
        <pt x="364" y="590" on="0"/>
        <pt x="386" y="718" on="1"/>
        <pt x="417" y="713" on="0"/>
        <pt x="472" y="694" on="0"/>
      </contour>
    </TTGlyph>
    <TTGlyph name="Yacute" xMin="9" yMin="-88" xMax="497" yMax="909">
      <component glyphName="Y" x="0" y="0" flags="0x204"/>
      <component glyphName="acute" x="147" y="158" flags="0x4"/>
    </TTGlyph>
    <TTGlyph name="Ydieresis" xMin="9" yMin="-88" xMax="497" yMax="905">
      <component glyphName="Y" x="0" y="0" flags="0x204"/>
      <component glyphName="dieresis" x="139" y="157" flags="0x4"/>
    </TTGlyph>
    <TTGlyph name="Z" xMin="19" yMin="-34" xMax="563" yMax="739">
      <contour>
        <pt x="529" y="72" on="1"/>
        <pt x="528" y="43" on="0"/>
        <pt x="518" y="-10" on="0"/>
        <pt x="508" y="-34" on="1"/>
        <pt x="394" y="-33" on="0"/>
        <pt x="133" y="-12" on="0"/>
        <pt x="20" y="5" on="1"/>
        <pt x="19" y="30" on="0"/>
        <pt x="23" y="75" on="0"/>
        <pt x="28" y="91" on="1"/>
        <pt x="168" y="237" on="0"/>
        <pt x="367" y="486" on="0"/>
        <pt x="434" y="599" on="1"/>
        <pt x="342" y="606" on="0"/>
        <pt x="170" y="627" on="0"/>
        <pt x="80" y="642" on="1"/>
        <pt x="81" y="671" on="0"/>
        <pt x="93" y="718" on="0"/>
        <pt x="106" y="739" on="1"/>
        <pt x="210" y="718" on="0"/>
        <pt x="427" y="682" on="0"/>
        <pt x="563" y="662" on="1"/>
        <pt x="559" y="628" on="0"/>
        <pt x="552" y="593" on="0"/>
        <pt x="549" y="585" on="1"/>
        <pt x="477" y="475" on="0"/>
        <pt x="272" y="227" on="0"/>
        <pt x="126" y="72" on="1"/>
        <pt x="235" y="65" on="0"/>
        <pt x="435" y="65" on="0"/>
      </contour>
    </TTGlyph>
    <TTGlyph name="Zacute" xMin="19" yMin="-34" xMax="563" yMax="925">
      <component glyphName="Z" x="0" y="0" flags="0x204"/>
      <component glyphName="acute" x="240" y="174" flags="0x4"/>
    </TTGlyph>
    <TTGlyph name="Zcaron" xMin="19" yMin="-34" xMax="563" yMax="910">
      <component glyphName="Z" x="0" y="0" flags="0x204"/>
      <component glyphName="caron" x="214" y="170" flags="0x4"/>
    </TTGlyph>
    <TTGlyph name="Zdotaccent" xMin="19" yMin="-34" xMax="563" yMax="889">
      <component glyphName="Z" x="0" y="0" flags="0x204"/>
      <component glyphName="dotaccent" x="219" y="141" flags="0x4"/>
    </TTGlyph>
    <TTGlyph name="a" xMin="26" yMin="-35" xMax="423" yMax="543">
      <contour>
        <pt x="423" y="345" on="1"/>
        <pt x="423" y="278" on="0"/>
        <pt x="387" y="57" on="0"/>
        <pt x="362" y="-35" on="1"/>
        <pt x="342" y="-35" on="0"/>
        <pt x="298" y="-28" on="0"/>
        <pt x="277" y="-22" on="1"/>
        <pt x="280" y="-5" on="0"/>
        <pt x="286" y="23" on="0"/>
        <pt x="289" y="34" on="1"/>
        <pt x="267" y="20" on="0"/>
        <pt x="215" y="6" on="0"/>
        <pt x="186" y="6" on="1"/>
        <pt x="114" y="6" on="0"/>
        <pt x="26" y="81" on="0"/>
        <pt x="26" y="144" on="1"/>
        <pt x="26" y="211" on="0"/>
        <pt x="138" y="279" on="0"/>
        <pt x="247" y="279" on="1"/>
        <pt x="265" y="279" on="0"/>
        <pt x="296" y="278" on="0"/>
        <pt x="319" y="277" on="1"/>
        <pt x="319" y="288" on="0"/>
        <pt x="319" y="309" on="0"/>
        <pt x="319" y="319" on="1"/>
        <pt x="319" y="403" on="0"/>
        <pt x="283" y="477" on="0"/>
        <pt x="243" y="477" on="1"/>
        <pt x="202" y="477" on="0"/>
        <pt x="147" y="401" on="0"/>
        <pt x="145" y="341" on="1"/>
        <pt x="109" y="344" on="0"/>
        <pt x="63" y="370" on="0"/>
        <pt x="52" y="392" on="1"/>
        <pt x="65" y="455" on="0"/>
        <pt x="180" y="543" on="0"/>
        <pt x="254" y="543" on="1"/>
        <pt x="338" y="543" on="0"/>
        <pt x="423" y="443" on="0"/>
      </contour>
      <contour>
        <pt x="133" y="139" on="1"/>
        <pt x="133" y="106" on="0"/>
        <pt x="175" y="66" on="0"/>
        <pt x="211" y="66" on="1"/>
        <pt x="236" y="66" on="0"/>
        <pt x="281" y="81" on="0"/>
        <pt x="300" y="95" on="1"/>
        <pt x="307" y="132" on="0"/>
        <pt x="315" y="194" on="0"/>
        <pt x="316" y="226" on="1"/>
        <pt x="224" y="229" on="0"/>
        <pt x="133" y="186" on="0"/>
      </contour>
    </TTGlyph>
    <TTGlyph name="aacute" xMin="26" yMin="-35" xMax="423" yMax="757">
      <component glyphName="a" x="0" y="0" flags="0x204"/>
      <component glyphName="acute" x="159" y="6" flags="0x4"/>
    </TTGlyph>
    <TTGlyph name="abreve" xMin="26" yMin="-35" xMax="423" yMax="709">
      <component glyphName="a" x="0" y="0" flags="0x204"/>
      <component glyphName="breve" x="136" y="-31" flags="0x4"/>
    </TTGlyph>
    <TTGlyph name="acircumflex" xMin="26" yMin="-35" xMax="423" yMax="737">
      <component glyphName="a" x="0" y="0" flags="0x204"/>
      <component glyphName="circumflex" x="138" y="-5" flags="0x4"/>
    </TTGlyph>
    <TTGlyph name="acute" xMin="59" yMin="571" xMax="191" yMax="751">
      <contour>
        <pt x="191" y="741" on="1"/>
        <pt x="186" y="698" on="0"/>
        <pt x="153" y="615" on="0"/>
        <pt x="125" y="571" on="1"/>
        <pt x="108" y="571" on="0"/>
        <pt x="76" y="575" on="0"/>
        <pt x="59" y="580" on="1"/>
        <pt x="74" y="623" on="0"/>
        <pt x="93" y="706" on="0"/>
        <pt x="97" y="748" on="1"/>
        <pt x="121" y="751" on="0"/>
        <pt x="173" y="747" on="0"/>
      </contour>
    </TTGlyph>
    <TTGlyph name="adieresis" xMin="26" yMin="-35" xMax="424" yMax="721">
      <component glyphName="a" x="0" y="0" flags="0x204"/>
      <component glyphName="dieresis" x="147" y="-27" flags="0x4"/>
    </TTGlyph>
    <TTGlyph name="ae" xMin="26" yMin="-26" xMax="709" yMax="531">
      <contour>
        <pt x="431" y="308" on="1"/>
        <pt x="456" y="300" on="0"/>
        <pt x="513" y="291" on="0"/>
        <pt x="542" y="291" on="1"/>
        <pt x="552" y="291" on="0"/>
        <pt x="577" y="293" on="0"/>
        <pt x="583" y="295" on="1"/>
        <pt x="590" y="320" on="0"/>
        <pt x="597" y="369" on="0"/>
        <pt x="597" y="389" on="1"/>
        <pt x="597" y="427" on="0"/>
        <pt x="572" y="461" on="0"/>
        <pt x="545" y="461" on="1"/>
        <pt x="509" y="461" on="0"/>
        <pt x="448" y="378" on="0"/>
      </contour>
      <contour>
        <pt x="629" y="163" on="1"/>
        <pt x="650" y="159" on="0"/>
        <pt x="694" y="136" on="0"/>
        <pt x="709" y="120" on="1"/>
        <pt x="691" y="64" on="0"/>
        <pt x="568" y="-26" on="0"/>
        <pt x="497" y="-26" on="1"/>
        <pt x="448" y="-26" on="0"/>
        <pt x="372" y="21" on="0"/>
        <pt x="348" y="66" on="1"/>
        <pt x="312" y="29" on="0"/>
        <pt x="229" y="-6" on="0"/>
        <pt x="179" y="-6" on="1"/>
        <pt x="109" y="-6" on="0"/>
        <pt x="26" y="67" on="0"/>
        <pt x="26" y="128" on="1"/>
        <pt x="26" y="195" on="0"/>
        <pt x="139" y="266" on="0"/>
        <pt x="247" y="266" on="1"/>
        <pt x="265" y="266" on="0"/>
        <pt x="297" y="265" on="0"/>
        <pt x="318" y="264" on="1"/>
        <pt x="319" y="284" on="0"/>
        <pt x="319" y="314" on="0"/>
        <pt x="318" y="327" on="1"/>
        <pt x="318" y="399" on="0"/>
        <pt x="282" y="465" on="0"/>
        <pt x="243" y="465" on="1"/>
        <pt x="203" y="465" on="0"/>
        <pt x="147" y="388" on="0"/>
        <pt x="145" y="329" on="1"/>
        <pt x="109" y="332" on="0"/>
        <pt x="63" y="358" on="0"/>
        <pt x="52" y="380" on="1"/>
        <pt x="65" y="443" on="0"/>
        <pt x="181" y="531" on="0"/>
        <pt x="254" y="531" on="1"/>
        <pt x="303" y="531" on="0"/>
        <pt x="373" y="481" on="0"/>
        <pt x="393" y="432" on="1"/>
        <pt x="428" y="477" on="0"/>
        <pt x="512" y="526" on="0"/>
        <pt x="557" y="526" on="1"/>
        <pt x="619" y="526" on="0"/>
        <pt x="695" y="447" on="0"/>
        <pt x="695" y="383" on="1"/>
        <pt x="695" y="349" on="0"/>
        <pt x="682" y="278" on="0"/>
        <pt x="670" y="249" on="1"/>
        <pt x="647" y="239" on="0"/>
        <pt x="580" y="230" on="0"/>
        <pt x="536" y="230" on="1"/>
        <pt x="508" y="230" on="0"/>
        <pt x="449" y="239" on="0"/>
        <pt x="420" y="248" on="1"/>
        <pt x="419" y="231" on="0"/>
        <pt x="418" y="213" on="0"/>
        <pt x="418" y="206" on="1"/>
        <pt x="418" y="131" on="0"/>
        <pt x="467" y="42" on="0"/>
        <pt x="509" y="42" on="1"/>
        <pt x="544" y="42" on="0"/>
        <pt x="616" y="115" on="0"/>
      </contour>
      <contour>
        <pt x="133" y="123" on="1"/>
        <pt x="133" y="90" on="0"/>
        <pt x="171" y="54" on="0"/>
        <pt x="205" y="54" on="1"/>
        <pt x="237" y="54" on="0"/>
        <pt x="303" y="81" on="0"/>
        <pt x="331" y="105" on="1"/>
        <pt x="323" y="128" on="0"/>
        <pt x="315" y="178" on="0"/>
        <pt x="315" y="207" on="1"/>
        <pt x="315" y="209" on="0"/>
        <pt x="315" y="212" on="0"/>
        <pt x="315" y="213" on="1"/>
        <pt x="225" y="217" on="0"/>
        <pt x="133" y="172" on="0"/>
      </contour>
    </TTGlyph>
    <TTGlyph name="agrave" xMin="26" yMin="-35" xMax="423" yMax="758">
      <component glyphName="a" x="0" y="0" flags="0x204"/>
      <component glyphName="grave" x="117" y="5" flags="0x4"/>
    </TTGlyph>
    <TTGlyph name="amacron" xMin="26" yMin="-35" xMax="423" yMax="669">
      <component glyphName="a" x="0" y="0" flags="0x204"/>
      <component glyphName="macron" x="133" y="-36" flags="0x4"/>
    </TTGlyph>
    <TTGlyph name="ampersand" xMin="40" yMin="-61" xMax="741" yMax="721">
      <contour>
        <pt x="387" y="660" on="1"/>
        <pt x="356" y="660" on="0"/>
        <pt x="319" y="590" on="0"/>
        <pt x="319" y="528" on="1"/>
        <pt x="319" y="506" on="0"/>
        <pt x="323" y="461" on="0"/>
        <pt x="327" y="438" on="1"/>
        <pt x="383" y="455" on="0"/>
        <pt x="443" y="526" on="0"/>
        <pt x="443" y="577" on="1"/>
        <pt x="443" y="617" on="0"/>
        <pt x="414" y="660" on="0"/>
      </contour>
      <contour>
        <pt x="145" y="206" on="1"/>
        <pt x="145" y="120" on="0"/>
        <pt x="257" y="14" on="0"/>
        <pt x="348" y="14" on="1"/>
        <pt x="381" y="14" on="0"/>
        <pt x="444" y="36" on="0"/>
        <pt x="472" y="56" on="1"/>
        <pt x="386" y="118" on="0"/>
        <pt x="269" y="271" on="0"/>
        <pt x="242" y="359" on="1"/>
        <pt x="196" y="338" on="0"/>
        <pt x="145" y="258" on="0"/>
      </contour>
      <contour>
        <pt x="741" y="22" on="1"/>
        <pt x="732" y="-2" on="0"/>
        <pt x="699" y="-41" on="0"/>
        <pt x="678" y="-53" on="1"/>
        <pt x="642" y="-39" on="0"/>
        <pt x="575" y="-7" on="0"/>
        <pt x="545" y="10" on="1"/>
        <pt x="502" y="-25" on="0"/>
        <pt x="393" y="-61" on="0"/>
        <pt x="331" y="-61" on="1"/>
        <pt x="200" y="-61" on="0"/>
        <pt x="40" y="74" on="0"/>
        <pt x="40" y="183" on="1"/>
        <pt x="40" y="265" on="0"/>
        <pt x="140" y="383" on="0"/>
        <pt x="230" y="407" on="1"/>
        <pt x="225" y="432" on="0"/>
        <pt x="220" y="483" on="0"/>
        <pt x="220" y="511" on="1"/>
        <pt x="220" y="608" on="0"/>
        <pt x="316" y="721" on="0"/>
        <pt x="399" y="721" on="1"/>
        <pt x="462" y="721" on="0"/>
        <pt x="539" y="646" on="0"/>
        <pt x="539" y="586" on="1"/>
        <pt x="539" y="514" on="0"/>
        <pt x="436" y="415" on="0"/>
        <pt x="338" y="393" on="1"/>
        <pt x="361" y="317" on="0"/>
        <pt x="460" y="185" on="0"/>
        <pt x="537" y="130" on="1"/>
        <pt x="556" y="163" on="0"/>
        <pt x="575" y="239" on="0"/>
        <pt x="575" y="279" on="1"/>
        <pt x="575" y="306" on="0"/>
        <pt x="569" y="355" on="0"/>
        <pt x="563" y="383" on="1"/>
        <pt x="588" y="390" on="0"/>
        <pt x="643" y="386" on="0"/>
        <pt x="669" y="376" on="1"/>
        <pt x="671" y="354" on="0"/>
        <pt x="671" y="308" on="0"/>
        <pt x="669" y="278" on="1"/>
        <pt x="665" y="220" on="0"/>
        <pt x="636" y="123" on="0"/>
        <pt x="611" y="84" on="1"/>
        <pt x="639" y="68" on="0"/>
        <pt x="703" y="37" on="0"/>
      </contour>
    </TTGlyph>
    <TTGlyph name="aogonek" xMin="26" yMin="-232" xMax="423" yMax="543">
      <contour>
        <pt x="133" y="139" on="1"/>
        <pt x="133" y="106" on="0"/>
        <pt x="175" y="66" on="0"/>
        <pt x="211" y="66" on="1"/>
        <pt x="236" y="66" on="0"/>
        <pt x="281" y="81" on="0"/>
        <pt x="300" y="95" on="1"/>
        <pt x="307" y="132" on="0"/>
        <pt x="315" y="194" on="0"/>
        <pt x="316" y="226" on="1"/>
        <pt x="224" y="229" on="0"/>
        <pt x="133" y="186" on="0"/>
      </contour>
      <contour>
        <pt x="345" y="-131" on="1"/>
        <pt x="353" y="-137" on="0"/>
        <pt x="367" y="-158" on="0"/>
        <pt x="373" y="-174" on="1"/>
        <pt x="353" y="-203" on="0"/>
        <pt x="301" y="-232" on="0"/>
        <pt x="267" y="-232" on="1"/>
        <pt x="228" y="-232" on="0"/>
        <pt x="180" y="-191" on="0"/>
        <pt x="180" y="-157" on="1"/>
        <pt x="180" y="-120" on="0"/>
        <pt x="227" y="-53" on="0"/>
        <pt x="278" y="-19" on="1"/>
        <pt x="279" y="-15" on="0"/>
        <pt x="280" y="-7" on="0"/>
        <pt x="282" y="1" on="1"/>
        <pt x="285" y="15" on="0"/>
        <pt x="288" y="29" on="0"/>
        <pt x="289" y="34" on="1"/>
        <pt x="267" y="20" on="0"/>
        <pt x="215" y="6" on="0"/>
        <pt x="186" y="6" on="1"/>
        <pt x="114" y="6" on="0"/>
        <pt x="26" y="81" on="0"/>
        <pt x="26" y="144" on="1"/>
        <pt x="26" y="211" on="0"/>
        <pt x="138" y="279" on="0"/>
        <pt x="247" y="279" on="1"/>
        <pt x="265" y="279" on="0"/>
        <pt x="296" y="278" on="0"/>
        <pt x="319" y="277" on="1"/>
        <pt x="319" y="288" on="0"/>
        <pt x="319" y="309" on="0"/>
        <pt x="319" y="319" on="1"/>
        <pt x="319" y="403" on="0"/>
        <pt x="283" y="477" on="0"/>
        <pt x="243" y="477" on="1"/>
        <pt x="202" y="477" on="0"/>
        <pt x="147" y="401" on="0"/>
        <pt x="145" y="341" on="1"/>
        <pt x="109" y="344" on="0"/>
        <pt x="63" y="370" on="0"/>
        <pt x="52" y="392" on="1"/>
        <pt x="65" y="455" on="0"/>
        <pt x="180" y="543" on="0"/>
        <pt x="254" y="543" on="1"/>
        <pt x="338" y="543" on="0"/>
        <pt x="423" y="444" on="0"/>
        <pt x="423" y="345" on="1"/>
        <pt x="423" y="278" on="0"/>
        <pt x="387" y="57" on="0"/>
        <pt x="362" y="-35" on="1"/>
        <pt x="354" y="-35" on="0"/>
        <pt x="335" y="-33" on="0"/>
        <pt x="315" y="-31" on="1"/>
        <pt x="284" y="-58" on="0"/>
        <pt x="254" y="-110" on="0"/>
        <pt x="254" y="-137" on="1"/>
        <pt x="254" y="-154" on="0"/>
        <pt x="272" y="-173" on="0"/>
        <pt x="287" y="-173" on="1"/>
        <pt x="305" y="-173" on="0"/>
        <pt x="333" y="-153" on="0"/>
      </contour>
    </TTGlyph>
    <TTGlyph name="approxequal" xMin="25" yMin="187" xMax="363" yMax="459">
      <component glyphName="asciitilde" x="1" y="-80" flags="0x4"/>
      <component glyphName="asciitilde" x="0" y="70" flags="0x4"/>
    </TTGlyph>
    <TTGlyph name="aring" xMin="26" yMin="-35" xMax="423" yMax="767">
      <component glyphName="a" x="0" y="0" flags="0x204"/>
      <component glyphName="ring" x="136" y="1" flags="0x4"/>
    </TTGlyph>
    <TTGlyph name="asa_ba" xMin="-7" yMin="-23" xMax="487" yMax="631">
      <contour>
        <pt x="396" y="295" on="1"/>
        <pt x="396" y="194" on="0"/>
        <pt x="410" y="43" on="0"/>
        <pt x="423" y="-4" on="1"/>
        <pt x="407" y="-13" on="0"/>
        <pt x="358" y="-23" on="0"/>
        <pt x="330" y="-23" on="1"/>
        <pt x="281" y="69" on="0"/>
        <pt x="151" y="177" on="0"/>
        <pt x="70" y="194" on="1"/>
        <pt x="50" y="219" on="0"/>
        <pt x="32" y="267" on="0"/>
        <pt x="30" y="295" on="1"/>
        <pt x="81" y="354" on="0"/>
        <pt x="248" y="469" on="0"/>
        <pt x="339" y="507" on="1"/>
        <pt x="339" y="510" on="0"/>
        <pt x="341" y="517" on="0"/>
        <pt x="342" y="524" on="1"/>
        <pt x="344" y="532" on="0"/>
        <pt x="345" y="541" on="0"/>
        <pt x="346" y="545" on="1"/>
        <pt x="319" y="548" on="0"/>
        <pt x="272" y="550" on="0"/>
        <pt x="252" y="550" on="1"/>
        <pt x="194" y="550" on="0"/>
        <pt x="60" y="536" on="0"/>
        <pt x="0" y="524" on="1"/>
        <pt x="-3" y="532" on="0"/>
        <pt x="-7" y="554" on="0"/>
        <pt x="-7" y="566" on="1"/>
        <pt x="-7" y="575" on="0"/>
        <pt x="-3" y="594" on="0"/>
        <pt x="0" y="601" on="1"/>
        <pt x="53" y="614" on="0"/>
        <pt x="194" y="631" on="0"/>
        <pt x="256" y="631" on="1"/>
        <pt x="310" y="631" on="0"/>
        <pt x="435" y="614" on="0"/>
        <pt x="480" y="601" on="1"/>
        <pt x="483" y="595" on="0"/>
        <pt x="487" y="577" on="0"/>
        <pt x="487" y="566" on="1"/>
        <pt x="487" y="554" on="0"/>
        <pt x="483" y="532" on="0"/>
        <pt x="480" y="524" on="1"/>
        <pt x="452" y="530" on="0"/>
        <pt x="425" y="535" on="0"/>
        <pt x="413" y="536" on="1"/>
        <pt x="404" y="480" on="0"/>
        <pt x="396" y="370" on="0"/>
      </contour>
      <contour>
        <pt x="316" y="84" on="1"/>
        <pt x="315" y="109" on="0"/>
        <pt x="314" y="147" on="0"/>
        <pt x="314" y="166" on="1"/>
        <pt x="314" y="234" on="0"/>
        <pt x="319" y="346" on="0"/>
        <pt x="325" y="397" on="1"/>
        <pt x="272" y="371" on="0"/>
        <pt x="164" y="296" on="0"/>
        <pt x="125" y="257" on="1"/>
        <pt x="187" y="227" on="0"/>
        <pt x="283" y="140" on="0"/>
      </contour>
      <contour>
        <pt x="202" y="-18" on="1"/>
        <pt x="174" y="20" on="0"/>
        <pt x="74" y="80" on="0"/>
        <pt x="25" y="88" on="1"/>
        <pt x="28" y="106" on="0"/>
        <pt x="43" y="139" on="0"/>
        <pt x="53" y="152" on="1"/>
        <pt x="108" y="134" on="0"/>
        <pt x="213" y="55" on="0"/>
        <pt x="235" y="13" on="1"/>
        <pt x="231" y="3" on="0"/>
        <pt x="213" y="-13" on="0"/>
      </contour>
    </TTGlyph>
    <TTGlyph name="asa_ba.half" xMin="-7" yMin="80" xMax="487" yMax="631">
      <contour>
        <pt x="396" y="371" on="1"/>
        <pt x="396" y="298" on="0"/>
        <pt x="410" y="189" on="0"/>
        <pt x="423" y="154" on="1"/>
        <pt x="406" y="147" on="0"/>
        <pt x="357" y="140" on="0"/>
        <pt x="330" y="140" on="1"/>
        <pt x="281" y="208" on="0"/>
        <pt x="152" y="287" on="0"/>
        <pt x="70" y="300" on="1"/>
        <pt x="51" y="317" on="0"/>
        <pt x="31" y="355" on="0"/>
        <pt x="28" y="379" on="1"/>
        <pt x="78" y="421" on="0"/>
        <pt x="248" y="505" on="0"/>
        <pt x="341" y="534" on="1"/>
        <pt x="342" y="536" on="0"/>
        <pt x="343" y="540" on="0"/>
        <pt x="344" y="545" on="1"/>
        <pt x="318" y="548" on="0"/>
        <pt x="272" y="550" on="0"/>
        <pt x="252" y="550" on="1"/>
        <pt x="194" y="550" on="0"/>
        <pt x="60" y="536" on="0"/>
        <pt x="0" y="524" on="1"/>
        <pt x="-3" y="532" on="0"/>
        <pt x="-7" y="554" on="0"/>
        <pt x="-7" y="566" on="1"/>
        <pt x="-7" y="575" on="0"/>
        <pt x="-3" y="594" on="0"/>
        <pt x="0" y="601" on="1"/>
        <pt x="53" y="614" on="0"/>
        <pt x="194" y="631" on="0"/>
        <pt x="256" y="631" on="1"/>
        <pt x="310" y="631" on="0"/>
        <pt x="435" y="614" on="0"/>
        <pt x="480" y="601" on="1"/>
        <pt x="483" y="595" on="0"/>
        <pt x="487" y="577" on="0"/>
        <pt x="487" y="566" on="1"/>
        <pt x="487" y="554" on="0"/>
        <pt x="483" y="532" on="0"/>
        <pt x="480" y="524" on="1"/>
        <pt x="444" y="531" on="0"/>
        <pt x="421" y="535" on="0"/>
        <pt x="411" y="537" on="1"/>
        <pt x="403" y="496" on="0"/>
        <pt x="396" y="421" on="0"/>
      </contour>
      <contour>
        <pt x="316" y="220" on="1"/>
        <pt x="315" y="239" on="0"/>
        <pt x="314" y="266" on="0"/>
        <pt x="314" y="279" on="1"/>
        <pt x="314" y="329" on="0"/>
        <pt x="319" y="410" on="0"/>
        <pt x="325" y="447" on="1"/>
        <pt x="279" y="431" on="0"/>
        <pt x="177" y="381" on="0"/>
        <pt x="135" y="353" on="1"/>
        <pt x="190" y="332" on="0"/>
        <pt x="282" y="265" on="0"/>
      </contour>
      <contour>
        <pt x="269" y="105" on="1"/>
        <pt x="253" y="80" on="1"/>
        <pt x="218" y="132" on="0"/>
        <pt x="116" y="196" on="0"/>
        <pt x="50" y="207" on="1"/>
        <pt x="83" y="251" on="1"/>
        <pt x="150" y="230" on="0"/>
        <pt x="246" y="155" on="0"/>
      </contour>
    </TTGlyph>
    <TTGlyph name="asa_ba_ukaar" xMin="-7" yMin="-89" xMax="667" yMax="637">
      <contour>
        <pt x="316" y="84" on="1"/>
        <pt x="315" y="109" on="0"/>
        <pt x="314" y="147" on="0"/>
        <pt x="314" y="166" on="1"/>
        <pt x="314" y="234" on="0"/>
        <pt x="319" y="346" on="0"/>
        <pt x="325" y="397" on="1"/>
        <pt x="272" y="370" on="0"/>
        <pt x="164" y="295" on="0"/>
        <pt x="125" y="257" on="1"/>
        <pt x="187" y="227" on="0"/>
        <pt x="283" y="140" on="0"/>
      </contour>
      <contour>
        <pt x="397" y="228" on="1"/>
        <pt x="399" y="153" on="0"/>
        <pt x="412" y="35" on="0"/>
        <pt x="423" y="-4" on="1"/>
        <pt x="407" y="-13" on="0"/>
        <pt x="358" y="-23" on="0"/>
        <pt x="330" y="-23" on="1"/>
        <pt x="281" y="69" on="0"/>
        <pt x="151" y="177" on="0"/>
        <pt x="70" y="194" on="1"/>
        <pt x="50" y="219" on="0"/>
        <pt x="32" y="267" on="0"/>
        <pt x="30" y="295" on="1"/>
        <pt x="81" y="354" on="0"/>
        <pt x="248" y="469" on="0"/>
        <pt x="339" y="507" on="1"/>
        <pt x="343" y="527" on="0"/>
        <pt x="346" y="547" on="0"/>
        <pt x="348" y="556" on="1"/>
        <pt x="340" y="556" on="0"/>
        <pt x="323" y="556" on="0"/>
        <pt x="314" y="556" on="1"/>
        <pt x="237" y="556" on="0"/>
        <pt x="68" y="538" on="0"/>
        <pt x="0" y="524" on="1"/>
        <pt x="-3" y="532" on="0"/>
        <pt x="-7" y="555" on="0"/>
        <pt x="-7" y="565" on="1"/>
        <pt x="-7" y="574" on="0"/>
        <pt x="-3" y="595" on="0"/>
        <pt x="0" y="601" on="1"/>
        <pt x="65" y="617" on="0"/>
        <pt x="237" y="637" on="0"/>
        <pt x="316" y="637" on="1"/>
        <pt x="405" y="637" on="0"/>
        <pt x="597" y="617" on="0"/>
        <pt x="660" y="601" on="1"/>
        <pt x="663" y="595" on="0"/>
        <pt x="667" y="575" on="0"/>
        <pt x="667" y="565" on="1"/>
        <pt x="667" y="555" on="0"/>
        <pt x="663" y="532" on="0"/>
        <pt x="660" y="524" on="1"/>
        <pt x="617" y="534" on="0"/>
        <pt x="487" y="549" on="0"/>
        <pt x="415" y="553" on="1"/>
        <pt x="405" y="490" on="0"/>
        <pt x="397" y="385" on="0"/>
        <pt x="396" y="325" on="1"/>
        <pt x="410" y="279" on="0"/>
        <pt x="469" y="225" on="0"/>
        <pt x="503" y="225" on="1"/>
        <pt x="535" y="225" on="0"/>
        <pt x="578" y="277" on="0"/>
        <pt x="578" y="317" on="1"/>
        <pt x="578" y="347" on="0"/>
        <pt x="554" y="382" on="0"/>
        <pt x="535" y="382" on="1"/>
        <pt x="518" y="382" on="0"/>
        <pt x="487" y="347" on="0"/>
        <pt x="478" y="318" on="1"/>
        <pt x="467" y="336" on="0"/>
        <pt x="450" y="388" on="0"/>
        <pt x="449" y="412" on="1"/>
        <pt x="461" y="436" on="0"/>
        <pt x="501" y="462" on="0"/>
        <pt x="527" y="462" on="1"/>
        <pt x="576" y="462" on="0"/>
        <pt x="639" y="375" on="0"/>
        <pt x="639" y="304" on="1"/>
        <pt x="639" y="229" on="0"/>
        <pt x="572" y="135" on="0"/>
        <pt x="518" y="135" on="1"/>
        <pt x="480" y="135" on="0"/>
        <pt x="419" y="182" on="0"/>
      </contour>
      <contour>
        <pt x="255" y="-89" on="1"/>
        <pt x="220" y="-25" on="0"/>
        <pt x="86" y="77" on="0"/>
        <pt x="25" y="88" on="1"/>
        <pt x="28" y="106" on="0"/>
        <pt x="43" y="139" on="0"/>
        <pt x="53" y="152" on="1"/>
        <pt x="120" y="130" on="0"/>
        <pt x="257" y="10" on="0"/>
        <pt x="287" y="-57" on="1"/>
        <pt x="283" y="-67" on="0"/>
        <pt x="266" y="-83" on="0"/>
      </contour>
    </TTGlyph>
    <TTGlyph name="asa_ba_uukaar" xMin="-7" yMin="-89" xMax="667" yMax="637">
      <contour>
        <pt x="316" y="84" on="1"/>
        <pt x="315" y="109" on="0"/>
        <pt x="314" y="147" on="0"/>
        <pt x="314" y="166" on="1"/>
        <pt x="314" y="234" on="0"/>
        <pt x="319" y="346" on="0"/>
        <pt x="325" y="397" on="1"/>
        <pt x="272" y="370" on="0"/>
        <pt x="164" y="295" on="0"/>
        <pt x="125" y="257" on="1"/>
        <pt x="187" y="227" on="0"/>
        <pt x="283" y="140" on="0"/>
      </contour>
      <contour>
        <pt x="396" y="295" on="1"/>
        <pt x="396" y="194" on="0"/>
        <pt x="410" y="43" on="0"/>
        <pt x="423" y="-4" on="1"/>
        <pt x="407" y="-13" on="0"/>
        <pt x="358" y="-23" on="0"/>
        <pt x="330" y="-23" on="1"/>
        <pt x="281" y="69" on="0"/>
        <pt x="151" y="177" on="0"/>
        <pt x="70" y="194" on="1"/>
        <pt x="50" y="219" on="0"/>
        <pt x="32" y="267" on="0"/>
        <pt x="30" y="295" on="1"/>
        <pt x="81" y="354" on="0"/>
        <pt x="248" y="469" on="0"/>
        <pt x="339" y="507" on="1"/>
        <pt x="343" y="527" on="0"/>
        <pt x="346" y="547" on="0"/>
        <pt x="348" y="556" on="1"/>
        <pt x="340" y="556" on="0"/>
        <pt x="323" y="556" on="0"/>
        <pt x="314" y="556" on="1"/>
        <pt x="237" y="556" on="0"/>
        <pt x="68" y="538" on="0"/>
        <pt x="0" y="524" on="1"/>
        <pt x="-3" y="532" on="0"/>
        <pt x="-7" y="555" on="0"/>
        <pt x="-7" y="565" on="1"/>
        <pt x="-7" y="574" on="0"/>
        <pt x="-3" y="595" on="0"/>
        <pt x="0" y="601" on="1"/>
        <pt x="65" y="617" on="0"/>
        <pt x="237" y="637" on="0"/>
        <pt x="316" y="637" on="1"/>
        <pt x="405" y="637" on="0"/>
        <pt x="597" y="617" on="0"/>
        <pt x="660" y="601" on="1"/>
        <pt x="663" y="595" on="0"/>
        <pt x="667" y="575" on="0"/>
        <pt x="667" y="565" on="1"/>
        <pt x="667" y="555" on="0"/>
        <pt x="663" y="532" on="0"/>
        <pt x="660" y="524" on="1"/>
        <pt x="617" y="534" on="0"/>
        <pt x="487" y="549" on="0"/>
        <pt x="415" y="553" on="1"/>
        <pt x="409" y="514" on="0"/>
        <pt x="402" y="445" on="0"/>
        <pt x="400" y="412" on="1"/>
        <pt x="448" y="435" on="0"/>
        <pt x="511" y="461" on="0"/>
        <pt x="538" y="469" on="1"/>
        <pt x="582" y="405" on="1"/>
        <pt x="575" y="366" on="0"/>
        <pt x="569" y="317" on="0"/>
        <pt x="569" y="296" on="1"/>
        <pt x="569" y="243" on="0"/>
        <pt x="587" y="150" on="0"/>
        <pt x="605" y="107" on="1"/>
        <pt x="591" y="101" on="0"/>
        <pt x="548" y="94" on="0"/>
        <pt x="523" y="94" on="1"/>
        <pt x="511" y="135" on="0"/>
        <pt x="500" y="225" on="0"/>
        <pt x="500" y="276" on="1"/>
        <pt x="500" y="298" on="0"/>
        <pt x="504" y="345" on="0"/>
        <pt x="508" y="372" on="1"/>
        <pt x="489" y="365" on="0"/>
        <pt x="443" y="345" on="0"/>
        <pt x="396" y="324" on="1"/>
        <pt x="396" y="317" on="0"/>
        <pt x="396" y="302" on="0"/>
      </contour>
      <contour>
        <pt x="255" y="-89" on="1"/>
        <pt x="220" y="-25" on="0"/>
        <pt x="86" y="77" on="0"/>
        <pt x="25" y="88" on="1"/>
        <pt x="28" y="106" on="0"/>
        <pt x="43" y="139" on="0"/>
        <pt x="53" y="152" on="1"/>
        <pt x="120" y="130" on="0"/>
        <pt x="257" y="10" on="0"/>
        <pt x="287" y="-57" on="1"/>
        <pt x="283" y="-67" on="0"/>
        <pt x="266" y="-83" on="0"/>
      </contour>
    </TTGlyph>
    <TTGlyph name="asa_ra" xMin="-7" yMin="-23" xMax="486" yMax="631">
      <contour>
        <pt x="396" y="295" on="1"/>
        <pt x="396" y="198" on="0"/>
        <pt x="410" y="45" on="0"/>
        <pt x="424" y="-2" on="1"/>
        <pt x="406" y="-12" on="0"/>
        <pt x="356" y="-23" on="0"/>
        <pt x="330" y="-23" on="1"/>
        <pt x="281" y="69" on="0"/>
        <pt x="151" y="177" on="0"/>
        <pt x="70" y="194" on="1"/>
        <pt x="50" y="220" on="0"/>
        <pt x="32" y="269" on="0"/>
        <pt x="30" y="299" on="1"/>
        <pt x="80" y="356" on="0"/>
        <pt x="248" y="469" on="0"/>
        <pt x="339" y="507" on="1"/>
        <pt x="340" y="513" on="0"/>
        <pt x="343" y="529" on="0"/>
        <pt x="345" y="545" on="1"/>
        <pt x="319" y="547" on="0"/>
        <pt x="273" y="550" on="0"/>
        <pt x="252" y="550" on="1"/>
        <pt x="194" y="550" on="0"/>
        <pt x="60" y="536" on="0"/>
        <pt x="0" y="524" on="1"/>
        <pt x="-3" y="532" on="0"/>
        <pt x="-7" y="554" on="0"/>
        <pt x="-7" y="566" on="1"/>
        <pt x="-7" y="577" on="0"/>
        <pt x="-3" y="595" on="0"/>
        <pt x="0" y="601" on="1"/>
        <pt x="54" y="614" on="0"/>
        <pt x="193" y="631" on="0"/>
        <pt x="256" y="631" on="1"/>
        <pt x="309" y="631" on="0"/>
        <pt x="434" y="614" on="0"/>
        <pt x="480" y="601" on="1"/>
        <pt x="483" y="595" on="0"/>
        <pt x="486" y="576" on="0"/>
        <pt x="486" y="566" on="1"/>
        <pt x="486" y="555" on="0"/>
        <pt x="483" y="534" on="0"/>
        <pt x="480" y="524" on="1"/>
        <pt x="444" y="531" on="0"/>
        <pt x="422" y="535" on="0"/>
        <pt x="412" y="536" on="1"/>
        <pt x="403" y="479" on="0"/>
        <pt x="396" y="368" on="0"/>
      </contour>
      <contour>
        <pt x="211" y="337" on="1"/>
        <pt x="243" y="316" on="0"/>
        <pt x="296" y="262" on="0"/>
        <pt x="316" y="231" on="1"/>
        <pt x="317" y="280" on="0"/>
        <pt x="322" y="365" on="0"/>
        <pt x="326" y="405" on="1"/>
        <pt x="300" y="393" on="0"/>
        <pt x="242" y="358" on="0"/>
      </contour>
      <contour>
        <pt x="115" y="258" on="1"/>
        <pt x="179" y="228" on="0"/>
        <pt x="282" y="135" on="0"/>
        <pt x="318" y="75" on="1"/>
        <pt x="317" y="94" on="0"/>
        <pt x="315" y="138" on="0"/>
        <pt x="315" y="164" on="1"/>
        <pt x="286" y="215" on="0"/>
        <pt x="208" y="282" on="0"/>
        <pt x="161" y="299" on="1"/>
        <pt x="148" y="288" on="0"/>
        <pt x="125" y="268" on="0"/>
      </contour>
    </TTGlyph>
    <TTGlyph name="asa_ra.half" xMin="-7" yMin="140" xMax="487" yMax="631">
      <contour>
        <pt x="396" y="371" on="1"/>
        <pt x="396" y="298" on="0"/>
        <pt x="410" y="189" on="0"/>
        <pt x="423" y="154" on="1"/>
        <pt x="406" y="147" on="0"/>
        <pt x="357" y="140" on="0"/>
        <pt x="330" y="140" on="1"/>
        <pt x="281" y="208" on="0"/>
        <pt x="152" y="287" on="0"/>
        <pt x="70" y="300" on="1"/>
        <pt x="51" y="317" on="0"/>
        <pt x="31" y="355" on="0"/>
        <pt x="28" y="379" on="1"/>
        <pt x="78" y="421" on="0"/>
        <pt x="248" y="505" on="0"/>
        <pt x="341" y="534" on="1"/>
        <pt x="342" y="536" on="0"/>
        <pt x="343" y="540" on="0"/>
        <pt x="344" y="545" on="1"/>
        <pt x="318" y="548" on="0"/>
        <pt x="272" y="550" on="0"/>
        <pt x="252" y="550" on="1"/>
        <pt x="194" y="550" on="0"/>
        <pt x="60" y="536" on="0"/>
        <pt x="0" y="524" on="1"/>
        <pt x="-3" y="532" on="0"/>
        <pt x="-7" y="554" on="0"/>
        <pt x="-7" y="566" on="1"/>
        <pt x="-7" y="575" on="0"/>
        <pt x="-3" y="594" on="0"/>
        <pt x="0" y="601" on="1"/>
        <pt x="53" y="614" on="0"/>
        <pt x="194" y="631" on="0"/>
        <pt x="256" y="631" on="1"/>
        <pt x="310" y="631" on="0"/>
        <pt x="435" y="614" on="0"/>
        <pt x="480" y="601" on="1"/>
        <pt x="483" y="595" on="0"/>
        <pt x="487" y="577" on="0"/>
        <pt x="487" y="566" on="1"/>
        <pt x="487" y="554" on="0"/>
        <pt x="483" y="532" on="0"/>
        <pt x="480" y="524" on="1"/>
        <pt x="444" y="531" on="0"/>
        <pt x="421" y="535" on="0"/>
        <pt x="411" y="537" on="1"/>
        <pt x="403" y="496" on="0"/>
        <pt x="396" y="421" on="0"/>
      </contour>
      <contour>
        <pt x="227" y="405" on="1"/>
        <pt x="252" y="392" on="0"/>
        <pt x="297" y="357" on="0"/>
        <pt x="315" y="335" on="1"/>
        <pt x="316" y="366" on="0"/>
        <pt x="321" y="421" on="0"/>
        <pt x="325" y="447" on="1"/>
        <pt x="301" y="438" on="0"/>
        <pt x="252" y="417" on="0"/>
      </contour>
      <contour>
        <pt x="316" y="220" on="1"/>
        <pt x="315" y="239" on="0"/>
        <pt x="314" y="266" on="0"/>
        <pt x="314" y="279" on="1"/>
        <pt x="314" y="280" on="0"/>
        <pt x="314" y="281" on="0"/>
        <pt x="314" y="282" on="1"/>
        <pt x="288" y="316" on="0"/>
        <pt x="218" y="364" on="0"/>
        <pt x="176" y="378" on="1"/>
        <pt x="166" y="372" on="0"/>
        <pt x="136" y="353" on="0"/>
        <pt x="135" y="353" on="1"/>
        <pt x="190" y="332" on="0"/>
        <pt x="282" y="265" on="0"/>
      </contour>
    </TTGlyph>
    <TTGlyph name="asa_ra_ukaar" xMin="-7" yMin="-23" xMax="667" yMax="637">
      <contour>
        <pt x="217" y="333" on="1"/>
        <pt x="248" y="313" on="0"/>
        <pt x="297" y="262" on="0"/>
        <pt x="315" y="232" on="1"/>
        <pt x="316" y="278" on="0"/>
        <pt x="321" y="359" on="0"/>
        <pt x="325" y="397" on="1"/>
        <pt x="300" y="384" on="0"/>
        <pt x="245" y="352" on="0"/>
      </contour>
      <contour>
        <pt x="316" y="84" on="1"/>
        <pt x="315" y="109" on="0"/>
        <pt x="314" y="147" on="0"/>
        <pt x="314" y="166" on="1"/>
        <pt x="314" y="166" on="1"/>
        <pt x="286" y="213" on="0"/>
        <pt x="214" y="278" on="0"/>
        <pt x="169" y="296" on="1"/>
        <pt x="150" y="280" on="0"/>
        <pt x="128" y="260" on="0"/>
        <pt x="125" y="257" on="1"/>
        <pt x="187" y="227" on="0"/>
        <pt x="283" y="140" on="0"/>
      </contour>
      <contour>
        <pt x="397" y="228" on="1"/>
        <pt x="399" y="153" on="0"/>
        <pt x="412" y="35" on="0"/>
        <pt x="423" y="-4" on="1"/>
        <pt x="407" y="-13" on="0"/>
        <pt x="358" y="-23" on="0"/>
        <pt x="330" y="-23" on="1"/>
        <pt x="281" y="69" on="0"/>
        <pt x="151" y="177" on="0"/>
        <pt x="70" y="194" on="1"/>
        <pt x="50" y="219" on="0"/>
        <pt x="32" y="267" on="0"/>
        <pt x="30" y="295" on="1"/>
        <pt x="81" y="354" on="0"/>
        <pt x="248" y="469" on="0"/>
        <pt x="339" y="507" on="1"/>
        <pt x="343" y="527" on="0"/>
        <pt x="346" y="547" on="0"/>
        <pt x="348" y="556" on="1"/>
        <pt x="340" y="556" on="0"/>
        <pt x="323" y="556" on="0"/>
        <pt x="314" y="556" on="1"/>
        <pt x="237" y="556" on="0"/>
        <pt x="68" y="538" on="0"/>
        <pt x="0" y="524" on="1"/>
        <pt x="-3" y="532" on="0"/>
        <pt x="-7" y="555" on="0"/>
        <pt x="-7" y="565" on="1"/>
        <pt x="-7" y="574" on="0"/>
        <pt x="-3" y="595" on="0"/>
        <pt x="0" y="601" on="1"/>
        <pt x="65" y="617" on="0"/>
        <pt x="237" y="637" on="0"/>
        <pt x="316" y="637" on="1"/>
        <pt x="405" y="637" on="0"/>
        <pt x="597" y="617" on="0"/>
        <pt x="660" y="601" on="1"/>
        <pt x="663" y="595" on="0"/>
        <pt x="667" y="575" on="0"/>
        <pt x="667" y="565" on="1"/>
        <pt x="667" y="555" on="0"/>
        <pt x="663" y="532" on="0"/>
        <pt x="660" y="524" on="1"/>
        <pt x="617" y="534" on="0"/>
        <pt x="487" y="549" on="0"/>
        <pt x="415" y="553" on="1"/>
        <pt x="405" y="490" on="0"/>
        <pt x="397" y="385" on="0"/>
        <pt x="396" y="325" on="1"/>
        <pt x="410" y="279" on="0"/>
        <pt x="469" y="225" on="0"/>
        <pt x="503" y="225" on="1"/>
        <pt x="535" y="225" on="0"/>
        <pt x="578" y="277" on="0"/>
        <pt x="578" y="317" on="1"/>
        <pt x="578" y="347" on="0"/>
        <pt x="554" y="382" on="0"/>
        <pt x="535" y="382" on="1"/>
        <pt x="518" y="382" on="0"/>
        <pt x="487" y="347" on="0"/>
        <pt x="478" y="318" on="1"/>
        <pt x="467" y="336" on="0"/>
        <pt x="450" y="388" on="0"/>
        <pt x="449" y="412" on="1"/>
        <pt x="461" y="436" on="0"/>
        <pt x="501" y="462" on="0"/>
        <pt x="527" y="462" on="1"/>
        <pt x="576" y="462" on="0"/>
        <pt x="639" y="375" on="0"/>
        <pt x="639" y="304" on="1"/>
        <pt x="639" y="229" on="0"/>
        <pt x="572" y="135" on="0"/>
        <pt x="518" y="135" on="1"/>
        <pt x="480" y="135" on="0"/>
        <pt x="419" y="182" on="0"/>
      </contour>
    </TTGlyph>
    <TTGlyph name="asa_ra_uukaar" xMin="-7" yMin="-23" xMax="667" yMax="637">
      <contour>
        <pt x="217" y="333" on="1"/>
        <pt x="248" y="313" on="0"/>
        <pt x="297" y="262" on="0"/>
        <pt x="315" y="232" on="1"/>
        <pt x="316" y="278" on="0"/>
        <pt x="321" y="359" on="0"/>
        <pt x="325" y="397" on="1"/>
        <pt x="300" y="384" on="0"/>
        <pt x="245" y="352" on="0"/>
      </contour>
      <contour>
        <pt x="396" y="295" on="1"/>
        <pt x="396" y="194" on="0"/>
        <pt x="410" y="43" on="0"/>
        <pt x="423" y="-4" on="1"/>
        <pt x="407" y="-13" on="0"/>
        <pt x="358" y="-23" on="0"/>
        <pt x="330" y="-23" on="1"/>
        <pt x="281" y="69" on="0"/>
        <pt x="151" y="177" on="0"/>
        <pt x="70" y="194" on="1"/>
        <pt x="50" y="219" on="0"/>
        <pt x="32" y="267" on="0"/>
        <pt x="30" y="295" on="1"/>
        <pt x="81" y="354" on="0"/>
        <pt x="248" y="469" on="0"/>
        <pt x="339" y="507" on="1"/>
        <pt x="343" y="527" on="0"/>
        <pt x="346" y="547" on="0"/>
        <pt x="348" y="556" on="1"/>
        <pt x="340" y="556" on="0"/>
        <pt x="323" y="556" on="0"/>
        <pt x="314" y="556" on="1"/>
        <pt x="237" y="556" on="0"/>
        <pt x="68" y="538" on="0"/>
        <pt x="0" y="524" on="1"/>
        <pt x="-3" y="532" on="0"/>
        <pt x="-7" y="555" on="0"/>
        <pt x="-7" y="565" on="1"/>
        <pt x="-7" y="574" on="0"/>
        <pt x="-3" y="595" on="0"/>
        <pt x="0" y="601" on="1"/>
        <pt x="65" y="617" on="0"/>
        <pt x="237" y="637" on="0"/>
        <pt x="316" y="637" on="1"/>
        <pt x="405" y="637" on="0"/>
        <pt x="597" y="617" on="0"/>
        <pt x="660" y="601" on="1"/>
        <pt x="663" y="595" on="0"/>
        <pt x="667" y="575" on="0"/>
        <pt x="667" y="565" on="1"/>
        <pt x="667" y="555" on="0"/>
        <pt x="663" y="532" on="0"/>
        <pt x="660" y="524" on="1"/>
        <pt x="617" y="534" on="0"/>
        <pt x="487" y="549" on="0"/>
        <pt x="415" y="553" on="1"/>
        <pt x="409" y="514" on="0"/>
        <pt x="402" y="445" on="0"/>
        <pt x="400" y="412" on="1"/>
        <pt x="448" y="435" on="0"/>
        <pt x="511" y="461" on="0"/>
        <pt x="538" y="469" on="1"/>
        <pt x="582" y="405" on="1"/>
        <pt x="575" y="366" on="0"/>
        <pt x="569" y="317" on="0"/>
        <pt x="569" y="296" on="1"/>
        <pt x="569" y="243" on="0"/>
        <pt x="587" y="150" on="0"/>
        <pt x="605" y="107" on="1"/>
        <pt x="591" y="101" on="0"/>
        <pt x="548" y="94" on="0"/>
        <pt x="523" y="94" on="1"/>
        <pt x="511" y="135" on="0"/>
        <pt x="500" y="225" on="0"/>
        <pt x="500" y="276" on="1"/>
        <pt x="500" y="298" on="0"/>
        <pt x="504" y="345" on="0"/>
        <pt x="508" y="372" on="1"/>
        <pt x="489" y="365" on="0"/>
        <pt x="443" y="345" on="0"/>
        <pt x="396" y="324" on="1"/>
        <pt x="396" y="317" on="0"/>
        <pt x="396" y="302" on="0"/>
      </contour>
      <contour>
        <pt x="316" y="84" on="1"/>
        <pt x="315" y="109" on="0"/>
        <pt x="314" y="147" on="0"/>
        <pt x="314" y="166" on="1"/>
        <pt x="314" y="166" on="1"/>
        <pt x="286" y="213" on="0"/>
        <pt x="214" y="278" on="0"/>
        <pt x="169" y="296" on="1"/>
        <pt x="150" y="280" on="0"/>
        <pt x="128" y="260" on="0"/>
        <pt x="125" y="257" on="1"/>
        <pt x="187" y="227" on="0"/>
        <pt x="283" y="140" on="0"/>
      </contour>
    </TTGlyph>
    <TTGlyph name="asciicircum" xMin="18" yMin="182" xMax="401" yMax="519">
      <contour>
        <pt x="401" y="203" on="1"/>
        <pt x="374" y="192" on="0"/>
        <pt x="352" y="185" on="0"/>
        <pt x="339" y="182" on="1"/>
        <pt x="308" y="254" on="0"/>
        <pt x="244" y="375" on="0"/>
        <pt x="208" y="429" on="1"/>
        <pt x="176" y="382" on="0"/>
        <pt x="113" y="262" on="0"/>
        <pt x="80" y="184" on="1"/>
        <pt x="62" y="187" on="0"/>
        <pt x="33" y="197" on="0"/>
        <pt x="18" y="205" on="1"/>
        <pt x="50" y="292" on="0"/>
        <pt x="141" y="461" on="0"/>
        <pt x="187" y="519" on="1"/>
        <pt x="232" y="517" on="1"/>
        <pt x="278" y="456" on="0"/>
        <pt x="366" y="291" on="0"/>
      </contour>
    </TTGlyph>
    <TTGlyph name="asciitilde" xMin="25" yMin="267" xMax="362" yMax="389">
      <contour>
        <pt x="196" y="359" on="1"/>
        <pt x="223" y="348" on="0"/>
        <pt x="249" y="341" on="0"/>
        <pt x="260" y="341" on="1"/>
        <pt x="284" y="341" on="0"/>
        <pt x="307" y="364" on="0"/>
        <pt x="305" y="388" on="1"/>
        <pt x="319" y="389" on="0"/>
        <pt x="346" y="384" on="0"/>
        <pt x="358" y="379" on="1"/>
        <pt x="362" y="331" on="0"/>
        <pt x="315" y="275" on="0"/>
        <pt x="270" y="275" on="1"/>
        <pt x="253" y="275" on="0"/>
        <pt x="215" y="284" on="0"/>
        <pt x="181" y="298" on="1"/>
        <pt x="156" y="308" on="0"/>
        <pt x="133" y="314" on="0"/>
        <pt x="124" y="314" on="1"/>
        <pt x="100" y="314" on="0"/>
        <pt x="79" y="292" on="0"/>
        <pt x="80" y="268" on="1"/>
        <pt x="70" y="267" on="0"/>
        <pt x="43" y="271" on="0"/>
        <pt x="29" y="276" on="1"/>
        <pt x="25" y="324" on="0"/>
        <pt x="72" y="380" on="0"/>
        <pt x="116" y="380" on="1"/>
        <pt x="130" y="380" on="0"/>
        <pt x="164" y="372" on="0"/>
      </contour>
    </TTGlyph>
    <TTGlyph name="asterisk" xMin="34" yMin="304" xMax="423" yMax="717">
      <contour>
        <pt x="254" y="462" on="1"/>
        <pt x="256" y="421" on="0"/>
        <pt x="262" y="351" on="0"/>
        <pt x="268" y="312" on="1"/>
        <pt x="259" y="309" on="0"/>
        <pt x="232" y="304" on="0"/>
        <pt x="221" y="304" on="1"/>
        <pt x="213" y="304" on="0"/>
        <pt x="201" y="305" on="0"/>
        <pt x="191" y="307" on="1"/>
        <pt x="190" y="336" on="0"/>
        <pt x="193" y="409" on="0"/>
        <pt x="199" y="461" on="1"/>
        <pt x="172" y="443" on="0"/>
        <pt x="116" y="404" on="0"/>
        <pt x="76" y="376" on="1"/>
        <pt x="67" y="384" on="0"/>
        <pt x="50" y="405" on="0"/>
        <pt x="46" y="414" on="1"/>
        <pt x="42" y="421" on="0"/>
        <pt x="36" y="433" on="0"/>
        <pt x="34" y="441" on="1"/>
        <pt x="60" y="457" on="0"/>
        <pt x="122" y="488" on="0"/>
        <pt x="172" y="512" on="1"/>
        <pt x="142" y="528" on="0"/>
        <pt x="82" y="556" on="0"/>
        <pt x="36" y="575" on="1"/>
        <pt x="40" y="592" on="0"/>
        <pt x="48" y="613" on="0"/>
        <pt x="53" y="620" on="1"/>
        <pt x="57" y="628" on="0"/>
        <pt x="71" y="645" on="0"/>
        <pt x="71" y="645" on="1"/>
        <pt x="98" y="631" on="0"/>
        <pt x="159" y="591" on="0"/>
        <pt x="200" y="562" on="1"/>
        <pt x="198" y="599" on="0"/>
        <pt x="189" y="708" on="0"/>
        <pt x="189" y="709" on="1"/>
        <pt x="198" y="712" on="0"/>
        <pt x="224" y="717" on="0"/>
        <pt x="235" y="717" on="1"/>
        <pt x="242" y="717" on="0"/>
        <pt x="255" y="716" on="0"/>
        <pt x="266" y="714" on="1"/>
        <pt x="266" y="677" on="0"/>
        <pt x="262" y="603" on="0"/>
        <pt x="258" y="557" on="1"/>
        <pt x="289" y="577" on="0"/>
        <pt x="345" y="617" on="0"/>
        <pt x="380" y="645" on="1"/>
        <pt x="389" y="637" on="0"/>
        <pt x="406" y="616" on="0"/>
        <pt x="411" y="607" on="1"/>
        <pt x="413" y="604" on="0"/>
        <pt x="419" y="591" on="0"/>
        <pt x="423" y="580" on="1"/>
        <pt x="401" y="566" on="0"/>
        <pt x="343" y="536" on="0"/>
        <pt x="286" y="510" on="1"/>
        <pt x="320" y="493" on="0"/>
        <pt x="383" y="462" on="0"/>
        <pt x="420" y="446" on="1"/>
        <pt x="418" y="435" on="0"/>
        <pt x="409" y="410" on="0"/>
        <pt x="403" y="401" on="1"/>
        <pt x="401" y="397" on="0"/>
        <pt x="393" y="385" on="0"/>
        <pt x="386" y="376" on="1"/>
        <pt x="362" y="389" on="0"/>
        <pt x="306" y="426" on="0"/>
      </contour>
    </TTGlyph>
    <TTGlyph name="at" xMin="38" yMin="-103" xMax="835" yMax="723">
      <contour>
        <pt x="649" y="-42" on="1"/>
        <pt x="598" y="-73" on="0"/>
        <pt x="482" y="-103" on="0"/>
        <pt x="416" y="-103" on="1"/>
        <pt x="244" y="-103" on="0"/>
        <pt x="38" y="110" on="0"/>
        <pt x="38" y="286" on="1"/>
        <pt x="38" y="484" on="0"/>
        <pt x="272" y="723" on="0"/>
        <pt x="468" y="723" on="1"/>
        <pt x="639" y="723" on="0"/>
        <pt x="835" y="522" on="0"/>
        <pt x="835" y="358" on="1"/>
        <pt x="835" y="238" on="0"/>
        <pt x="719" y="85" on="0"/>
        <pt x="633" y="85" on="1"/>
        <pt x="582" y="85" on="0"/>
        <pt x="515" y="137" on="0"/>
        <pt x="501" y="187" on="1"/>
        <pt x="483" y="141" on="0"/>
        <pt x="427" y="96" on="0"/>
        <pt x="388" y="96" on="1"/>
        <pt x="328" y="96" on="0"/>
        <pt x="256" y="202" on="0"/>
        <pt x="256" y="290" on="1"/>
        <pt x="256" y="400" on="0"/>
        <pt x="357" y="531" on="0"/>
        <pt x="441" y="531" on="1"/>
        <pt x="449" y="531" on="0"/>
        <pt x="468" y="528" on="0"/>
        <pt x="484" y="525" on="1"/>
        <pt x="484" y="531" on="0"/>
        <pt x="484" y="543" on="0"/>
        <pt x="484" y="549" on="1"/>
        <pt x="510" y="555" on="0"/>
        <pt x="556" y="557" on="0"/>
        <pt x="579" y="552" on="1"/>
        <pt x="574" y="475" on="0"/>
        <pt x="570" y="362" on="0"/>
        <pt x="570" y="309" on="1"/>
        <pt x="570" y="221" on="0"/>
        <pt x="603" y="141" on="0"/>
        <pt x="640" y="141" on="1"/>
        <pt x="691" y="141" on="0"/>
        <pt x="758" y="264" on="0"/>
        <pt x="758" y="360" on="1"/>
        <pt x="758" y="497" on="0"/>
        <pt x="597" y="659" on="0"/>
        <pt x="456" y="659" on="1"/>
        <pt x="303" y="659" on="0"/>
        <pt x="119" y="465" on="0"/>
        <pt x="119" y="305" on="1"/>
        <pt x="119" y="146" on="0"/>
        <pt x="281" y="-37" on="0"/>
        <pt x="424" y="-37" on="1"/>
        <pt x="481" y="-37" on="0"/>
        <pt x="568" y="-11" on="0"/>
        <pt x="604" y="18" on="1"/>
        <pt x="618" y="6" on="0"/>
        <pt x="639" y="-21" on="0"/>
      </contour>
      <contour>
        <pt x="343" y="303" on="1"/>
        <pt x="343" y="236" on="0"/>
        <pt x="378" y="161" on="0"/>
        <pt x="409" y="161" on="1"/>
        <pt x="439" y="161" on="0"/>
        <pt x="481" y="219" on="0"/>
        <pt x="492" y="275" on="1"/>
        <pt x="491" y="306" on="0"/>
        <pt x="488" y="395" on="0"/>
        <pt x="486" y="468" on="1"/>
        <pt x="478" y="471" on="0"/>
        <pt x="459" y="473" on="0"/>
        <pt x="449" y="473" on="1"/>
        <pt x="402" y="473" on="0"/>
        <pt x="343" y="381" on="0"/>
      </contour>
    </TTGlyph>
    <TTGlyph name="atilde" xMin="26" yMin="-35" xMax="423" yMax="701">
      <component glyphName="a" x="0" y="0" flags="0x204"/>
      <component glyphName="tilde" x="129" y="-34" flags="0x4"/>
    </TTGlyph>
    <TTGlyph name="b" xMin="55" yMin="-40" xMax="439" yMax="715">
      <contour>
        <pt x="439" y="293" on="1"/>
        <pt x="439" y="144" on="0"/>
        <pt x="306" y="-40" on="0"/>
        <pt x="200" y="-40" on="1"/>
        <pt x="161" y="-40" on="0"/>
        <pt x="94" y="-17" on="0"/>
        <pt x="63" y="7" on="1"/>
        <pt x="59" y="69" on="0"/>
        <pt x="55" y="245" on="0"/>
        <pt x="55" y="342" on="1"/>
        <pt x="55" y="451" on="0"/>
        <pt x="63" y="644" on="0"/>
        <pt x="71" y="703" on="1"/>
        <pt x="83" y="709" on="0"/>
        <pt x="123" y="715" on="0"/>
        <pt x="149" y="715" on="1"/>
        <pt x="159" y="715" on="0"/>
        <pt x="177" y="713" on="0"/>
        <pt x="194" y="710" on="1"/>
        <pt x="185" y="656" on="0"/>
        <pt x="170" y="520" on="0"/>
        <pt x="164" y="443" on="1"/>
        <pt x="188" y="476" on="0"/>
        <pt x="251" y="509" on="0"/>
        <pt x="290" y="509" on="1"/>
        <pt x="363" y="509" on="0"/>
        <pt x="439" y="399" on="0"/>
      </contour>
      <contour>
        <pt x="155" y="53" on="1"/>
        <pt x="166" y="43" on="0"/>
        <pt x="192" y="34" on="0"/>
        <pt x="207" y="34" on="1"/>
        <pt x="267" y="34" on="0"/>
        <pt x="331" y="176" on="0"/>
        <pt x="331" y="303" on="1"/>
        <pt x="331" y="369" on="0"/>
        <pt x="293" y="437" on="0"/>
        <pt x="255" y="437" on="1"/>
        <pt x="226" y="437" on="0"/>
        <pt x="175" y="381" on="0"/>
        <pt x="157" y="330" on="1"/>
        <pt x="156" y="292" on="0"/>
        <pt x="154" y="216" on="0"/>
        <pt x="154" y="180" on="1"/>
        <pt x="154" y="120" on="0"/>
        <pt x="154" y="71" on="0"/>
      </contour>
    </TTGlyph>
    <TTGlyph name="backslash" xMin="-5" yMin="-202" xMax="502" yMax="750">
      <contour>
        <pt x="71" y="750" on="1"/>
        <pt x="53" y="746" on="0"/>
        <pt x="13" y="724" on="0"/>
        <pt x="-5" y="708" on="1"/>
        <pt x="80" y="505" on="0"/>
        <pt x="312" y="21" on="0"/>
        <pt x="431" y="-202" on="1"/>
        <pt x="453" y="-194" on="0"/>
        <pt x="491" y="-175" on="0"/>
        <pt x="502" y="-166" on="1"/>
        <pt x="419" y="-19" on="0"/>
        <pt x="177" y="496" on="0"/>
      </contour>
    </TTGlyph>
    <TTGlyph name="bar" xMin="85" yMin="-170" xMax="181" yMax="729">
      <contour>
        <pt x="176" y="-162" on="1"/>
        <pt x="161" y="-166" on="0"/>
        <pt x="120" y="-170" on="0"/>
        <pt x="106" y="-169" on="1"/>
        <pt x="96" y="4" on="0"/>
        <pt x="85" y="471" on="0"/>
        <pt x="86" y="713" on="1"/>
        <pt x="106" y="722" on="0"/>
        <pt x="158" y="729" on="0"/>
        <pt x="181" y="725" on="1"/>
        <pt x="171" y="566" on="0"/>
        <pt x="168" y="6" on="0"/>
      </contour>
    </TTGlyph>
    <TTGlyph name="bn_a" xMin="-6" yMin="-25" xMax="665" yMax="636">
      <contour>
        <pt x="591" y="403" on="1"/>
        <pt x="591" y="280" on="0"/>
        <pt x="555" y="39" on="0"/>
        <pt x="526" y="-25" on="1"/>
        <pt x="507" y="-25" on="0"/>
        <pt x="464" y="-16" on="0"/>
        <pt x="450" y="-9" on="1"/>
        <pt x="433" y="21" on="0"/>
        <pt x="391" y="74" on="0"/>
        <pt x="367" y="97" on="1"/>
        <pt x="352" y="87" on="0"/>
        <pt x="316" y="77" on="0"/>
        <pt x="295" y="77" on="1"/>
        <pt x="208" y="77" on="0"/>
        <pt x="66" y="253" on="0"/>
        <pt x="13" y="426" on="1"/>
        <pt x="25" y="437" on="0"/>
        <pt x="54" y="453" on="0"/>
        <pt x="68" y="458" on="1"/>
        <pt x="114" y="319" on="0"/>
        <pt x="227" y="171" on="0"/>
        <pt x="288" y="171" on="1"/>
        <pt x="330" y="171" on="0"/>
        <pt x="375" y="235" on="0"/>
        <pt x="375" y="296" on="1"/>
        <pt x="375" y="357" on="0"/>
        <pt x="336" y="432" on="0"/>
        <pt x="304" y="432" on="1"/>
        <pt x="284" y="432" on="0"/>
        <pt x="263" y="399" on="0"/>
        <pt x="263" y="369" on="1"/>
        <pt x="263" y="353" on="0"/>
        <pt x="272" y="319" on="0"/>
        <pt x="281" y="305" on="1"/>
        <pt x="261" y="305" on="0"/>
        <pt x="215" y="313" on="0"/>
        <pt x="202" y="318" on="1"/>
        <pt x="196" y="332" on="0"/>
        <pt x="190" y="363" on="0"/>
        <pt x="190" y="379" on="1"/>
        <pt x="190" y="431" on="0"/>
        <pt x="244" y="499" on="0"/>
        <pt x="286" y="499" on="1"/>
        <pt x="353" y="499" on="0"/>
        <pt x="442" y="361" on="0"/>
        <pt x="442" y="265" on="1"/>
        <pt x="442" y="230" on="0"/>
        <pt x="427" y="169" on="0"/>
        <pt x="413" y="145" on="1"/>
        <pt x="430" y="122" on="0"/>
        <pt x="460" y="74" on="0"/>
        <pt x="472" y="49" on="1"/>
        <pt x="489" y="108" on="0"/>
        <pt x="505" y="268" on="0"/>
        <pt x="505" y="380" on="1"/>
        <pt x="505" y="435" on="0"/>
        <pt x="501" y="513" on="0"/>
        <pt x="497" y="548" on="1"/>
        <pt x="457" y="552" on="0"/>
        <pt x="376" y="556" on="0"/>
        <pt x="336" y="556" on="1"/>
        <pt x="251" y="556" on="0"/>
        <pt x="83" y="540" on="0"/>
        <pt x="0" y="524" on="1"/>
        <pt x="-3" y="531" on="0"/>
        <pt x="-6" y="554" on="0"/>
        <pt x="-6" y="568" on="1"/>
        <pt x="-6" y="578" on="0"/>
        <pt x="-3" y="595" on="0"/>
        <pt x="0" y="601" on="1"/>
        <pt x="77" y="618" on="0"/>
        <pt x="251" y="636" on="0"/>
        <pt x="340" y="636" on="1"/>
        <pt x="427" y="636" on="0"/>
        <pt x="596" y="617" on="0"/>
        <pt x="659" y="601" on="1"/>
        <pt x="662" y="594" on="0"/>
        <pt x="665" y="577" on="0"/>
        <pt x="665" y="567" on="1"/>
        <pt x="665" y="556" on="0"/>
        <pt x="662" y="533" on="0"/>
        <pt x="659" y="524" on="1"/>
        <pt x="645" y="527" on="0"/>
        <pt x="610" y="533" on="0"/>
        <pt x="586" y="537" on="1"/>
        <pt x="589" y="502" on="0"/>
        <pt x="591" y="436" on="0"/>
      </contour>
    </TTGlyph>
    <TTGlyph name="bn_aa" xMin="-7" yMin="-41" xMax="912" yMax="640">
      <contour>
        <pt x="833" y="481" on="1"/>
        <pt x="818" y="353" on="0"/>
        <pt x="814" y="95" on="0"/>
        <pt x="826" y="-34" on="1"/>
        <pt x="804" y="-38" on="0"/>
        <pt x="744" y="-41" on="0"/>
        <pt x="723" y="-40" on="1"/>
        <pt x="726" y="134" on="0"/>
        <pt x="738" y="341" on="0"/>
        <pt x="749" y="449" on="1"/>
        <pt x="741" y="482" on="0"/>
        <pt x="663" y="528" on="0"/>
        <pt x="595" y="541" on="1"/>
        <pt x="586" y="495" on="0"/>
        <pt x="577" y="371" on="0"/>
        <pt x="577" y="297" on="1"/>
        <pt x="577" y="195" on="0"/>
        <pt x="590" y="43" on="0"/>
        <pt x="603" y="-4" on="1"/>
        <pt x="587" y="-13" on="0"/>
        <pt x="538" y="-23" on="0"/>
        <pt x="511" y="-23" on="1"/>
        <pt x="486" y="18" on="0"/>
        <pt x="426" y="85" on="0"/>
        <pt x="392" y="112" on="1"/>
        <pt x="373" y="92" on="0"/>
        <pt x="324" y="72" on="0"/>
        <pt x="295" y="72" on="1"/>
        <pt x="207" y="72" on="0"/>
        <pt x="65" y="248" on="0"/>
        <pt x="13" y="421" on="1"/>
        <pt x="26" y="431" on="0"/>
        <pt x="54" y="448" on="0"/>
        <pt x="68" y="453" on="1"/>
        <pt x="114" y="314" on="0"/>
        <pt x="227" y="166" on="0"/>
        <pt x="288" y="166" on="1"/>
        <pt x="331" y="166" on="0"/>
        <pt x="375" y="230" on="0"/>
        <pt x="375" y="291" on="1"/>
        <pt x="375" y="352" on="0"/>
        <pt x="336" y="427" on="0"/>
        <pt x="304" y="427" on="1"/>
        <pt x="285" y="427" on="0"/>
        <pt x="263" y="394" on="0"/>
        <pt x="263" y="364" on="1"/>
        <pt x="263" y="348" on="0"/>
        <pt x="273" y="313" on="0"/>
        <pt x="281" y="300" on="1"/>
        <pt x="259" y="300" on="0"/>
        <pt x="214" y="307" on="0"/>
        <pt x="202" y="313" on="1"/>
        <pt x="196" y="328" on="0"/>
        <pt x="190" y="358" on="0"/>
        <pt x="190" y="374" on="1"/>
        <pt x="190" y="426" on="0"/>
        <pt x="244" y="493" on="0"/>
        <pt x="287" y="493" on="1"/>
        <pt x="353" y="493" on="0"/>
        <pt x="442" y="355" on="0"/>
        <pt x="442" y="259" on="1"/>
        <pt x="442" y="232" on="0"/>
        <pt x="433" y="183" on="0"/>
        <pt x="424" y="162" on="1"/>
        <pt x="446" y="143" on="0"/>
        <pt x="483" y="99" on="0"/>
        <pt x="498" y="75" on="1"/>
        <pt x="497" y="103" on="0"/>
        <pt x="496" y="149" on="0"/>
        <pt x="496" y="172" on="1"/>
        <pt x="496" y="291" on="0"/>
        <pt x="513" y="489" on="0"/>
        <pt x="528" y="551" on="1"/>
        <pt x="493" y="555" on="0"/>
        <pt x="411" y="559" on="0"/>
        <pt x="366" y="559" on="1"/>
        <pt x="274" y="559" on="0"/>
        <pt x="86" y="541" on="0"/>
        <pt x="0" y="524" on="1"/>
        <pt x="-6" y="542" on="0"/>
        <pt x="-7" y="590" on="0"/>
        <pt x="0" y="601" on="1"/>
        <pt x="78" y="619" on="0"/>
        <pt x="272" y="640" on="0"/>
        <pt x="370" y="640" on="1"/>
        <pt x="510" y="640" on="0"/>
        <pt x="734" y="589" on="0"/>
        <pt x="786" y="543" on="1"/>
        <pt x="805" y="562" on="0"/>
        <pt x="867" y="592" on="0"/>
        <pt x="906" y="601" on="1"/>
        <pt x="912" y="591" on="0"/>
        <pt x="911" y="543" on="0"/>
        <pt x="906" y="524" on="1"/>
        <pt x="880" y="517" on="0"/>
        <pt x="843" y="496" on="0"/>
      </contour>
    </TTGlyph>
    <TTGlyph name="bn_aakaar" xMin="-6" yMin="-58" xMax="252" yMax="601">
      <contour>
        <pt x="175" y="484" on="1"/>
        <pt x="174" y="353" on="0"/>
        <pt x="164" y="78" on="0"/>
        <pt x="154" y="-58" on="1"/>
        <pt x="127" y="-58" on="0"/>
        <pt x="66" y="-51" on="0"/>
        <pt x="51" y="-46" on="1"/>
        <pt x="71" y="56" on="0"/>
        <pt x="91" y="289" on="0"/>
        <pt x="93" y="434" on="1"/>
        <pt x="89" y="468" on="0"/>
        <pt x="41" y="516" on="0"/>
        <pt x="0" y="524" on="1"/>
        <pt x="-5" y="540" on="0"/>
        <pt x="-6" y="590" on="0"/>
        <pt x="0" y="601" on="1"/>
        <pt x="37" y="592" on="0"/>
        <pt x="103" y="561" on="0"/>
        <pt x="125" y="542" on="1"/>
        <pt x="145" y="562" on="0"/>
        <pt x="206" y="592" on="0"/>
        <pt x="246" y="601" on="1"/>
        <pt x="252" y="591" on="0"/>
        <pt x="252" y="541" on="0"/>
        <pt x="246" y="524" on="1"/>
        <pt x="222" y="518" on="0"/>
        <pt x="186" y="497" on="0"/>
      </contour>
    </TTGlyph>
    <TTGlyph name="bn_aakaar.b" xMin="-6" yMin="-58" xMax="252" yMax="607">
      <contour>
        <pt x="175" y="484" on="1"/>
        <pt x="174" y="353" on="0"/>
        <pt x="164" y="78" on="0"/>
        <pt x="154" y="-58" on="1"/>
        <pt x="127" y="-58" on="0"/>
        <pt x="66" y="-51" on="0"/>
        <pt x="51" y="-46" on="1"/>
        <pt x="70" y="56" on="0"/>
        <pt x="91" y="290" on="0"/>
        <pt x="93" y="436" on="1"/>
        <pt x="90" y="481" on="0"/>
        <pt x="61" y="529" on="0"/>
        <pt x="36" y="529" on="1"/>
        <pt x="28" y="529" on="0"/>
        <pt x="11" y="527" on="0"/>
        <pt x="0" y="524" on="1"/>
        <pt x="-3" y="533" on="0"/>
        <pt x="-6" y="555" on="0"/>
        <pt x="-6" y="565" on="1"/>
        <pt x="-6" y="575" on="0"/>
        <pt x="-3" y="595" on="0"/>
        <pt x="0" y="601" on="1"/>
        <pt x="10" y="603" on="0"/>
        <pt x="32" y="606" on="0"/>
        <pt x="44" y="606" on="1"/>
        <pt x="72" y="607" on="0"/>
        <pt x="120" y="577" on="0"/>
        <pt x="134" y="550" on="1"/>
        <pt x="154" y="567" on="0"/>
        <pt x="210" y="593" on="0"/>
        <pt x="246" y="601" on="1"/>
        <pt x="252" y="591" on="0"/>
        <pt x="252" y="541" on="0"/>
        <pt x="246" y="524" on="1"/>
        <pt x="222" y="518" on="0"/>
        <pt x="186" y="497" on="0"/>
      </contour>
    </TTGlyph>
    <TTGlyph name="bn_ai" xMin="22" yMin="-25" xMax="644" yMax="894">
      <contour>
        <pt x="513" y="-12" on="1"/>
        <pt x="496" y="-18" on="0"/>
        <pt x="456" y="-25" on="0"/>
        <pt x="435" y="-25" on="1"/>
        <pt x="422" y="0" on="0"/>
        <pt x="405" y="30" on="0"/>
        <pt x="402" y="34" on="1"/>
        <pt x="390" y="49" on="0"/>
        <pt x="360" y="62" on="0"/>
        <pt x="341" y="62" on="1"/>
        <pt x="327" y="62" on="0"/>
        <pt x="290" y="55" on="0"/>
        <pt x="251" y="43" on="1"/>
        <pt x="207" y="29" on="0"/>
        <pt x="163" y="21" on="0"/>
        <pt x="145" y="21" on="1"/>
        <pt x="89" y="21" on="0"/>
        <pt x="22" y="95" on="0"/>
        <pt x="22" y="156" on="1"/>
        <pt x="22" y="188" on="0"/>
        <pt x="42" y="265" on="0"/>
        <pt x="60" y="300" on="1"/>
        <pt x="80" y="299" on="0"/>
        <pt x="112" y="291" on="0"/>
        <pt x="125" y="283" on="1"/>
        <pt x="114" y="262" on="0"/>
        <pt x="99" y="206" on="0"/>
        <pt x="99" y="184" on="1"/>
        <pt x="99" y="152" on="0"/>
        <pt x="132" y="118" on="0"/>
        <pt x="161" y="118" on="1"/>
        <pt x="173" y="118" on="0"/>
        <pt x="205" y="125" on="0"/>
        <pt x="240" y="137" on="1"/>
        <pt x="278" y="149" on="0"/>
        <pt x="315" y="157" on="0"/>
        <pt x="330" y="157" on="1"/>
        <pt x="365" y="157" on="0"/>
        <pt x="411" y="115" on="0"/>
        <pt x="429" y="66" on="1"/>
        <pt x="443" y="156" on="0"/>
        <pt x="458" y="395" on="0"/>
        <pt x="458" y="514" on="1"/>
        <pt x="458" y="545" on="0"/>
        <pt x="431" y="581" on="0"/>
        <pt x="407" y="581" on="1"/>
        <pt x="361" y="581" on="0"/>
        <pt x="258" y="465" on="0"/>
        <pt x="258" y="411" on="1"/>
        <pt x="258" y="386" on="0"/>
        <pt x="284" y="360" on="0"/>
        <pt x="308" y="360" on="1"/>
        <pt x="327" y="360" on="0"/>
        <pt x="362" y="378" on="0"/>
        <pt x="379" y="396" on="1"/>
        <pt x="381" y="392" on="0"/>
        <pt x="383" y="379" on="0"/>
        <pt x="383" y="370" on="1"/>
        <pt x="383" y="352" on="0"/>
        <pt x="373" y="314" on="0"/>
        <pt x="365" y="302" on="1"/>
        <pt x="350" y="290" on="0"/>
        <pt x="309" y="276" on="0"/>
        <pt x="286" y="276" on="1"/>
        <pt x="231" y="276" on="0"/>
        <pt x="162" y="343" on="0"/>
        <pt x="162" y="398" on="1"/>
        <pt x="162" y="439" on="0"/>
        <pt x="201" y="525" on="0"/>
        <pt x="236" y="563" on="1"/>
        <pt x="273" y="601" on="0"/>
        <pt x="358" y="645" on="0"/>
        <pt x="397" y="645" on="1"/>
        <pt x="456" y="645" on="0"/>
        <pt x="540" y="555" on="0"/>
        <pt x="540" y="489" on="1"/>
        <pt x="566" y="512" on="0"/>
        <pt x="595" y="569" on="0"/>
        <pt x="595" y="598" on="1"/>
        <pt x="595" y="627" on="0"/>
        <pt x="566" y="663" on="0"/>
        <pt x="533" y="674" on="1"/>
        <pt x="517" y="679" on="0"/>
        <pt x="474" y="688" on="0"/>
        <pt x="427" y="695" on="1"/>
        <pt x="368" y="704" on="0"/>
        <pt x="305" y="723" on="0"/>
        <pt x="283" y="737" on="1"/>
        <pt x="255" y="756" on="0"/>
        <pt x="222" y="817" on="0"/>
        <pt x="214" y="864" on="1"/>
        <pt x="228" y="874" on="0"/>
        <pt x="264" y="890" on="0"/>
        <pt x="280" y="894" on="1"/>
        <pt x="291" y="835" on="0"/>
        <pt x="341" y="783" on="0"/>
        <pt x="404" y="773" on="1"/>
        <pt x="478" y="760" on="1"/>
        <pt x="562" y="746" on="0"/>
        <pt x="644" y="662" on="0"/>
        <pt x="644" y="592" on="1"/>
        <pt x="644" y="537" on="0"/>
        <pt x="593" y="438" on="0"/>
        <pt x="539" y="390" on="1"/>
        <pt x="538" y="283" on="0"/>
        <pt x="525" y="86" on="0"/>
      </contour>
    </TTGlyph>
    <TTGlyph name="bn_aikaar" xMin="-102" yMin="-71" xMax="335" yMax="814">
      <contour>
        <pt x="335" y="-3" on="1"/>
        <pt x="314" y="-36" on="0"/>
        <pt x="258" y="-71" on="0"/>
        <pt x="225" y="-71" on="1"/>
        <pt x="151" y="-71" on="0"/>
        <pt x="63" y="92" on="0"/>
        <pt x="63" y="229" on="1"/>
        <pt x="63" y="305" on="0"/>
        <pt x="83" y="433" on="0"/>
        <pt x="102" y="480" on="1"/>
        <pt x="88" y="492" on="0"/>
        <pt x="36" y="515" on="0"/>
        <pt x="0" y="524" on="1"/>
        <pt x="-2" y="532" on="0"/>
        <pt x="-5" y="553" on="0"/>
        <pt x="-5" y="564" on="1"/>
        <pt x="-5" y="575" on="0"/>
        <pt x="-2" y="594" on="0"/>
        <pt x="0" y="601" on="1"/>
        <pt x="48" y="590" on="0"/>
        <pt x="125" y="559" on="0"/>
        <pt x="149" y="541" on="1"/>
        <pt x="162" y="555" on="0"/>
        <pt x="203" y="578" on="0"/>
        <pt x="233" y="588" on="1"/>
        <pt x="222" y="646" on="0"/>
        <pt x="185" y="691" on="0"/>
        <pt x="153" y="691" on="1"/>
        <pt x="143" y="691" on="0"/>
        <pt x="119" y="688" on="0"/>
        <pt x="96" y="682" on="1"/>
        <pt x="71" y="677" on="0"/>
        <pt x="45" y="673" on="0"/>
        <pt x="34" y="673" on="1"/>
        <pt x="-7" y="673" on="0"/>
        <pt x="-73" y="720" on="0"/>
        <pt x="-102" y="772" on="1"/>
        <pt x="-92" y="784" on="0"/>
        <pt x="-62" y="806" on="0"/>
        <pt x="-46" y="814" on="1"/>
        <pt x="-24" y="777" on="0"/>
        <pt x="16" y="747" on="0"/>
        <pt x="40" y="747" on="1"/>
        <pt x="48" y="747" on="0"/>
        <pt x="69" y="750" on="0"/>
        <pt x="92" y="755" on="1"/>
        <pt x="117" y="761" on="0"/>
        <pt x="143" y="765" on="0"/>
        <pt x="153" y="765" on="1"/>
        <pt x="205" y="765" on="0"/>
        <pt x="271" y="679" on="0"/>
        <pt x="282" y="601" on="1"/>
        <pt x="285" y="594" on="0"/>
        <pt x="288" y="577" on="0"/>
        <pt x="288" y="566" on="1"/>
        <pt x="288" y="553" on="0"/>
        <pt x="285" y="530" on="0"/>
        <pt x="282" y="524" on="1"/>
        <pt x="210" y="510" on="0"/>
        <pt x="152" y="377" on="0"/>
        <pt x="152" y="225" on="1"/>
        <pt x="152" y="108" on="0"/>
        <pt x="179" y="-7" on="0"/>
        <pt x="207" y="-7" on="1"/>
        <pt x="223" y="-7" on="0"/>
        <pt x="254" y="32" on="0"/>
        <pt x="279" y="81" on="1"/>
        <pt x="300" y="69" on="0"/>
        <pt x="335" y="16" on="0"/>
      </contour>
    </TTGlyph>
    <TTGlyph name="bn_aikaar.init" xMin="-77" yMin="-71" xMax="322" yMax="814">
      <contour>
        <pt x="322" y="-3" on="1"/>
        <pt x="300" y="-36" on="0"/>
        <pt x="243" y="-71" on="0"/>
        <pt x="211" y="-71" on="1"/>
        <pt x="137" y="-71" on="0"/>
        <pt x="44" y="89" on="0"/>
        <pt x="44" y="217" on="1"/>
        <pt x="44" y="370" on="0"/>
        <pt x="149" y="552" on="0"/>
        <pt x="258" y="588" on="1"/>
        <pt x="247" y="646" on="0"/>
        <pt x="210" y="691" on="0"/>
        <pt x="178" y="691" on="1"/>
        <pt x="168" y="691" on="0"/>
        <pt x="145" y="688" on="0"/>
        <pt x="121" y="682" on="1"/>
        <pt x="96" y="677" on="0"/>
        <pt x="70" y="673" on="0"/>
        <pt x="59" y="673" on="1"/>
        <pt x="19" y="673" on="0"/>
        <pt x="-46" y="719" on="0"/>
        <pt x="-77" y="772" on="1"/>
        <pt x="-67" y="784" on="0"/>
        <pt x="-37" y="806" on="0"/>
        <pt x="-21" y="814" on="1"/>
        <pt x="1" y="776" on="0"/>
        <pt x="41" y="747" on="0"/>
        <pt x="66" y="747" on="1"/>
        <pt x="74" y="747" on="0"/>
        <pt x="95" y="750" on="0"/>
        <pt x="117" y="755" on="1"/>
        <pt x="143" y="761" on="0"/>
        <pt x="168" y="765" on="0"/>
        <pt x="178" y="765" on="1"/>
        <pt x="229" y="765" on="0"/>
        <pt x="296" y="680" on="0"/>
        <pt x="308" y="601" on="1"/>
        <pt x="311" y="596" on="0"/>
        <pt x="313" y="579" on="0"/>
        <pt x="313" y="565" on="1"/>
        <pt x="313" y="554" on="0"/>
        <pt x="310" y="531" on="0"/>
        <pt x="308" y="524" on="1"/>
        <pt x="216" y="507" on="0"/>
        <pt x="134" y="355" on="0"/>
        <pt x="134" y="202" on="1"/>
        <pt x="134" y="105" on="0"/>
        <pt x="165" y="-7" on="0"/>
        <pt x="192" y="-7" on="1"/>
        <pt x="209" y="-7" on="0"/>
        <pt x="242" y="32" on="0"/>
        <pt x="266" y="81" on="1"/>
        <pt x="287" y="69" on="0"/>
        <pt x="322" y="16" on="0"/>
      </contour>
    </TTGlyph>
    <TTGlyph name="bn_anusvar" xMin="19" yMin="-51" xMax="429" yMax="616">
      <contour>
        <pt x="232" y="616" on="1"/>
        <pt x="294" y="616" on="0"/>
        <pt x="374" y="539" on="0"/>
        <pt x="373" y="480" on="1"/>
        <pt x="372" y="416" on="0"/>
        <pt x="279" y="326" on="0"/>
        <pt x="214" y="326" on="1"/>
        <pt x="154" y="326" on="0"/>
        <pt x="74" y="403" on="0"/>
        <pt x="75" y="461" on="1"/>
        <pt x="76" y="526" on="0"/>
        <pt x="167" y="616" on="0"/>
      </contour>
      <contour>
        <pt x="211" y="552" on="1"/>
        <pt x="178" y="552" on="0"/>
        <pt x="141" y="515" on="0"/>
        <pt x="141" y="483" on="1"/>
        <pt x="141" y="443" on="0"/>
        <pt x="194" y="390" on="0"/>
        <pt x="234" y="390" on="1"/>
        <pt x="267" y="390" on="0"/>
        <pt x="307" y="428" on="0"/>
        <pt x="307" y="461" on="1"/>
        <pt x="307" y="501" on="0"/>
        <pt x="252" y="552" on="0"/>
      </contour>
      <contour>
        <pt x="59" y="315" on="1"/>
        <pt x="169" y="274" on="0"/>
        <pt x="373" y="99" on="0"/>
        <pt x="429" y="-3" on="1"/>
        <pt x="421" y="-18" on="0"/>
        <pt x="392" y="-43" on="0"/>
        <pt x="374" y="-51" on="1"/>
        <pt x="310" y="51" on="0"/>
        <pt x="118" y="204" on="0"/>
        <pt x="19" y="232" on="1"/>
        <pt x="25" y="258" on="0"/>
        <pt x="45" y="298" on="0"/>
      </contour>
    </TTGlyph>
    <TTGlyph name="bn_au" xMin="19" yMin="-25" xMax="717" yMax="893">
      <contour>
        <pt x="637" y="158" on="1"/>
        <pt x="637" y="77" on="0"/>
        <pt x="532" y="-25" on="0"/>
        <pt x="444" y="-25" on="1"/>
        <pt x="303" y="-25" on="0"/>
        <pt x="93" y="253" on="0"/>
        <pt x="19" y="546" on="1"/>
        <pt x="34" y="557" on="0"/>
        <pt x="66" y="574" on="0"/>
        <pt x="84" y="580" on="1"/>
        <pt x="147" y="331" on="0"/>
        <pt x="334" y="69" on="0"/>
        <pt x="450" y="69" on="1"/>
        <pt x="505" y="69" on="0"/>
        <pt x="565" y="128" on="0"/>
        <pt x="565" y="181" on="1"/>
        <pt x="565" y="205" on="0"/>
        <pt x="552" y="247" on="0"/>
        <pt x="539" y="265" on="1"/>
        <pt x="520" y="240" on="0"/>
        <pt x="473" y="213" on="0"/>
        <pt x="447" y="213" on="1"/>
        <pt x="406" y="213" on="0"/>
        <pt x="351" y="269" on="0"/>
        <pt x="351" y="313" on="1"/>
        <pt x="351" y="356" on="0"/>
        <pt x="405" y="415" on="0"/>
        <pt x="444" y="415" on="1"/>
        <pt x="466" y="415" on="0"/>
        <pt x="509" y="396" on="0"/>
        <pt x="524" y="379" on="1"/>
        <pt x="542" y="403" on="0"/>
        <pt x="560" y="455" on="0"/>
        <pt x="560" y="482" on="1"/>
        <pt x="560" y="526" on="0"/>
        <pt x="510" y="573" on="0"/>
        <pt x="463" y="574" on="1"/>
        <pt x="398" y="575" on="0"/>
        <pt x="308" y="490" on="0"/>
        <pt x="308" y="428" on="1"/>
        <pt x="308" y="416" on="0"/>
        <pt x="310" y="393" on="0"/>
        <pt x="312" y="385" on="1"/>
        <pt x="287" y="385" on="0"/>
        <pt x="232" y="406" on="0"/>
        <pt x="217" y="422" on="1"/>
        <pt x="215" y="519" on="0"/>
        <pt x="340" y="644" on="0"/>
        <pt x="436" y="644" on="1"/>
        <pt x="511" y="644" on="0"/>
        <pt x="616" y="564" on="0"/>
        <pt x="627" y="497" on="1"/>
        <pt x="646" y="519" on="0"/>
        <pt x="668" y="572" on="0"/>
        <pt x="668" y="597" on="1"/>
        <pt x="668" y="636" on="0"/>
        <pt x="608" y="678" on="0"/>
        <pt x="500" y="696" on="1"/>
        <pt x="439" y="706" on="0"/>
        <pt x="377" y="725" on="0"/>
        <pt x="356" y="739" on="1"/>
        <pt x="329" y="757" on="0"/>
        <pt x="296" y="819" on="0"/>
        <pt x="288" y="867" on="1"/>
        <pt x="301" y="875" on="0"/>
        <pt x="335" y="889" on="0"/>
        <pt x="353" y="893" on="1"/>
        <pt x="364" y="834" on="0"/>
        <pt x="414" y="785" on="0"/>
        <pt x="482" y="773" on="1"/>
        <pt x="553" y="761" on="1"/>
        <pt x="636" y="746" on="0"/>
        <pt x="717" y="662" on="0"/>
        <pt x="717" y="592" on="1"/>
        <pt x="717" y="539" on="0"/>
        <pt x="666" y="434" on="0"/>
        <pt x="616" y="384" on="1"/>
        <pt x="609" y="364" on="0"/>
        <pt x="590" y="329" on="0"/>
        <pt x="578" y="314" on="1"/>
        <pt x="607" y="280" on="0"/>
        <pt x="637" y="200" on="0"/>
      </contour>
      <contour>
        <pt x="400" y="323" on="1"/>
        <pt x="400" y="307" on="0"/>
        <pt x="421" y="286" on="0"/>
        <pt x="438" y="286" on="1"/>
        <pt x="454" y="286" on="0"/>
        <pt x="485" y="307" on="0"/>
        <pt x="499" y="328" on="1"/>
        <pt x="488" y="345" on="0"/>
        <pt x="458" y="365" on="0"/>
        <pt x="442" y="365" on="1"/>
        <pt x="424" y="365" on="0"/>
        <pt x="400" y="341" on="0"/>
      </contour>
    </TTGlyph>
    <TTGlyph name="bn_aukaar" xMin="-5" yMin="-71" xMax="1204" yMax="944">
      <contour>
        <pt x="1127" y="484" on="1"/>
        <pt x="1127" y="355" on="0"/>
        <pt x="1118" y="82" on="0"/>
        <pt x="1109" y="-55" on="1"/>
        <pt x="1082" y="-55" on="0"/>
        <pt x="1023" y="-49" on="0"/>
        <pt x="1008" y="-45" on="1"/>
        <pt x="1026" y="59" on="0"/>
        <pt x="1044" y="291" on="0"/>
        <pt x="1045" y="431" on="1"/>
        <pt x="1042" y="466" on="0"/>
        <pt x="994" y="516" on="0"/>
        <pt x="952" y="524" on="1"/>
        <pt x="950" y="531" on="0"/>
        <pt x="947" y="554" on="0"/>
        <pt x="947" y="565" on="1"/>
        <pt x="947" y="576" on="0"/>
        <pt x="950" y="596" on="0"/>
        <pt x="952" y="601" on="1"/>
        <pt x="989" y="592" on="0"/>
        <pt x="1054" y="561" on="0"/>
        <pt x="1076" y="542" on="1"/>
        <pt x="1089" y="558" on="0"/>
        <pt x="1103" y="594" on="0"/>
        <pt x="1103" y="613" on="1"/>
        <pt x="1103" y="636" on="0"/>
        <pt x="1067" y="680" on="0"/>
        <pt x="1014" y="719" on="1"/>
        <pt x="1008" y="724" on="0"/>
        <pt x="941" y="772" on="0"/>
        <pt x="927" y="786" on="1"/>
        <pt x="906" y="807" on="0"/>
        <pt x="888" y="853" on="0"/>
        <pt x="888" y="885" on="1"/>
        <pt x="888" y="896" on="0"/>
        <pt x="891" y="921" on="0"/>
        <pt x="894" y="934" on="1"/>
        <pt x="909" y="939" on="0"/>
        <pt x="944" y="944" on="0"/>
        <pt x="962" y="943" on="1"/>
        <pt x="960" y="932" on="0"/>
        <pt x="958" y="911" on="0"/>
        <pt x="958" y="899" on="1"/>
        <pt x="958" y="877" on="0"/>
        <pt x="972" y="843" on="0"/>
        <pt x="987" y="828" on="1"/>
        <pt x="992" y="823" on="0"/>
        <pt x="1024" y="799" on="0"/>
        <pt x="1052" y="779" on="1"/>
        <pt x="1105" y="741" on="0"/>
        <pt x="1152" y="672" on="0"/>
        <pt x="1152" y="631" on="1"/>
        <pt x="1152" y="618" on="0"/>
        <pt x="1149" y="595" on="0"/>
        <pt x="1145" y="585" on="1"/>
        <pt x="1163" y="591" on="0"/>
        <pt x="1187" y="599" on="0"/>
        <pt x="1198" y="601" on="1"/>
        <pt x="1201" y="596" on="0"/>
        <pt x="1204" y="578" on="0"/>
        <pt x="1204" y="568" on="1"/>
        <pt x="1204" y="556" on="0"/>
        <pt x="1201" y="533" on="0"/>
        <pt x="1198" y="524" on="1"/>
        <pt x="1174" y="518" on="0"/>
        <pt x="1138" y="497" on="0"/>
      </contour>
      <contour>
        <pt x="335" y="-3" on="1"/>
        <pt x="314" y="-36" on="0"/>
        <pt x="258" y="-71" on="0"/>
        <pt x="225" y="-71" on="1"/>
        <pt x="151" y="-71" on="0"/>
        <pt x="63" y="92" on="0"/>
        <pt x="63" y="229" on="1"/>
        <pt x="63" y="305" on="0"/>
        <pt x="83" y="433" on="0"/>
        <pt x="102" y="480" on="1"/>
        <pt x="88" y="492" on="0"/>
        <pt x="36" y="515" on="0"/>
        <pt x="0" y="524" on="1"/>
        <pt x="-2" y="532" on="0"/>
        <pt x="-5" y="553" on="0"/>
        <pt x="-5" y="564" on="1"/>
        <pt x="-5" y="575" on="0"/>
        <pt x="-2" y="594" on="0"/>
        <pt x="0" y="601" on="1"/>
        <pt x="48" y="590" on="0"/>
        <pt x="125" y="559" on="0"/>
        <pt x="149" y="541" on="1"/>
        <pt x="168" y="561" on="0"/>
        <pt x="233" y="590" on="0"/>
        <pt x="282" y="601" on="1"/>
        <pt x="285" y="594" on="0"/>
        <pt x="288" y="577" on="0"/>
        <pt x="288" y="566" on="1"/>
        <pt x="288" y="553" on="0"/>
        <pt x="285" y="530" on="0"/>
        <pt x="282" y="524" on="1"/>
        <pt x="210" y="510" on="0"/>
        <pt x="152" y="377" on="0"/>
        <pt x="152" y="225" on="1"/>
        <pt x="152" y="108" on="0"/>
        <pt x="179" y="-7" on="0"/>
        <pt x="207" y="-7" on="1"/>
        <pt x="223" y="-7" on="0"/>
        <pt x="254" y="32" on="0"/>
        <pt x="279" y="81" on="1"/>
        <pt x="300" y="69" on="0"/>
        <pt x="335" y="16" on="0"/>
      </contour>
      <contour>
        <pt x="621" y="599" on="1"/>
        <pt x="641" y="599" on="0"/>
        <pt x="663" y="576" on="0"/>
        <pt x="663" y="556" on="1"/>
        <pt x="663" y="537" on="0"/>
        <pt x="641" y="515" on="0"/>
        <pt x="621" y="515" on="1"/>
        <pt x="602" y="515" on="0"/>
        <pt x="581" y="537" on="0"/>
        <pt x="581" y="556" on="1"/>
        <pt x="581" y="576" on="0"/>
        <pt x="602" y="599" on="0"/>
      </contour>
      <contour>
        <pt x="756" y="561" on="1"/>
        <pt x="775" y="561" on="0"/>
        <pt x="798" y="538" on="0"/>
        <pt x="798" y="519" on="1"/>
        <pt x="798" y="500" on="0"/>
        <pt x="775" y="478" on="0"/>
        <pt x="756" y="478" on="1"/>
        <pt x="737" y="478" on="0"/>
        <pt x="716" y="500" on="0"/>
        <pt x="716" y="519" on="1"/>
        <pt x="716" y="538" on="0"/>
        <pt x="738" y="561" on="0"/>
      </contour>
      <contour>
        <pt x="485" y="561" on="1"/>
        <pt x="504" y="561" on="0"/>
        <pt x="526" y="538" on="0"/>
        <pt x="526" y="519" on="1"/>
        <pt x="526" y="500" on="0"/>
        <pt x="504" y="478" on="0"/>
        <pt x="485" y="478" on="1"/>
        <pt x="467" y="478" on="0"/>
        <pt x="444" y="501" on="0"/>
        <pt x="444" y="519" on="1"/>
        <pt x="444" y="538" on="0"/>
        <pt x="467" y="561" on="0"/>
      </contour>
      <contour>
        <pt x="856" y="462" on="1"/>
        <pt x="875" y="462" on="0"/>
        <pt x="896" y="440" on="0"/>
        <pt x="896" y="421" on="1"/>
        <pt x="896" y="401" on="0"/>
        <pt x="874" y="378" on="0"/>
        <pt x="856" y="378" on="1"/>
        <pt x="838" y="378" on="0"/>
        <pt x="814" y="403" on="0"/>
        <pt x="814" y="421" on="1"/>
        <pt x="814" y="438" on="0"/>
        <pt x="838" y="462" on="0"/>
      </contour>
      <contour>
        <pt x="389" y="462" on="1"/>
        <pt x="407" y="462" on="0"/>
        <pt x="428" y="439" on="0"/>
        <pt x="428" y="420" on="1"/>
        <pt x="428" y="402" on="0"/>
        <pt x="406" y="378" on="0"/>
        <pt x="389" y="378" on="1"/>
        <pt x="371" y="378" on="0"/>
        <pt x="346" y="403" on="0"/>
        <pt x="346" y="421" on="1"/>
        <pt x="346" y="439" on="0"/>
        <pt x="370" y="462" on="0"/>
      </contour>
      <contour>
        <pt x="352" y="329" on="1"/>
        <pt x="372" y="329" on="0"/>
        <pt x="393" y="308" on="0"/>
        <pt x="393" y="288" on="1"/>
        <pt x="393" y="268" on="0"/>
        <pt x="371" y="246" on="0"/>
        <pt x="352" y="246" on="1"/>
        <pt x="333" y="246" on="0"/>
        <pt x="310" y="269" on="0"/>
        <pt x="310" y="288" on="1"/>
        <pt x="310" y="307" on="0"/>
        <pt x="333" y="329" on="0"/>
      </contour>
      <contour>
        <pt x="892" y="329" on="1"/>
        <pt x="912" y="329" on="0"/>
        <pt x="933" y="308" on="0"/>
        <pt x="933" y="288" on="1"/>
        <pt x="933" y="268" on="0"/>
        <pt x="911" y="246" on="0"/>
        <pt x="892" y="246" on="1"/>
        <pt x="874" y="246" on="0"/>
        <pt x="851" y="269" on="0"/>
        <pt x="851" y="288" on="1"/>
        <pt x="851" y="306" on="0"/>
        <pt x="874" y="329" on="0"/>
      </contour>
      <contour>
        <pt x="856" y="197" on="1"/>
        <pt x="875" y="197" on="0"/>
        <pt x="896" y="175" on="0"/>
        <pt x="896" y="155" on="1"/>
        <pt x="896" y="135" on="0"/>
        <pt x="874" y="112" on="0"/>
        <pt x="856" y="112" on="1"/>
        <pt x="838" y="112" on="0"/>
        <pt x="814" y="136" on="0"/>
        <pt x="814" y="155" on="1"/>
        <pt x="814" y="173" on="0"/>
        <pt x="838" y="197" on="0"/>
      </contour>
      <contour>
        <pt x="389" y="197" on="1"/>
        <pt x="407" y="197" on="0"/>
        <pt x="428" y="174" on="0"/>
        <pt x="428" y="155" on="1"/>
        <pt x="428" y="136" on="0"/>
        <pt x="406" y="112" on="0"/>
        <pt x="389" y="112" on="1"/>
        <pt x="370" y="112" on="0"/>
        <pt x="346" y="136" on="0"/>
        <pt x="346" y="155" on="1"/>
        <pt x="346" y="174" on="0"/>
        <pt x="370" y="197" on="0"/>
      </contour>
      <contour>
        <pt x="756" y="98" on="1"/>
        <pt x="775" y="98" on="0"/>
        <pt x="798" y="75" on="0"/>
        <pt x="798" y="55" on="1"/>
        <pt x="798" y="37" on="0"/>
        <pt x="775" y="15" on="0"/>
        <pt x="756" y="15" on="1"/>
        <pt x="738" y="15" on="0"/>
        <pt x="716" y="37" on="0"/>
        <pt x="716" y="55" on="1"/>
        <pt x="716" y="75" on="0"/>
        <pt x="738" y="98" on="0"/>
      </contour>
      <contour>
        <pt x="485" y="98" on="1"/>
        <pt x="504" y="98" on="0"/>
        <pt x="526" y="75" on="0"/>
        <pt x="526" y="55" on="1"/>
        <pt x="526" y="37" on="0"/>
        <pt x="504" y="15" on="0"/>
        <pt x="485" y="15" on="1"/>
        <pt x="467" y="15" on="0"/>
        <pt x="444" y="37" on="0"/>
        <pt x="444" y="55" on="1"/>
        <pt x="444" y="74" on="0"/>
        <pt x="467" y="98" on="0"/>
      </contour>
      <contour>
        <pt x="621" y="61" on="1"/>
        <pt x="641" y="61" on="0"/>
        <pt x="663" y="39" on="0"/>
        <pt x="663" y="19" on="1"/>
        <pt x="663" y="0" on="0"/>
        <pt x="640" y="-22" on="0"/>
        <pt x="621" y="-22" on="1"/>
        <pt x="602" y="-22" on="0"/>
        <pt x="581" y="0" on="0"/>
        <pt x="581" y="19" on="1"/>
        <pt x="581" y="39" on="0"/>
        <pt x="602" y="61" on="0"/>
      </contour>
    </TTGlyph>
    <TTGlyph name="bn_aumark" xMin="-64" yMin="-55" xMax="252" yMax="944">
      <contour>
        <pt x="175" y="484" on="1"/>
        <pt x="175" y="355" on="0"/>
        <pt x="166" y="82" on="0"/>
        <pt x="157" y="-55" on="1"/>
        <pt x="130" y="-55" on="0"/>
        <pt x="71" y="-49" on="0"/>
        <pt x="56" y="-45" on="1"/>
        <pt x="74" y="59" on="0"/>
        <pt x="92" y="291" on="0"/>
        <pt x="93" y="431" on="1"/>
        <pt x="90" y="466" on="0"/>
        <pt x="42" y="516" on="0"/>
        <pt x="0" y="524" on="1"/>
        <pt x="-2" y="531" on="0"/>
        <pt x="-5" y="554" on="0"/>
        <pt x="-5" y="565" on="1"/>
        <pt x="-5" y="576" on="0"/>
        <pt x="-2" y="596" on="0"/>
        <pt x="0" y="601" on="1"/>
        <pt x="37" y="592" on="0"/>
        <pt x="102" y="561" on="0"/>
        <pt x="124" y="542" on="1"/>
        <pt x="137" y="558" on="0"/>
        <pt x="151" y="594" on="0"/>
        <pt x="151" y="613" on="1"/>
        <pt x="151" y="636" on="0"/>
        <pt x="115" y="680" on="0"/>
        <pt x="62" y="719" on="1"/>
        <pt x="56" y="724" on="0"/>
        <pt x="-11" y="772" on="0"/>
        <pt x="-25" y="786" on="1"/>
        <pt x="-46" y="807" on="0"/>
        <pt x="-64" y="853" on="0"/>
        <pt x="-64" y="885" on="1"/>
        <pt x="-64" y="896" on="0"/>
        <pt x="-61" y="921" on="0"/>
        <pt x="-58" y="934" on="1"/>
        <pt x="-43" y="939" on="0"/>
        <pt x="-8" y="944" on="0"/>
        <pt x="10" y="943" on="1"/>
        <pt x="8" y="932" on="0"/>
        <pt x="6" y="911" on="0"/>
        <pt x="6" y="899" on="1"/>
        <pt x="6" y="877" on="0"/>
        <pt x="20" y="843" on="0"/>
        <pt x="35" y="828" on="1"/>
        <pt x="40" y="823" on="0"/>
        <pt x="72" y="799" on="0"/>
        <pt x="100" y="779" on="1"/>
        <pt x="153" y="741" on="0"/>
        <pt x="200" y="672" on="0"/>
        <pt x="200" y="631" on="1"/>
        <pt x="200" y="618" on="0"/>
        <pt x="197" y="595" on="0"/>
        <pt x="193" y="585" on="1"/>
        <pt x="211" y="591" on="0"/>
        <pt x="235" y="599" on="0"/>
        <pt x="246" y="601" on="1"/>
        <pt x="249" y="596" on="0"/>
        <pt x="252" y="578" on="0"/>
        <pt x="252" y="568" on="1"/>
        <pt x="252" y="556" on="0"/>
        <pt x="249" y="533" on="0"/>
        <pt x="246" y="524" on="1"/>
        <pt x="222" y="518" on="0"/>
        <pt x="186" y="497" on="0"/>
      </contour>
    </TTGlyph>
    <TTGlyph name="bn_aumark_reph" xMin="-64" yMin="-55" xMax="309" yMax="1016">
      <component glyphName="bn_aumark" x="0" y="0" flags="0x204"/>
      <component glyphName="bn_reph" x="136" y="0" flags="0x4"/>
    </TTGlyph>
    <TTGlyph name="bn_avagraha" xMin="23" yMin="-59" xMax="476" yMax="640">
      <contour>
        <pt x="127" y="464" on="1"/>
        <pt x="127" y="442" on="0"/>
        <pt x="161" y="414" on="0"/>
        <pt x="189" y="414" on="1"/>
        <pt x="216" y="414" on="0"/>
        <pt x="256" y="442" on="0"/>
        <pt x="268" y="470" on="1"/>
        <pt x="249" y="488" on="0"/>
        <pt x="205" y="507" on="0"/>
        <pt x="182" y="507" on="1"/>
        <pt x="156" y="507" on="0"/>
        <pt x="127" y="484" on="0"/>
      </contour>
      <contour>
        <pt x="476" y="-2" on="1"/>
        <pt x="465" y="-18" on="0"/>
        <pt x="439" y="-47" on="0"/>
        <pt x="426" y="-59" on="1"/>
        <pt x="334" y="38" on="0"/>
        <pt x="146" y="162" on="0"/>
        <pt x="43" y="194" on="1"/>
        <pt x="23" y="301" on="1"/>
        <pt x="69" y="283" on="0"/>
        <pt x="158" y="263" on="0"/>
        <pt x="196" y="263" on="1"/>
        <pt x="255" y="263" on="0"/>
        <pt x="317" y="312" on="0"/>
        <pt x="317" y="358" on="1"/>
        <pt x="317" y="373" on="0"/>
        <pt x="311" y="403" on="0"/>
        <pt x="305" y="416" on="1"/>
        <pt x="289" y="388" on="0"/>
        <pt x="237" y="360" on="0"/>
        <pt x="202" y="360" on="1"/>
        <pt x="143" y="360" on="0"/>
        <pt x="63" y="424" on="0"/>
        <pt x="63" y="475" on="1"/>
        <pt x="63" y="518" on="0"/>
        <pt x="122" y="568" on="0"/>
        <pt x="171" y="568" on="1"/>
        <pt x="200" y="568" on="0"/>
        <pt x="259" y="548" on="0"/>
        <pt x="287" y="529" on="1"/>
        <pt x="295" y="556" on="0"/>
        <pt x="306" y="612" on="0"/>
        <pt x="309" y="640" on="1"/>
        <pt x="328" y="639" on="0"/>
        <pt x="364" y="628" on="0"/>
        <pt x="377" y="620" on="1"/>
        <pt x="370" y="575" on="0"/>
        <pt x="354" y="508" on="0"/>
        <pt x="342" y="476" on="1"/>
        <pt x="368" y="443" on="0"/>
        <pt x="396" y="367" on="0"/>
        <pt x="396" y="330" on="1"/>
        <pt x="396" y="265" on="0"/>
        <pt x="312" y="187" on="0"/>
        <pt x="237" y="181" on="1"/>
        <pt x="297" y="145" on="0"/>
        <pt x="417" y="54" on="0"/>
      </contour>
    </TTGlyph>
    <TTGlyph name="bn_b_ba" xMin="-7" yMin="-23" xMax="845" yMax="643">
      <contour>
        <pt x="705" y="546" on="1"/>
        <pt x="640" y="554" on="0"/>
        <pt x="508" y="562" on="0"/>
        <pt x="442" y="562" on="1"/>
        <pt x="435" y="562" on="0"/>
        <pt x="421" y="562" on="0"/>
        <pt x="414" y="562" on="1"/>
        <pt x="404" y="496" on="0"/>
        <pt x="396" y="378" on="0"/>
        <pt x="396" y="304" on="1"/>
        <pt x="447" y="360" on="0"/>
        <pt x="610" y="470" on="0"/>
        <pt x="698" y="507" on="1"/>
        <pt x="699" y="510" on="0"/>
        <pt x="700" y="518" on="0"/>
        <pt x="702" y="527" on="1"/>
        <pt x="703" y="535" on="0"/>
        <pt x="704" y="543" on="0"/>
      </contour>
      <contour>
        <pt x="754" y="295" on="1"/>
        <pt x="754" y="198" on="0"/>
        <pt x="768" y="44" on="0"/>
        <pt x="782" y="-4" on="1"/>
        <pt x="766" y="-13" on="0"/>
        <pt x="716" y="-23" on="0"/>
        <pt x="688" y="-23" on="1"/>
        <pt x="640" y="68" on="0"/>
        <pt x="510" y="177" on="0"/>
        <pt x="428" y="194" on="1"/>
        <pt x="418" y="207" on="0"/>
        <pt x="402" y="234" on="0"/>
        <pt x="396" y="252" on="1"/>
        <pt x="398" y="162" on="0"/>
        <pt x="411" y="36" on="0"/>
        <pt x="423" y="-4" on="1"/>
        <pt x="407" y="-13" on="0"/>
        <pt x="358" y="-23" on="0"/>
        <pt x="330" y="-23" on="1"/>
        <pt x="281" y="69" on="0"/>
        <pt x="151" y="177" on="0"/>
        <pt x="70" y="194" on="1"/>
        <pt x="50" y="219" on="0"/>
        <pt x="32" y="267" on="0"/>
        <pt x="30" y="295" on="1"/>
        <pt x="79" y="353" on="0"/>
        <pt x="246" y="467" on="0"/>
        <pt x="338" y="506" on="1"/>
        <pt x="340" y="520" on="0"/>
        <pt x="345" y="547" on="0"/>
        <pt x="347" y="560" on="1"/>
        <pt x="251" y="557" on="0"/>
        <pt x="71" y="538" on="0"/>
        <pt x="0" y="524" on="1"/>
        <pt x="-3" y="532" on="0"/>
        <pt x="-7" y="555" on="0"/>
        <pt x="-7" y="566" on="1"/>
        <pt x="-7" y="577" on="0"/>
        <pt x="-3" y="595" on="0"/>
        <pt x="0" y="601" on="1"/>
        <pt x="80" y="621" on="0"/>
        <pt x="312" y="643" on="0"/>
        <pt x="441" y="643" on="1"/>
        <pt x="548" y="643" on="0"/>
        <pt x="754" y="621" on="0"/>
        <pt x="839" y="601" on="1"/>
        <pt x="842" y="596" on="0"/>
        <pt x="845" y="577" on="0"/>
        <pt x="845" y="566" on="1"/>
        <pt x="845" y="555" on="0"/>
        <pt x="842" y="532" on="0"/>
        <pt x="839" y="524" on="1"/>
        <pt x="825" y="527" on="0"/>
        <pt x="791" y="533" on="0"/>
        <pt x="771" y="536" on="1"/>
        <pt x="762" y="474" on="0"/>
        <pt x="754" y="363" on="0"/>
      </contour>
      <contour>
        <pt x="675" y="84" on="1"/>
        <pt x="674" y="109" on="0"/>
        <pt x="673" y="147" on="0"/>
        <pt x="673" y="166" on="1"/>
        <pt x="673" y="234" on="0"/>
        <pt x="678" y="346" on="0"/>
        <pt x="684" y="397" on="1"/>
        <pt x="631" y="371" on="0"/>
        <pt x="522" y="295" on="0"/>
        <pt x="483" y="257" on="1"/>
        <pt x="543" y="228" on="0"/>
        <pt x="641" y="141" on="0"/>
      </contour>
      <contour>
        <pt x="316" y="84" on="1"/>
        <pt x="315" y="109" on="0"/>
        <pt x="314" y="147" on="0"/>
        <pt x="314" y="166" on="1"/>
        <pt x="314" y="232" on="0"/>
        <pt x="319" y="344" on="0"/>
        <pt x="324" y="396" on="1"/>
        <pt x="273" y="371" on="0"/>
        <pt x="165" y="296" on="0"/>
        <pt x="125" y="257" on="1"/>
        <pt x="187" y="227" on="0"/>
        <pt x="283" y="140" on="0"/>
      </contour>
    </TTGlyph>
    <TTGlyph name="bn_b_bha" xMin="-7" yMin="-260" xMax="621" yMax="632">
      <contour>
        <pt x="422" y="178" on="1"/>
        <pt x="422" y="186" on="0"/>
        <pt x="422" y="202" on="0"/>
        <pt x="422" y="210" on="1"/>
        <pt x="422" y="276" on="0"/>
        <pt x="428" y="393" on="0"/>
        <pt x="434" y="452" on="1"/>
        <pt x="378" y="426" on="0"/>
        <pt x="271" y="363" on="0"/>
        <pt x="232" y="331" on="1"/>
        <pt x="291" y="305" on="0"/>
        <pt x="385" y="229" on="0"/>
      </contour>
      <contour>
        <pt x="584" y="-71" on="1"/>
        <pt x="584" y="-157" on="0"/>
        <pt x="472" y="-260" on="0"/>
        <pt x="377" y="-260" on="1"/>
        <pt x="251" y="-260" on="0"/>
        <pt x="66" y="-56" on="0"/>
        <pt x="22" y="124" on="1"/>
        <pt x="34" y="131" on="0"/>
        <pt x="64" y="143" on="0"/>
        <pt x="86" y="151" on="1"/>
        <pt x="132" y="-12" on="0"/>
        <pt x="281" y="-182" on="0"/>
        <pt x="379" y="-182" on="1"/>
        <pt x="447" y="-182" on="0"/>
        <pt x="518" y="-113" on="0"/>
        <pt x="518" y="-48" on="1"/>
        <pt x="518" y="-33" on="0"/>
        <pt x="513" y="1" on="0"/>
        <pt x="509" y="20" on="1"/>
        <pt x="465" y="-14" on="0"/>
        <pt x="391" y="-45" on="0"/>
        <pt x="354" y="-45" on="1"/>
        <pt x="294" y="-45" on="0"/>
        <pt x="209" y="19" on="0"/>
        <pt x="209" y="65" on="1"/>
        <pt x="209" y="100" on="0"/>
        <pt x="262" y="155" on="0"/>
        <pt x="304" y="167" on="1"/>
        <pt x="322" y="163" on="0"/>
        <pt x="355" y="137" on="0"/>
        <pt x="362" y="121" on="1"/>
        <pt x="324" y="114" on="0"/>
        <pt x="275" y="76" on="0"/>
        <pt x="275" y="53" on="1"/>
        <pt x="275" y="37" on="0"/>
        <pt x="303" y="18" on="0"/>
        <pt x="327" y="18" on="1"/>
        <pt x="348" y="18" on="0"/>
        <pt x="396" y="36" on="0"/>
        <pt x="427" y="55" on="1"/>
        <pt x="426" y="69" on="0"/>
        <pt x="425" y="83" on="0"/>
        <pt x="424" y="89" on="1"/>
        <pt x="378" y="169" on="0"/>
        <pt x="250" y="262" on="0"/>
        <pt x="169" y="274" on="1"/>
        <pt x="152" y="295" on="0"/>
        <pt x="137" y="333" on="0"/>
        <pt x="135" y="357" on="1"/>
        <pt x="181" y="403" on="0"/>
        <pt x="346" y="504" on="0"/>
        <pt x="442" y="546" on="1"/>
        <pt x="407" y="548" on="0"/>
        <pt x="339" y="551" on="0"/>
        <pt x="306" y="551" on="1"/>
        <pt x="226" y="551" on="0"/>
        <pt x="71" y="537" on="0"/>
        <pt x="0" y="524" on="1"/>
        <pt x="-3" y="531" on="0"/>
        <pt x="-7" y="554" on="0"/>
        <pt x="-7" y="566" on="1"/>
        <pt x="-7" y="576" on="0"/>
        <pt x="-3" y="595" on="0"/>
        <pt x="0" y="601" on="1"/>
        <pt x="64" y="616" on="0"/>
        <pt x="221" y="632" on="0"/>
        <pt x="306" y="632" on="1"/>
        <pt x="389" y="632" on="0"/>
        <pt x="548" y="616" on="0"/>
        <pt x="614" y="601" on="1"/>
        <pt x="617" y="596" on="0"/>
        <pt x="621" y="577" on="0"/>
        <pt x="621" y="565" on="1"/>
        <pt x="621" y="554" on="0"/>
        <pt x="617" y="532" on="0"/>
        <pt x="614" y="524" on="1"/>
        <pt x="594" y="528" on="0"/>
        <pt x="545" y="535" on="0"/>
        <pt x="516" y="539" on="1"/>
        <pt x="508" y="485" on="0"/>
        <pt x="501" y="384" on="0"/>
        <pt x="501" y="317" on="1"/>
        <pt x="501" y="186" on="0"/>
        <pt x="504" y="122" on="0"/>
        <pt x="507" y="97" on="1"/>
        <pt x="519" y="90" on="0"/>
        <pt x="541" y="74" on="0"/>
        <pt x="550" y="67" on="1"/>
        <pt x="566" y="36" on="0"/>
        <pt x="584" y="-36" on="0"/>
      </contour>
    </TTGlyph>
    <TTGlyph name="bn_b_da" xMin="-7" yMin="-65" xMax="644" yMax="635">
      <contour>
        <pt x="578" y="144" on="1"/>
        <pt x="578" y="99" on="0"/>
        <pt x="589" y="5" on="0"/>
        <pt x="599" y="-43" on="1"/>
        <pt x="585" y="-51" on="0"/>
        <pt x="540" y="-63" on="0"/>
        <pt x="521" y="-65" on="1"/>
        <pt x="512" y="-25" on="0"/>
        <pt x="502" y="64" on="0"/>
        <pt x="502" y="110" on="1"/>
        <pt x="502" y="164" on="0"/>
        <pt x="515" y="273" on="0"/>
        <pt x="528" y="322" on="1"/>
        <pt x="472" y="280" on="0"/>
        <pt x="368" y="166" on="0"/>
        <pt x="336" y="110" on="1"/>
        <pt x="319" y="113" on="0"/>
        <pt x="275" y="135" on="0"/>
        <pt x="259" y="149" on="1"/>
        <pt x="241" y="213" on="0"/>
        <pt x="151" y="292" on="0"/>
        <pt x="80" y="307" on="1"/>
        <pt x="64" y="326" on="0"/>
        <pt x="47" y="367" on="0"/>
        <pt x="46" y="389" on="1"/>
        <pt x="84" y="421" on="0"/>
        <pt x="232" y="500" on="0"/>
        <pt x="327" y="539" on="1"/>
        <pt x="327" y="542" on="0"/>
        <pt x="328" y="552" on="0"/>
        <pt x="328" y="554" on="1"/>
        <pt x="325" y="554" on="0"/>
        <pt x="318" y="554" on="0"/>
        <pt x="315" y="554" on="1"/>
        <pt x="231" y="554" on="0"/>
        <pt x="69" y="539" on="0"/>
        <pt x="0" y="524" on="1"/>
        <pt x="-3" y="531" on="0"/>
        <pt x="-7" y="554" on="0"/>
        <pt x="-7" y="565" on="1"/>
        <pt x="-7" y="575" on="0"/>
        <pt x="-3" y="596" on="0"/>
        <pt x="0" y="601" on="1"/>
        <pt x="64" y="617" on="0"/>
        <pt x="229" y="635" on="0"/>
        <pt x="317" y="635" on="1"/>
        <pt x="407" y="635" on="0"/>
        <pt x="577" y="617" on="0"/>
        <pt x="638" y="601" on="1"/>
        <pt x="641" y="594" on="0"/>
        <pt x="644" y="575" on="0"/>
        <pt x="644" y="564" on="1"/>
        <pt x="644" y="555" on="0"/>
        <pt x="641" y="533" on="0"/>
        <pt x="638" y="524" on="1"/>
        <pt x="585" y="535" on="0"/>
        <pt x="457" y="549" on="0"/>
        <pt x="392" y="552" on="1"/>
        <pt x="392" y="544" on="0"/>
        <pt x="392" y="527" on="0"/>
        <pt x="392" y="518" on="1"/>
        <pt x="392" y="460" on="0"/>
        <pt x="382" y="338" on="0"/>
        <pt x="373" y="284" on="1"/>
        <pt x="412" y="329" on="0"/>
        <pt x="496" y="402" on="0"/>
        <pt x="541" y="429" on="1"/>
        <pt x="560" y="421" on="0"/>
        <pt x="591" y="392" on="0"/>
        <pt x="611" y="364" on="1"/>
        <pt x="594" y="310" on="0"/>
        <pt x="578" y="201" on="0"/>
      </contour>
      <contour>
        <pt x="142" y="359" on="1"/>
        <pt x="190" y="332" on="0"/>
        <pt x="258" y="258" on="0"/>
        <pt x="277" y="213" on="1"/>
        <pt x="292" y="272" on="0"/>
        <pt x="314" y="393" on="0"/>
        <pt x="320" y="451" on="1"/>
        <pt x="257" y="422" on="0"/>
        <pt x="172" y="378" on="0"/>
      </contour>
    </TTGlyph>
    <TTGlyph name="bn_b_da_ukaar" xMin="-7" yMin="-23" xMax="667" yMax="637">
      <contour>
        <pt x="316" y="84" on="1"/>
        <pt x="315" y="109" on="0"/>
        <pt x="314" y="147" on="0"/>
        <pt x="314" y="166" on="1"/>
        <pt x="314" y="234" on="0"/>
        <pt x="319" y="346" on="0"/>
        <pt x="325" y="397" on="1"/>
        <pt x="272" y="370" on="0"/>
        <pt x="164" y="295" on="0"/>
        <pt x="125" y="257" on="1"/>
        <pt x="187" y="227" on="0"/>
        <pt x="283" y="140" on="0"/>
      </contour>
      <contour>
        <pt x="397" y="228" on="1"/>
        <pt x="399" y="153" on="0"/>
        <pt x="412" y="35" on="0"/>
        <pt x="423" y="-4" on="1"/>
        <pt x="407" y="-13" on="0"/>
        <pt x="358" y="-23" on="0"/>
        <pt x="330" y="-23" on="1"/>
        <pt x="281" y="69" on="0"/>
        <pt x="151" y="177" on="0"/>
        <pt x="70" y="194" on="1"/>
        <pt x="50" y="219" on="0"/>
        <pt x="32" y="267" on="0"/>
        <pt x="30" y="295" on="1"/>
        <pt x="81" y="354" on="0"/>
        <pt x="248" y="469" on="0"/>
        <pt x="339" y="507" on="1"/>
        <pt x="343" y="527" on="0"/>
        <pt x="346" y="547" on="0"/>
        <pt x="348" y="556" on="1"/>
        <pt x="340" y="556" on="0"/>
        <pt x="323" y="556" on="0"/>
        <pt x="314" y="556" on="1"/>
        <pt x="237" y="556" on="0"/>
        <pt x="69" y="538" on="0"/>
        <pt x="0" y="524" on="1"/>
        <pt x="-3" y="532" on="0"/>
        <pt x="-7" y="555" on="0"/>
        <pt x="-7" y="565" on="1"/>
        <pt x="-7" y="574" on="0"/>
        <pt x="-3" y="595" on="0"/>
        <pt x="0" y="601" on="1"/>
        <pt x="65" y="617" on="0"/>
        <pt x="237" y="637" on="0"/>
        <pt x="316" y="637" on="1"/>
        <pt x="405" y="637" on="0"/>
        <pt x="597" y="617" on="0"/>
        <pt x="660" y="601" on="1"/>
        <pt x="663" y="595" on="0"/>
        <pt x="667" y="575" on="0"/>
        <pt x="667" y="565" on="1"/>
        <pt x="667" y="555" on="0"/>
        <pt x="663" y="532" on="0"/>
        <pt x="660" y="524" on="1"/>
        <pt x="617" y="534" on="0"/>
        <pt x="487" y="549" on="0"/>
        <pt x="415" y="553" on="1"/>
        <pt x="405" y="490" on="0"/>
        <pt x="397" y="385" on="0"/>
        <pt x="396" y="325" on="1"/>
        <pt x="410" y="279" on="0"/>
        <pt x="469" y="225" on="0"/>
        <pt x="503" y="225" on="1"/>
        <pt x="535" y="225" on="0"/>
        <pt x="578" y="277" on="0"/>
        <pt x="578" y="317" on="1"/>
        <pt x="578" y="347" on="0"/>
        <pt x="554" y="382" on="0"/>
        <pt x="535" y="382" on="1"/>
        <pt x="518" y="382" on="0"/>
        <pt x="487" y="347" on="0"/>
        <pt x="478" y="318" on="1"/>
        <pt x="467" y="336" on="0"/>
        <pt x="450" y="388" on="0"/>
        <pt x="449" y="412" on="1"/>
        <pt x="461" y="436" on="0"/>
        <pt x="501" y="462" on="0"/>
        <pt x="527" y="462" on="1"/>
        <pt x="576" y="462" on="0"/>
        <pt x="639" y="375" on="0"/>
        <pt x="639" y="304" on="1"/>
        <pt x="639" y="229" on="0"/>
        <pt x="572" y="135" on="0"/>
        <pt x="518" y="135" on="1"/>
        <pt x="480" y="135" on="0"/>
        <pt x="419" y="182" on="0"/>
      </contour>
    </TTGlyph>
    <TTGlyph name="bn_b_da_uukaar" xMin="-7" yMin="-23" xMax="667" yMax="637">
      <contour>
        <pt x="316" y="84" on="1"/>
        <pt x="315" y="109" on="0"/>
        <pt x="314" y="147" on="0"/>
        <pt x="314" y="166" on="1"/>
        <pt x="314" y="234" on="0"/>
        <pt x="319" y="346" on="0"/>
        <pt x="325" y="397" on="1"/>
        <pt x="272" y="370" on="0"/>
        <pt x="164" y="295" on="0"/>
        <pt x="125" y="257" on="1"/>
        <pt x="187" y="227" on="0"/>
        <pt x="283" y="140" on="0"/>
      </contour>
      <contour>
        <pt x="396" y="295" on="1"/>
        <pt x="396" y="194" on="0"/>
        <pt x="410" y="43" on="0"/>
        <pt x="423" y="-4" on="1"/>
        <pt x="407" y="-13" on="0"/>
        <pt x="358" y="-23" on="0"/>
        <pt x="330" y="-23" on="1"/>
        <pt x="281" y="69" on="0"/>
        <pt x="151" y="177" on="0"/>
        <pt x="70" y="194" on="1"/>
        <pt x="50" y="219" on="0"/>
        <pt x="32" y="267" on="0"/>
        <pt x="30" y="295" on="1"/>
        <pt x="81" y="354" on="0"/>
        <pt x="248" y="469" on="0"/>
        <pt x="339" y="507" on="1"/>
        <pt x="343" y="527" on="0"/>
        <pt x="346" y="547" on="0"/>
        <pt x="348" y="556" on="1"/>
        <pt x="340" y="556" on="0"/>
        <pt x="323" y="556" on="0"/>
        <pt x="314" y="556" on="1"/>
        <pt x="237" y="556" on="0"/>
        <pt x="69" y="538" on="0"/>
        <pt x="0" y="524" on="1"/>
        <pt x="-3" y="532" on="0"/>
        <pt x="-7" y="555" on="0"/>
        <pt x="-7" y="565" on="1"/>
        <pt x="-7" y="574" on="0"/>
        <pt x="-3" y="595" on="0"/>
        <pt x="0" y="601" on="1"/>
        <pt x="65" y="617" on="0"/>
        <pt x="237" y="637" on="0"/>
        <pt x="316" y="637" on="1"/>
        <pt x="405" y="637" on="0"/>
        <pt x="597" y="617" on="0"/>
        <pt x="660" y="601" on="1"/>
        <pt x="663" y="595" on="0"/>
        <pt x="667" y="575" on="0"/>
        <pt x="667" y="565" on="1"/>
        <pt x="667" y="555" on="0"/>
        <pt x="663" y="532" on="0"/>
        <pt x="660" y="524" on="1"/>
        <pt x="617" y="534" on="0"/>
        <pt x="487" y="549" on="0"/>
        <pt x="415" y="553" on="1"/>
        <pt x="409" y="514" on="0"/>
        <pt x="402" y="445" on="0"/>
        <pt x="400" y="412" on="1"/>
        <pt x="441" y="431" on="0"/>
        <pt x="508" y="459" on="0"/>
        <pt x="538" y="469" on="1"/>
        <pt x="582" y="405" on="1"/>
        <pt x="575" y="366" on="0"/>
        <pt x="569" y="317" on="0"/>
        <pt x="569" y="296" on="1"/>
        <pt x="569" y="243" on="0"/>
        <pt x="587" y="150" on="0"/>
        <pt x="605" y="107" on="1"/>
        <pt x="591" y="101" on="0"/>
        <pt x="548" y="94" on="0"/>
        <pt x="523" y="94" on="1"/>
        <pt x="511" y="135" on="0"/>
        <pt x="500" y="225" on="0"/>
        <pt x="500" y="276" on="1"/>
        <pt x="500" y="298" on="0"/>
        <pt x="504" y="345" on="0"/>
        <pt x="508" y="372" on="1"/>
        <pt x="489" y="365" on="0"/>
        <pt x="443" y="345" on="0"/>
        <pt x="396" y="324" on="1"/>
        <pt x="396" y="317" on="0"/>
        <pt x="396" y="302" on="0"/>
      </contour>
    </TTGlyph>
    <TTGlyph name="bn_b_dha" xMin="-7" yMin="-124" xMax="609" yMax="635">
      <contour>
        <pt x="348" y="307" on="1"/>
        <pt x="348" y="313" on="0"/>
        <pt x="348" y="326" on="0"/>
        <pt x="348" y="332" on="1"/>
        <pt x="348" y="351" on="0"/>
        <pt x="347" y="395" on="0"/>
        <pt x="346" y="431" on="1"/>
        <pt x="302" y="415" on="0"/>
        <pt x="183" y="343" on="0"/>
        <pt x="141" y="305" on="1"/>
        <pt x="189" y="286" on="0"/>
        <pt x="229" y="267" on="0"/>
        <pt x="245" y="256" on="1"/>
        <pt x="269" y="269" on="0"/>
        <pt x="320" y="295" on="0"/>
      </contour>
      <contour>
        <pt x="504" y="-113" on="1"/>
        <pt x="492" y="-55" on="0"/>
        <pt x="480" y="70" on="0"/>
        <pt x="480" y="135" on="1"/>
        <pt x="480" y="174" on="0"/>
        <pt x="483" y="245" on="0"/>
        <pt x="487" y="280" on="1"/>
        <pt x="467" y="273" on="0"/>
        <pt x="430" y="258" on="0"/>
        <pt x="413" y="250" on="1"/>
        <pt x="409" y="134" on="0"/>
        <pt x="382" y="-71" on="0"/>
        <pt x="363" y="-124" on="1"/>
        <pt x="341" y="-124" on="0"/>
        <pt x="292" y="-116" on="0"/>
        <pt x="276" y="-110" on="1"/>
        <pt x="250" y="-41" on="0"/>
        <pt x="167" y="44" on="0"/>
        <pt x="110" y="61" on="1"/>
        <pt x="94" y="80" on="0"/>
        <pt x="78" y="120" on="0"/>
        <pt x="77" y="143" on="1"/>
        <pt x="97" y="161" on="0"/>
        <pt x="155" y="202" on="0"/>
        <pt x="191" y="224" on="1"/>
        <pt x="169" y="234" on="0"/>
        <pt x="87" y="253" on="0"/>
        <pt x="86" y="253" on="1"/>
        <pt x="70" y="274" on="0"/>
        <pt x="54" y="313" on="0"/>
        <pt x="52" y="337" on="1"/>
        <pt x="91" y="379" on="0"/>
        <pt x="256" y="484" on="0"/>
        <pt x="337" y="519" on="1"/>
        <pt x="335" y="534" on="0"/>
        <pt x="332" y="548" on="0"/>
        <pt x="330" y="554" on="1"/>
        <pt x="322" y="554" on="0"/>
        <pt x="306" y="554" on="0"/>
        <pt x="298" y="554" on="1"/>
        <pt x="222" y="554" on="0"/>
        <pt x="71" y="539" on="0"/>
        <pt x="0" y="524" on="1"/>
        <pt x="-3" y="531" on="0"/>
        <pt x="-7" y="554" on="0"/>
        <pt x="-7" y="565" on="1"/>
        <pt x="-7" y="575" on="0"/>
        <pt x="-3" y="596" on="0"/>
        <pt x="0" y="601" on="1"/>
        <pt x="69" y="617" on="0"/>
        <pt x="223" y="635" on="0"/>
        <pt x="300" y="635" on="1"/>
        <pt x="379" y="635" on="0"/>
        <pt x="539" y="617" on="0"/>
        <pt x="603" y="601" on="1"/>
        <pt x="606" y="594" on="0"/>
        <pt x="609" y="575" on="0"/>
        <pt x="609" y="564" on="1"/>
        <pt x="609" y="555" on="0"/>
        <pt x="606" y="533" on="0"/>
        <pt x="603" y="524" on="1"/>
        <pt x="558" y="534" on="0"/>
        <pt x="453" y="547" on="0"/>
        <pt x="397" y="551" on="1"/>
        <pt x="405" y="512" on="0"/>
        <pt x="415" y="394" on="0"/>
        <pt x="415" y="338" on="1"/>
        <pt x="441" y="349" on="0"/>
        <pt x="487" y="366" on="0"/>
        <pt x="508" y="373" on="1"/>
        <pt x="559" y="307" on="1"/>
        <pt x="554" y="266" on="0"/>
        <pt x="549" y="195" on="0"/>
        <pt x="549" y="163" on="1"/>
        <pt x="549" y="92" on="0"/>
        <pt x="567" y="-36" on="0"/>
        <pt x="586" y="-95" on="1"/>
        <pt x="572" y="-103" on="0"/>
        <pt x="528" y="-113" on="0"/>
      </contour>
      <contour>
        <pt x="165" y="109" on="1"/>
        <pt x="210" y="82" on="0"/>
        <pt x="277" y="1" on="0"/>
        <pt x="296" y="-50" on="1"/>
        <pt x="312" y="5" on="0"/>
        <pt x="337" y="145" on="0"/>
        <pt x="343" y="219" on="1"/>
        <pt x="297" y="195" on="0"/>
        <pt x="202" y="136" on="0"/>
      </contour>
    </TTGlyph>
    <TTGlyph name="bn_b_ja" xMin="-7" yMin="-18" xMax="712" yMax="639">
      <contour>
        <pt x="187" y="358" on="1"/>
        <pt x="186" y="361" on="0"/>
        <pt x="186" y="369" on="0"/>
        <pt x="186" y="377" on="1"/>
        <pt x="186" y="395" on="0"/>
        <pt x="195" y="441" on="0"/>
        <pt x="203" y="467" on="1"/>
        <pt x="171" y="454" on="0"/>
        <pt x="113" y="426" on="0"/>
        <pt x="89" y="413" on="1"/>
        <pt x="114" y="404" on="0"/>
        <pt x="163" y="377" on="0"/>
      </contour>
      <contour>
        <pt x="658" y="-3" on="1"/>
        <pt x="644" y="-9" on="0"/>
        <pt x="592" y="-18" on="0"/>
        <pt x="574" y="-18" on="1"/>
        <pt x="564" y="22" on="0"/>
        <pt x="553" y="116" on="0"/>
        <pt x="553" y="166" on="1"/>
        <pt x="553" y="222" on="0"/>
        <pt x="570" y="338" on="0"/>
        <pt x="586" y="388" on="1"/>
        <pt x="576" y="385" on="0"/>
        <pt x="556" y="383" on="0"/>
        <pt x="546" y="383" on="1"/>
        <pt x="475" y="383" on="0"/>
        <pt x="360" y="473" on="0"/>
        <pt x="332" y="550" on="1"/>
        <pt x="300" y="506" on="0"/>
        <pt x="253" y="392" on="0"/>
        <pt x="253" y="357" on="1"/>
        <pt x="253" y="335" on="0"/>
        <pt x="274" y="312" on="0"/>
        <pt x="293" y="312" on="1"/>
        <pt x="316" y="312" on="0"/>
        <pt x="382" y="353" on="0"/>
        <pt x="413" y="386" on="1"/>
        <pt x="428" y="379" on="0"/>
        <pt x="464" y="355" on="0"/>
        <pt x="478" y="342" on="1"/>
        <pt x="488" y="309" on="0"/>
        <pt x="499" y="238" on="0"/>
        <pt x="499" y="203" on="1"/>
        <pt x="499" y="101" on="0"/>
        <pt x="406" y="-15" on="0"/>
        <pt x="323" y="-15" on="1"/>
        <pt x="221" y="-15" on="0"/>
        <pt x="78" y="137" on="0"/>
        <pt x="46" y="276" on="1"/>
        <pt x="60" y="285" on="0"/>
        <pt x="92" y="300" on="0"/>
        <pt x="109" y="305" on="1"/>
        <pt x="137" y="193" on="0"/>
        <pt x="249" y="75" on="0"/>
        <pt x="326" y="75" on="1"/>
        <pt x="382" y="75" on="0"/>
        <pt x="438" y="153" on="0"/>
        <pt x="438" y="231" on="1"/>
        <pt x="438" y="246" on="0"/>
        <pt x="436" y="275" on="0"/>
        <pt x="435" y="288" on="1"/>
        <pt x="400" y="260" on="0"/>
        <pt x="341" y="235" on="0"/>
        <pt x="315" y="235" on="1"/>
        <pt x="289" y="235" on="0"/>
        <pt x="238" y="259" on="0"/>
        <pt x="220" y="280" on="1"/>
        <pt x="186" y="316" on="0"/>
        <pt x="97" y="352" on="0"/>
        <pt x="30" y="357" on="1"/>
        <pt x="20" y="374" on="0"/>
        <pt x="9" y="413" on="0"/>
        <pt x="8" y="436" on="1"/>
        <pt x="37" y="461" on="0"/>
        <pt x="151" y="519" on="0"/>
        <pt x="237" y="554" on="1"/>
        <pt x="175" y="551" on="0"/>
        <pt x="52" y="535" on="0"/>
        <pt x="0" y="524" on="1"/>
        <pt x="-3" y="532" on="0"/>
        <pt x="-7" y="556" on="0"/>
        <pt x="-7" y="568" on="1"/>
        <pt x="-7" y="577" on="0"/>
        <pt x="-3" y="594" on="0"/>
        <pt x="0" y="601" on="1"/>
        <pt x="68" y="618" on="0"/>
        <pt x="260" y="639" on="0"/>
        <pt x="354" y="639" on="1"/>
        <pt x="449" y="639" on="0"/>
        <pt x="642" y="618" on="0"/>
        <pt x="706" y="601" on="1"/>
        <pt x="709" y="595" on="0"/>
        <pt x="712" y="579" on="0"/>
        <pt x="712" y="566" on="1"/>
        <pt x="712" y="553" on="0"/>
        <pt x="709" y="531" on="0"/>
        <pt x="706" y="524" on="1"/>
        <pt x="637" y="538" on="0"/>
        <pt x="469" y="556" on="0"/>
        <pt x="389" y="558" on="1"/>
        <pt x="413" y="509" on="0"/>
        <pt x="477" y="464" on="0"/>
        <pt x="523" y="464" on="1"/>
        <pt x="546" y="464" on="0"/>
        <pt x="590" y="475" on="0"/>
        <pt x="611" y="486" on="1"/>
        <pt x="628" y="474" on="0"/>
        <pt x="656" y="436" on="0"/>
        <pt x="664" y="413" on="1"/>
        <pt x="648" y="364" on="0"/>
        <pt x="631" y="259" on="0"/>
        <pt x="631" y="204" on="1"/>
        <pt x="631" y="153" on="0"/>
        <pt x="645" y="48" on="0"/>
      </contour>
    </TTGlyph>
    <TTGlyph name="bn_b_la" xMin="-23" yMin="-237" xMax="487" yMax="631">
      <contour>
        <pt x="313" y="104" on="1"/>
        <pt x="313" y="120" on="0"/>
        <pt x="313" y="153" on="0"/>
        <pt x="313" y="169" on="1"/>
        <pt x="313" y="236" on="0"/>
        <pt x="316" y="346" on="0"/>
        <pt x="320" y="399" on="1"/>
        <pt x="272" y="376" on="0"/>
        <pt x="170" y="305" on="0"/>
        <pt x="133" y="269" on="1"/>
        <pt x="196" y="238" on="0"/>
        <pt x="286" y="155" on="0"/>
      </contour>
      <contour>
        <pt x="123" y="-165" on="1"/>
        <pt x="134" y="-165" on="0"/>
        <pt x="156" y="-163" on="0"/>
        <pt x="165" y="-161" on="1"/>
        <pt x="165" y="-180" on="0"/>
        <pt x="153" y="-223" on="0"/>
        <pt x="143" y="-237" on="1"/>
        <pt x="71" y="-237" on="0"/>
        <pt x="-23" y="-153" on="0"/>
        <pt x="-23" y="-88" on="1"/>
        <pt x="-23" y="-30" on="0"/>
        <pt x="35" y="44" on="0"/>
        <pt x="81" y="44" on="1"/>
        <pt x="106" y="44" on="0"/>
        <pt x="151" y="13" on="0"/>
        <pt x="171" y="-18" on="1"/>
        <pt x="179" y="12" on="0"/>
        <pt x="214" y="45" on="0"/>
        <pt x="237" y="45" on="1"/>
        <pt x="264" y="45" on="0"/>
        <pt x="303" y="8" on="0"/>
        <pt x="317" y="-29" on="1"/>
        <pt x="317" y="-28" on="0"/>
        <pt x="317" y="-26" on="0"/>
        <pt x="317" y="-25" on="1"/>
        <pt x="297" y="64" on="0"/>
        <pt x="173" y="185" on="0"/>
        <pt x="80" y="209" on="1"/>
        <pt x="61" y="233" on="0"/>
        <pt x="42" y="281" on="0"/>
        <pt x="40" y="310" on="1"/>
        <pt x="86" y="363" on="0"/>
        <pt x="241" y="468" on="0"/>
        <pt x="328" y="506" on="1"/>
        <pt x="328" y="509" on="0"/>
        <pt x="329" y="517" on="0"/>
        <pt x="330" y="525" on="1"/>
        <pt x="331" y="533" on="0"/>
        <pt x="332" y="542" on="0"/>
        <pt x="332" y="546" on="1"/>
        <pt x="314" y="548" on="0"/>
        <pt x="274" y="550" on="0"/>
        <pt x="252" y="550" on="1"/>
        <pt x="194" y="550" on="0"/>
        <pt x="60" y="536" on="0"/>
        <pt x="0" y="524" on="1"/>
        <pt x="-3" y="532" on="0"/>
        <pt x="-7" y="554" on="0"/>
        <pt x="-7" y="566" on="1"/>
        <pt x="-7" y="575" on="0"/>
        <pt x="-3" y="594" on="0"/>
        <pt x="0" y="601" on="1"/>
        <pt x="53" y="614" on="0"/>
        <pt x="194" y="631" on="0"/>
        <pt x="256" y="631" on="1"/>
        <pt x="310" y="631" on="0"/>
        <pt x="435" y="614" on="0"/>
        <pt x="480" y="601" on="1"/>
        <pt x="483" y="595" on="0"/>
        <pt x="487" y="577" on="0"/>
        <pt x="487" y="566" on="1"/>
        <pt x="487" y="554" on="0"/>
        <pt x="483" y="532" on="0"/>
        <pt x="480" y="524" on="1"/>
        <pt x="462" y="528" on="0"/>
        <pt x="422" y="535" on="0"/>
        <pt x="402" y="538" on="1"/>
        <pt x="396" y="474" on="0"/>
        <pt x="392" y="360" on="0"/>
        <pt x="392" y="286" on="1"/>
        <pt x="392" y="110" on="0"/>
        <pt x="407" y="-137" on="0"/>
        <pt x="423" y="-215" on="1"/>
        <pt x="406" y="-222" on="0"/>
        <pt x="357" y="-229" on="0"/>
        <pt x="330" y="-229" on="1"/>
        <pt x="322" y="-135" on="0"/>
        <pt x="280" y="-32" on="0"/>
        <pt x="250" y="-32" on="1"/>
        <pt x="236" y="-32" on="0"/>
        <pt x="220" y="-52" on="0"/>
        <pt x="220" y="-68" on="1"/>
        <pt x="220" y="-73" on="0"/>
        <pt x="223" y="-82" on="0"/>
        <pt x="226" y="-89" on="1"/>
        <pt x="241" y="-115" on="1"/>
        <pt x="227" y="-122" on="0"/>
        <pt x="198" y="-133" on="0"/>
        <pt x="182" y="-137" on="1"/>
        <pt x="169" y="-117" on="1"/>
        <pt x="169" y="-117" on="1"/>
        <pt x="144" y="-75" on="0"/>
        <pt x="104" y="-39" on="0"/>
        <pt x="82" y="-39" on="1"/>
        <pt x="59" y="-39" on="0"/>
        <pt x="31" y="-71" on="0"/>
        <pt x="31" y="-98" on="1"/>
        <pt x="31" y="-128" on="0"/>
        <pt x="83" y="-165" on="0"/>
      </contour>
    </TTGlyph>
    <TTGlyph name="bn_b_ra" xMin="-22" yMin="-215" xMax="487" yMax="631">
      <contour>
        <pt x="313" y="104" on="1"/>
        <pt x="313" y="120" on="0"/>
        <pt x="313" y="153" on="0"/>
        <pt x="313" y="169" on="1"/>
        <pt x="313" y="236" on="0"/>
        <pt x="316" y="346" on="0"/>
        <pt x="320" y="399" on="1"/>
        <pt x="272" y="376" on="0"/>
        <pt x="170" y="305" on="0"/>
        <pt x="133" y="269" on="1"/>
        <pt x="196" y="238" on="0"/>
        <pt x="286" y="155" on="0"/>
      </contour>
      <contour>
        <pt x="420" y="-201" on="1"/>
        <pt x="403" y="-208" on="0"/>
        <pt x="355" y="-215" on="0"/>
        <pt x="328" y="-215" on="1"/>
        <pt x="304" y="-189" on="0"/>
        <pt x="292" y="-179" on="0"/>
        <pt x="286" y="-175" on="1"/>
        <pt x="274" y="-169" on="0"/>
        <pt x="246" y="-162" on="0"/>
        <pt x="229" y="-162" on="1"/>
        <pt x="218" y="-162" on="0"/>
        <pt x="193" y="-164" on="0"/>
        <pt x="169" y="-166" on="1"/>
        <pt x="144" y="-168" on="0"/>
        <pt x="118" y="-170" on="0"/>
        <pt x="107" y="-170" on="1"/>
        <pt x="48" y="-170" on="0"/>
        <pt x="-22" y="-107" on="0"/>
        <pt x="-22" y="-54" on="1"/>
        <pt x="-22" y="-31" on="0"/>
        <pt x="-9" y="19" on="0"/>
        <pt x="6" y="54" on="1"/>
        <pt x="25" y="53" on="0"/>
        <pt x="56" y="45" on="0"/>
        <pt x="67" y="37" on="1"/>
        <pt x="58" y="17" on="0"/>
        <pt x="49" y="-18" on="0"/>
        <pt x="49" y="-33" on="1"/>
        <pt x="49" y="-60" on="0"/>
        <pt x="82" y="-89" on="0"/>
        <pt x="111" y="-89" on="1"/>
        <pt x="118" y="-89" on="0"/>
        <pt x="137" y="-88" on="0"/>
        <pt x="157" y="-85" on="1"/>
        <pt x="181" y="-83" on="0"/>
        <pt x="206" y="-81" on="0"/>
        <pt x="217" y="-81" on="1"/>
        <pt x="250" y="-81" on="0"/>
        <pt x="300" y="-108" on="0"/>
        <pt x="322" y="-138" on="1"/>
        <pt x="320" y="-112" on="0"/>
        <pt x="317" y="-53" on="0"/>
        <pt x="316" y="-18" on="1"/>
        <pt x="288" y="70" on="0"/>
        <pt x="165" y="188" on="0"/>
        <pt x="80" y="209" on="1"/>
        <pt x="61" y="233" on="0"/>
        <pt x="42" y="281" on="0"/>
        <pt x="40" y="310" on="1"/>
        <pt x="86" y="363" on="0"/>
        <pt x="241" y="468" on="0"/>
        <pt x="328" y="506" on="1"/>
        <pt x="328" y="509" on="0"/>
        <pt x="329" y="517" on="0"/>
        <pt x="330" y="525" on="1"/>
        <pt x="331" y="533" on="0"/>
        <pt x="332" y="542" on="0"/>
        <pt x="332" y="546" on="1"/>
        <pt x="314" y="548" on="0"/>
        <pt x="274" y="550" on="0"/>
        <pt x="252" y="550" on="1"/>
        <pt x="194" y="550" on="0"/>
        <pt x="60" y="536" on="0"/>
        <pt x="0" y="524" on="1"/>
        <pt x="-3" y="532" on="0"/>
        <pt x="-7" y="554" on="0"/>
        <pt x="-7" y="566" on="1"/>
        <pt x="-7" y="575" on="0"/>
        <pt x="-3" y="594" on="0"/>
        <pt x="0" y="601" on="1"/>
        <pt x="53" y="614" on="0"/>
        <pt x="194" y="631" on="0"/>
        <pt x="256" y="631" on="1"/>
        <pt x="310" y="631" on="0"/>
        <pt x="435" y="614" on="0"/>
        <pt x="480" y="601" on="1"/>
        <pt x="483" y="595" on="0"/>
        <pt x="487" y="577" on="0"/>
        <pt x="487" y="566" on="1"/>
        <pt x="487" y="554" on="0"/>
        <pt x="483" y="532" on="0"/>
        <pt x="480" y="524" on="1"/>
        <pt x="462" y="528" on="0"/>
        <pt x="422" y="535" on="0"/>
        <pt x="402" y="538" on="1"/>
        <pt x="396" y="474" on="0"/>
        <pt x="392" y="360" on="0"/>
        <pt x="392" y="286" on="1"/>
        <pt x="392" y="110" on="0"/>
        <pt x="406" y="-127" on="0"/>
      </contour>
    </TTGlyph>
</ttFont>
